<svg width="500" height="500" viewBox="0 0 500 500" fill="none" xmlns="http://www.w3.org/2000/svg">
<g id="100017_6299FE_F7F7F7">
<path id="Shape" fill-rule="evenodd" clip-rule="evenodd" d="M249.246 210.194C249.123 198.829 240.399 189.71 229.734 189.797C219.069 189.885 210.478 199.146 210.519 210.511C210.56 221.877 219.217 231.067 229.882 231.068C240.636 230.996 249.302 221.654 249.246 210.194ZM217.181 233.182C212.731 230.417 207.425 229.669 202.454 231.107C197.482 232.545 193.259 236.048 190.73 240.831C185.378 250.811 188.533 263.522 197.817 269.376C202.267 272.141 207.573 272.889 212.544 271.451C217.516 270.013 221.739 266.51 224.268 261.727C229.621 251.747 226.465 239.036 217.181 233.182V233.182ZM219.602 274.643C210.319 280.496 207.162 293.205 212.511 303.185C215.04 307.969 219.264 311.473 224.236 312.91C229.209 314.348 234.515 313.6 238.966 310.834C248.249 304.982 251.405 292.272 246.053 282.292C243.524 277.509 239.301 274.006 234.329 272.569C229.357 271.131 224.052 271.878 219.602 274.643ZM254.087 293.113C254.222 304.475 262.95 313.583 273.612 313.487C284.275 313.392 292.858 304.129 292.814 292.766C292.769 281.404 284.114 272.218 273.451 272.217C268.283 272.25 263.339 274.471 259.707 278.39C256.075 282.309 254.054 287.605 254.087 293.113ZM286.152 270.122C290.603 272.887 295.908 273.634 300.88 272.196C305.851 270.759 310.074 267.256 312.603 262.473C317.955 252.494 314.8 239.783 305.516 233.931C301.066 231.166 295.761 230.419 290.789 231.856C285.817 233.294 281.594 236.797 279.065 241.58C273.713 251.559 276.869 264.269 286.152 270.122V270.122ZM283.732 228.66C293.014 222.808 296.172 210.099 290.822 200.118C288.293 195.334 284.07 191.831 279.097 190.393C274.124 188.955 268.818 189.703 264.367 192.469C255.084 198.323 251.928 211.035 257.281 221.015C259.81 225.798 264.033 229.299 269.005 230.736C273.977 232.173 279.281 231.425 283.732 228.66V228.66ZM257.12 178.957C262.347 175.661 264.125 168.504 261.111 162.884C259.685 160.192 257.306 158.222 254.507 157.413C251.707 156.604 248.72 157.024 246.213 158.579C240.986 161.875 239.209 169.032 242.222 174.652C243.648 177.343 246.027 179.314 248.827 180.123C251.626 180.932 254.613 180.512 257.12 178.957V178.957ZM207.016 167.439C211.473 164.627 212.988 158.525 210.42 153.733C209.205 151.436 207.178 149.755 204.79 149.065C202.403 148.375 199.856 148.733 197.719 150.061C193.262 152.87 191.746 158.972 194.316 163.764C195.529 166.061 197.556 167.744 199.944 168.435C202.331 169.126 204.879 168.767 207.016 167.439V167.439ZM148.794 192.954C152.649 190.527 153.96 185.25 151.736 181.108C150.687 179.122 148.934 177.668 146.87 177.071C144.806 176.474 142.604 176.784 140.756 177.932C136.904 180.364 135.595 185.639 137.815 189.782C138.867 191.764 140.621 193.215 142.685 193.808C144.748 194.401 146.949 194.088 148.794 192.939V192.954ZM186.764 131.628C189.849 129.683 190.899 125.459 189.121 122.142C188.28 120.552 186.876 119.388 185.223 118.91C183.571 118.433 181.807 118.681 180.328 119.6C177.243 121.546 176.195 125.77 177.974 129.086C178.816 130.674 180.22 131.835 181.872 132.31C183.525 132.785 185.287 132.534 186.764 131.613V131.628ZM122.872 252.297C122.827 248.52 119.926 245.493 116.383 245.524C112.839 245.555 109.985 248.634 110 252.411C110.015 256.187 112.892 259.241 116.436 259.241C118.156 259.229 119.8 258.489 121.008 257.184C122.215 255.878 122.886 254.115 122.872 252.282V252.297ZM187.775 372.324C186.295 371.405 184.533 371.157 182.88 371.635C181.228 372.113 179.825 373.277 178.984 374.866C177.206 378.183 178.254 382.406 181.338 384.353C182.818 385.271 184.581 385.519 186.233 385.041C187.885 384.564 189.288 383.4 190.129 381.81C191.909 378.493 190.861 374.266 187.775 372.32V372.324ZM316.57 371.698C313.484 373.641 312.434 377.864 314.212 381.18C315.053 382.77 316.457 383.934 318.11 384.412C319.762 384.89 321.526 384.641 323.006 383.723C326.088 381.775 327.136 377.553 325.36 374.236C324.518 372.648 323.114 371.486 321.461 371.01C319.809 370.535 318.046 370.787 316.57 371.709V371.698ZM380.462 251.026C380.504 254.802 383.404 257.832 386.948 257.802C390.493 257.772 393.347 254.694 393.333 250.917C393.319 247.139 390.442 244.085 386.898 244.085C383.323 244.107 380.442 247.213 380.462 251.022V251.026ZM315.559 130.998C317.037 131.918 318.801 132.167 320.453 131.689C322.106 131.211 323.509 130.046 324.349 128.456C326.127 125.14 325.079 120.916 321.995 118.97C320.515 118.05 318.751 117.802 317.098 118.28C315.445 118.759 314.041 119.924 313.201 121.516C311.433 124.829 312.482 129.04 315.559 130.984V130.998ZM153.107 318.442C153.057 313.72 149.433 309.93 145.002 309.966C140.571 310.001 137.001 313.849 137.018 318.571C137.034 323.293 140.631 327.112 145.062 327.112C147.211 327.101 149.267 326.179 150.777 324.55C152.286 322.92 153.125 320.717 153.107 318.427V318.442ZM255.979 377.151C254.132 376.003 251.93 375.693 249.866 376.29C247.802 376.887 246.049 378.341 245 380.327C242.778 384.469 244.088 389.744 247.941 392.173C249.788 393.322 251.99 393.633 254.055 393.037C256.119 392.441 257.872 390.987 258.921 389.001C261.153 384.854 259.842 379.567 255.979 377.136V377.151ZM354.539 310.379C350.685 312.81 349.374 318.085 351.594 322.229C352.644 324.214 354.398 325.668 356.463 326.264C358.527 326.86 360.729 326.55 362.577 325.401C366.429 322.971 367.738 317.697 365.519 313.555C364.472 311.567 362.72 310.11 360.656 309.51C358.592 308.91 356.388 309.218 354.539 310.364V310.379ZM350.226 184.895C350.278 189.617 353.903 193.404 358.333 193.368C362.764 193.331 366.333 189.483 366.316 184.761C366.298 180.04 362.702 176.221 358.271 176.221C356.127 176.232 354.074 177.15 352.565 178.774C351.056 180.398 350.215 182.595 350.226 184.88V184.895ZM247.354 126.182C249.201 127.33 251.404 127.64 253.467 127.043C255.531 126.446 257.284 124.992 258.334 123.007C260.555 118.865 259.245 113.589 255.392 111.16C253.545 110.011 251.343 109.7 249.279 110.296C247.215 110.893 245.461 112.347 244.412 114.333C242.199 118.472 243.508 123.738 247.354 126.168V126.182ZM161.74 251.275C161.676 245.818 157.485 241.442 152.363 241.487C147.242 241.532 143.118 245.981 143.139 251.439C143.16 256.897 147.318 261.309 152.439 261.31C154.924 261.294 157.3 260.226 159.045 258.341C160.79 256.455 161.759 253.908 161.74 251.26V251.275ZM206.39 335.518C204.254 334.189 201.706 333.83 199.318 334.52C196.931 335.21 194.903 336.892 193.689 339.19C191.12 343.982 192.635 350.085 197.093 352.896C199.23 354.223 201.777 354.582 204.164 353.892C206.551 353.202 208.579 351.521 209.794 349.224C212.378 344.426 210.861 338.305 206.39 335.492V335.518ZM296.317 335.891C291.861 338.701 290.346 344.802 292.913 349.593C294.126 351.891 296.154 353.574 298.542 354.265C300.929 354.956 303.477 354.597 305.614 353.268C310.072 350.458 311.588 344.355 309.018 339.562C307.805 337.264 305.778 335.58 303.39 334.888C301.003 334.197 298.454 334.555 296.317 335.883V335.891ZM341.593 252.054C341.655 257.512 345.846 261.89 350.968 261.846C356.09 261.803 360.214 257.354 360.194 251.896C360.174 246.437 356.016 242.024 350.894 242.023C348.412 242.039 346.038 243.105 344.294 244.986C342.55 246.867 341.578 249.41 341.593 252.054V252.054ZM296.943 167.812C299.08 169.14 301.627 169.5 304.015 168.81C306.402 168.119 308.43 166.437 309.644 164.14C312.213 159.349 310.698 153.247 306.24 150.438C304.103 149.11 301.556 148.751 299.169 149.441C296.782 150.131 294.754 151.813 293.54 154.109C290.972 158.901 292.487 165.001 296.943 167.812ZM196.051 210.209C195.975 203.809 191.06 198.679 185.054 198.732C179.049 198.785 174.214 204.002 174.239 210.402C174.263 216.802 179.139 221.976 185.144 221.977C191.205 221.936 196.087 216.668 196.051 210.209ZM190.597 282.896C188.091 281.341 185.104 280.921 182.304 281.73C179.505 282.539 177.126 284.51 175.7 287.201C172.686 292.822 174.463 299.981 179.691 303.278C182.198 304.833 185.185 305.252 187.985 304.443C190.785 303.633 193.163 301.662 194.588 298.969C197.598 293.351 195.821 286.199 190.597 282.904V282.896ZM246.213 324.339C240.986 327.635 239.209 334.792 242.222 340.412C243.648 343.104 246.026 345.076 248.826 345.886C251.625 346.695 254.613 346.276 257.12 344.721C262.348 341.424 264.125 334.265 261.111 328.644C259.684 325.954 257.304 323.985 254.505 323.177C251.706 322.37 248.719 322.791 246.213 324.346V324.339ZM307.283 293.095C307.358 299.494 312.273 304.625 318.279 304.571C324.284 304.518 329.119 299.301 329.094 292.901C329.07 286.502 324.195 281.327 318.189 281.327C315.278 281.346 312.494 282.596 310.448 284.803C308.403 287.01 307.264 289.993 307.283 293.095V293.095ZM312.736 220.407C315.243 221.962 318.23 222.382 321.029 221.573C323.829 220.764 326.207 218.794 327.633 216.102C330.647 210.481 328.87 203.323 323.642 200.025C321.135 198.47 318.148 198.051 315.348 198.861C312.549 199.671 310.17 201.642 308.745 204.334C305.736 209.952 307.512 217.104 312.736 220.4V220.407Z" fill="white"/>
</g>
</svg>
