<svg width="150" height="150" viewBox="0 0 150 150" fill="none" xmlns="http://www.w3.org/2000/svg">
<path fill-rule="evenodd" clip-rule="evenodd" d="M38.245 102.797C35.6117 101.263 34 98.5401 34 95.6076V79.2355C34 77.2916 35.6645 75.7164 37.7078 75.7248C38.3595 75.7248 39.0024 75.8924 39.5661 76.2024L78.3965 97.7441C80.6688 99.001 82.0691 101.313 82.0691 103.819V120.777C82.0779 123.107 80.0963 125 77.6479 125C76.8289 125 76.0186 124.782 75.3229 124.38L38.245 102.797ZM96.5197 72.1275C98.7928 73.3698 100.185 75.6639 100.194 78.132V112.155C100.194 113.157 99.621 114.084 98.6871 114.573L90.1851 119.07C90.0794 119.128 89.9649 119.17 89.8415 119.203V100.311C89.8415 97.8682 88.4759 95.5989 86.2381 94.34L52.1245 75.1587V53.8324C52.1245 51.9109 53.7897 50.3539 55.8337 50.3622C56.4856 50.3622 57.1288 50.5278 57.6926 50.8343L96.5197 72.1275ZM113.06 46.7151C115.341 47.9594 116.742 50.2574 116.742 52.7378V102.513C116.733 103.533 116.134 104.47 115.183 104.96L107.123 109.058V74.4065C107.123 71.9592 105.758 69.6945 103.538 68.4335L68.6729 48.7392V28.4809C68.6729 27.867 68.849 27.2614 69.1661 26.7305C70.1968 25.0713 72.4606 24.5072 74.2223 25.4695L113.06 46.7151Z" fill="#00D395"/>
</svg>
