<svg width="150" height="150" viewBox="0 0 150 150" fill="none" xmlns="http://www.w3.org/2000/svg">
<path d="M98.3707 33.8031C95.7978 36.376 93.4405 39.1647 91.3452 42.1382L90.6827 41.9225C86.8618 40.6745 82.9022 39.9042 78.9119 39.6423C77.7101 39.5499 73.2267 39.5499 71.7631 39.6423C67.3413 39.935 63.9518 40.5975 60.1001 41.9379C59.9461 41.9995 59.8074 42.0458 59.6687 42.092C57.4964 39.1339 55.0775 36.3606 52.4121 33.8185C65.1998 27.2706 80.1598 26.4849 93.5484 31.6461C94.9812 32.1854 96.3832 32.8171 97.7544 33.495L98.3707 33.8031Z" fill="#F00500"/>
<path d="M122.22 92.2412C120.279 97.7723 117.367 102.903 113.593 107.371C111.543 109.774 109.279 111.977 106.844 113.98C101.144 118.572 94.4881 121.853 87.3855 123.579C79.528 125.474 71.3316 125.474 63.4741 123.579C56.3561 121.853 49.7158 118.572 44.0153 113.98C41.581 111.977 39.3162 109.774 37.2671 107.371C26.4052 94.5368 23.1082 76.9114 28.6392 61.027C29.6869 58.0843 30.9965 55.2494 32.568 52.5532C33.2921 51.3207 34.1857 49.9341 34.6171 49.364C36.0961 55.727 37.9141 61.3197 38.592 63.338C38.5458 63.4458 38.4842 63.5691 38.4226 63.677C34.8328 70.949 32.8915 77.9591 32.4293 85.416C32.4293 85.5084 32.4139 85.6163 32.4139 85.7087C32.2906 87.9427 32.3523 89.0058 32.722 90.4078C33.8775 94.7988 37.4365 99.6365 43.0138 104.382C52.1501 112.147 64.5372 117.755 73.9199 118.402C83.7033 119.065 98.1395 113.349 107.753 104.998C109.263 103.658 110.681 102.24 112.006 100.73C112.961 99.6211 114.378 97.7107 114.27 97.7107C114.24 97.7107 114.27 97.6798 114.332 97.649C114.378 97.6182 114.424 97.572 114.394 97.5412C114.378 97.5258 114.409 97.4796 114.455 97.4641C114.502 97.4487 114.532 97.4179 114.517 97.3871C114.502 97.3563 114.517 97.3255 114.579 97.3101C114.625 97.2947 114.64 97.2485 114.625 97.2176C114.609 97.1868 114.625 97.156 114.656 97.156C114.686 97.156 114.717 97.1098 114.717 97.079C114.717 97.0482 114.748 97.0019 114.779 97.0019C114.81 97.0019 114.84 96.9711 114.84 96.9403C114.887 96.8171 114.964 96.6938 115.041 96.586C115.272 96.2316 116.196 94.5831 116.32 94.3057C117.198 92.3183 117.752 90.5465 118.014 88.7747C118.138 87.9273 118.215 86.3712 118.153 86.0015C118.138 85.9398 118.138 85.832 118.122 85.6625C118.091 85.3544 118.076 84.8922 118.045 84.43C118.014 83.7367 117.953 82.766 117.906 82.2884C117.244 75.2937 115.457 69.5778 112.067 63.5229C111.929 63.2918 111.805 63.0607 111.728 62.8758C111.698 62.8296 111.682 62.7834 111.667 62.7525C112.144 61.3197 114.101 55.3264 115.657 48.4704L115.688 48.5012L115.919 48.8094C116.32 49.3486 117.383 50.9509 117.86 51.7212C120.033 55.2648 121.727 59.0703 122.929 63.0453C125.718 72.6129 125.487 82.8122 122.22 92.2412Z" fill="#F00500"/>
<path d="M102.222 73.8301C102.176 74.0766 101.452 74.8161 100.728 75.3553C98.6018 76.9114 94.7963 78.3597 90.9292 79.053C88.726 79.4535 86.5229 79.5152 85.8604 79.1916C85.429 78.9759 85.3674 78.8065 85.5214 78.2518C85.845 77.0963 86.8926 75.8329 88.5258 74.6466C89.3577 74.0458 92.7318 71.9966 94.3033 71.1339C96.8917 69.7164 98.987 68.8691 100.404 68.6688C100.851 68.6071 101.39 68.5917 101.56 68.6688C101.837 68.7766 102.145 69.5932 102.269 70.5792C102.33 71.103 102.299 73.4141 102.222 73.8301Z" fill="black"/>
<path d="M65.924 78.9297C65.8315 79.1146 65.3693 79.3149 64.8455 79.3919C64.3216 79.469 62.7193 79.4227 61.8103 79.3149C58.5441 78.8835 55.0776 77.8821 52.5508 76.6495C51.1334 75.9562 50.1165 75.2629 49.3616 74.508L48.9302 74.0612L48.884 73.4757C48.807 72.4588 48.8224 70.8565 48.9456 70.2865C49.0227 69.8089 49.1921 69.3467 49.4232 68.9307C49.5465 68.7766 49.5465 68.7766 50.1011 68.7766C50.779 68.7766 51.3491 68.8845 52.2735 69.1772C54.1685 69.7627 56.988 71.1801 60.4237 73.2446C63.2586 74.9393 64.3217 75.7713 65.1382 76.9114C65.6929 77.6201 66.0626 78.6216 65.924 78.9297Z" fill="black"/>
<path d="M87.7396 100.376C87.7396 100.422 87.5547 101.162 87.3236 102.04C87.0925 102.918 86.9076 103.627 86.9076 103.658C86.7382 103.673 86.5841 103.689 86.4146 103.673H85.9216L85.2437 105.275C84.8739 106.154 84.535 106.97 84.4888 107.093L84.3963 107.309L84.0728 106.785L83.7492 106.261V101.994L83.626 102.025C83.3641 102.086 81.4998 102.333 80.6833 102.41C77.3092 102.749 73.9197 102.672 70.561 102.194C70.0217 102.117 69.5595 102.055 69.5441 102.071C69.5287 102.086 69.5441 103.072 69.5749 104.289L69.6212 106.477L69.3592 106.878C69.2206 107.093 69.0819 107.278 69.0819 107.294C69.0357 107.34 68.8816 107.093 68.5273 106.385C68.1421 105.645 67.8648 104.859 67.6645 104.043L67.5566 103.596L67.079 103.627L66.6014 103.673L66.4782 103.103C66.4165 102.795 66.3395 102.317 66.3087 102.055L66.2625 101.562L65.8619 101.208C65.6308 101.008 65.3997 100.807 65.3535 100.777C65.2764 100.715 65.2456 100.607 65.2456 100.515V100.33L67.1715 100.345L69.0973 100.361L69.1589 100.561L69.2206 100.761L69.8831 100.792C70.2528 100.807 71.4238 100.838 72.4714 100.869L74.3973 100.915L74.8903 100.145L75.3987 99.3746H76.0458L76.0304 97.7723L76.015 96.17L75.1676 95.8002C72.4406 94.5985 70.8383 93.2273 70.2374 91.5633C70.1142 91.2244 70.1142 91.1011 70.0834 89.5604C70.0679 88.0352 70.0679 87.8965 70.1758 87.5576C70.3915 86.7872 70.9924 86.1864 71.7627 85.9861C72.0246 85.909 72.7179 85.909 76.354 85.909L80.637 85.9244L81.1146 86.1555C81.6847 86.4329 81.9466 86.6331 82.2702 87.0645C82.6399 87.5576 82.7478 87.9427 82.7478 88.8825C82.7478 90.2229 82.6553 91.3785 82.5167 91.8407C82.3164 92.4723 82.0083 93.0732 81.6231 93.6124C80.8527 94.5985 79.4507 95.5845 78.1719 96.0313L77.8022 96.17L77.8176 97.7877L77.833 99.4054L78.1719 99.4362L78.5109 99.467L78.9731 100.16L79.4199 100.854H81.4844C82.6245 100.854 83.626 100.869 83.7184 100.884C83.8725 100.915 83.9033 100.9 84.0574 100.638L84.2422 100.361H86.014C87.339 100.299 87.7396 100.33 87.7396 100.376Z" fill="black"/>
<path d="M79.6048 104.798C79.3121 104.967 79.1118 105.044 79.0656 105.014C79.0193 104.998 78.8036 104.813 78.5725 104.644L78.1565 104.305L77.7251 104.767C76.7853 105.784 76.7545 105.83 76.4772 105.845C76.0458 105.892 75.9534 105.815 75.4295 105.029C75.1522 104.628 74.9365 104.289 74.9365 104.289C74.9365 104.289 74.7362 104.259 74.5051 104.243L74.0737 104.197L73.8734 104.613L73.6732 105.029L73.3188 104.921C73.0415 104.829 72.7642 104.721 72.5022 104.598L72.04 104.366V103.488L76.1383 103.504L80.2365 103.519L80.2519 103.935C80.2673 104.428 80.2827 104.413 79.6048 104.798Z" fill="black"/>
<path d="M118.122 86.0015C118.107 85.9398 118.107 85.832 118.092 85.6625C114.394 85.2619 103.84 85.0154 94.0415 93.104C94.0415 93.104 90.8831 78.6216 76.0925 78.6216C61.302 78.6216 55.8171 93.104 55.8171 93.104C47.5282 84.1835 36.4353 84.8305 32.4295 85.416C32.4295 85.5084 32.4141 85.6163 32.4141 85.7087C32.2909 87.9427 32.3525 89.0058 32.7223 90.4078C33.8778 94.7988 37.4368 99.6365 43.014 104.382C52.1503 112.147 64.5374 117.755 73.9202 118.402C83.7035 119.065 98.1397 113.349 107.754 104.998C109.263 103.658 110.681 102.24 112.006 100.73C112.961 99.6211 114.379 97.7107 114.271 97.7107C114.24 97.7107 114.271 97.6798 114.332 97.649C114.379 97.6182 114.425 97.572 114.394 97.5412C114.379 97.5258 114.409 97.4796 114.456 97.4641C114.502 97.4487 114.533 97.4179 114.517 97.3871C114.502 97.3563 114.517 97.3255 114.579 97.3101C114.625 97.2947 114.64 97.2485 114.625 97.2176C114.61 97.1868 114.625 97.156 114.656 97.156C114.687 97.156 114.717 97.1098 114.717 97.079C114.717 97.0482 114.748 97.0019 114.779 97.0019C114.81 97.0019 114.841 96.9711 114.841 96.9403C114.887 96.8171 114.964 96.6938 115.041 96.586C115.272 96.2316 116.197 94.5831 116.32 94.3057C117.198 92.3183 117.753 90.5465 118.015 88.7747C118.107 87.9273 118.184 86.3712 118.122 86.0015ZM79.6053 104.798C79.3126 104.967 79.1123 105.044 79.066 105.013C79.0198 104.998 78.8041 104.813 78.573 104.644L78.157 104.305L77.7256 104.767C76.7858 105.784 76.755 105.83 76.4777 105.845C76.0463 105.892 75.9539 105.815 75.43 105.029C75.1527 104.628 74.937 104.289 74.937 104.289C74.937 104.289 74.7367 104.259 74.5056 104.243L74.0742 104.197L73.8739 104.613L73.6737 105.029L73.3193 104.921C73.042 104.829 72.7647 104.721 72.5027 104.598L72.0405 104.366V103.488L76.1387 103.504L80.237 103.519L80.2524 103.935C80.2678 104.428 80.2832 104.413 79.6053 104.798ZM87.3087 102.025C87.0776 102.903 86.8927 103.611 86.8927 103.642C86.7232 103.658 86.5692 103.673 86.3997 103.658H85.9067L85.2442 105.275C84.8744 106.154 84.5355 106.97 84.4893 107.093L84.3968 107.309L84.0733 106.785L83.7497 106.261V101.994L83.6265 102.025C83.3646 102.086 81.5003 102.333 80.6838 102.41C77.3097 102.749 73.9202 102.672 70.5615 102.194C70.0222 102.117 69.56 102.055 69.5446 102.071C69.5292 102.086 69.5446 103.072 69.5754 104.289L69.6217 106.477L69.3597 106.878C69.2211 107.093 69.0824 107.278 69.0824 107.294C69.0362 107.34 68.8821 107.093 68.5278 106.385C68.1426 105.645 67.8653 104.859 67.665 104.043L67.5571 103.596L67.0795 103.627L66.6019 103.673L66.4787 103.103C66.417 102.795 66.34 102.317 66.3092 102.055L66.263 101.562L65.8624 101.208C65.6313 101.008 65.4002 100.807 65.354 100.777C65.2769 100.715 65.2461 100.607 65.2461 100.515V100.33L67.172 100.345L69.0978 100.361L69.1594 100.561L69.2211 100.761L69.8836 100.792C70.2533 100.807 71.4242 100.838 72.4719 100.869L74.3978 100.915L74.8908 100.145L75.3992 99.3746H76.0463L76.0309 97.7723L76.0155 96.17L75.1681 95.8002C72.4411 94.5985 70.8388 93.2273 70.2379 91.5633C70.1147 91.2244 70.1147 91.1011 70.0839 89.5604C70.0685 88.0352 70.0684 87.8965 70.1763 87.5575C70.392 86.7872 70.9929 86.1863 71.7632 85.986C72.0251 85.909 72.7184 85.909 76.3545 85.909L80.6375 85.9244L81.1151 86.1555C81.6852 86.4329 81.9471 86.6331 82.2707 87.0645C82.6404 87.5575 82.7483 87.9427 82.7483 88.8825C82.7483 90.2229 82.6558 91.3784 82.5172 91.8406C82.3169 92.4723 82.0088 93.0732 81.6236 93.6124C80.8532 94.5985 79.4512 95.5845 78.1724 96.0313L77.8027 96.17L77.8181 97.7877L77.8335 99.4054L78.1724 99.4362L78.5114 99.467L78.9736 100.16L79.4204 100.854H81.4849C82.625 100.854 83.6265 100.869 83.7189 100.884C83.873 100.915 83.9038 100.9 84.0579 100.638L84.2427 100.361H86.0145C87.3857 100.361 87.7863 100.376 87.7863 100.422C87.7401 100.407 87.5398 101.162 87.3087 102.025Z" fill="white"/>
<path d="M117.999 84.4299C117.968 83.7366 117.906 82.766 117.86 82.2884C117.198 75.2937 115.41 69.5778 112.021 63.5229C111.882 63.2918 111.759 63.0607 111.682 62.8758C111.651 62.8296 111.636 62.7833 111.62 62.7525C112.098 61.3197 114.055 55.3264 115.611 48.4704C117.722 39.1646 119.062 28.2874 114.964 25.0212C114.964 25.0212 107.877 24.4973 98.3859 33.8031C95.813 36.376 93.4557 39.1647 91.3604 42.1382L90.6979 41.9225C86.877 40.6745 82.9175 39.9042 78.9271 39.6423C77.7254 39.5498 73.242 39.5498 71.7783 39.6423C67.3566 39.935 63.9671 40.5975 60.1153 41.9379C59.9613 41.9995 59.8226 42.0457 59.6839 42.0919C57.5116 39.1338 55.0927 36.3606 52.4273 33.8185C42.5515 24.4665 35.2025 25.0058 35.2025 25.0058C30.8578 28.3799 32.3368 39.7501 34.5862 49.364C36.0653 55.727 37.8833 61.3197 38.5612 63.338C38.515 63.4458 38.4533 63.5691 38.3917 63.6769C34.8019 70.949 32.8606 77.9591 32.3984 85.416C36.4196 84.8305 47.4971 84.168 55.8014 93.104C55.8014 93.104 61.2863 78.6216 76.0768 78.6216C90.8674 78.6216 94.0258 93.104 94.0258 93.104C103.825 85.0154 114.378 85.2773 118.076 85.6625C118.06 85.3544 118.03 84.8922 117.999 84.4299ZM41.4731 57.5296C41.4731 57.5296 35.7109 43.1242 37.19 34.897C37.4365 33.5103 37.8987 32.2932 38.6228 31.3688C38.6228 31.3688 45.1553 32.0159 55.6936 43.7251C55.6936 43.7251 53.6907 44.6957 51.0099 46.7602C51.0099 46.7602 50.9945 46.7756 50.9791 46.7756C48.0672 49.0096 44.3387 52.5532 41.4731 57.5296ZM65.9237 78.9297C65.8313 79.1146 65.3691 79.3149 64.8452 79.3919C64.3214 79.4689 62.7191 79.4227 61.8101 79.3149C58.5438 78.8835 55.0773 77.882 52.5506 76.6495C51.1332 75.9562 50.1163 75.2629 49.3614 74.5079L48.93 74.0611L48.8838 73.4757C48.8067 72.4588 48.8221 70.8565 48.9454 70.2865C49.0224 69.8089 49.1919 69.3466 49.423 68.9307C49.5462 68.7766 49.5463 68.7766 50.1009 68.7766C50.7788 68.7766 51.3489 68.8844 52.2733 69.1772C54.1683 69.7626 56.9878 71.1801 60.4235 73.2446C63.2583 74.9393 64.3214 75.7713 65.138 76.9114C65.6926 77.6201 66.0624 78.6216 65.9237 78.9297ZM102.222 73.83C102.176 74.0766 101.452 74.8161 100.728 75.3553C98.6016 76.9114 94.7961 78.3596 90.929 79.053C88.7258 79.4535 86.5227 79.5152 85.8602 79.1916C85.4288 78.9759 85.3672 78.8064 85.5212 78.2518C85.8448 77.0963 86.8924 75.8329 88.5256 74.6466C89.3575 74.0457 92.7316 71.9966 94.3031 71.1338C96.8915 69.7164 98.9868 68.869 100.404 68.6688C100.851 68.6071 101.39 68.5917 101.56 68.6688C101.837 68.7766 102.145 69.5932 102.268 70.5792C102.33 71.103 102.299 73.4141 102.222 73.83ZM99.6647 46.7602L99.6339 46.7448C97.0455 44.6803 95.1043 43.7097 95.1043 43.7097C105.288 32.0005 111.59 31.3534 111.59 31.3534C112.283 32.2932 112.73 33.4949 112.976 34.8815C114.409 43.1088 108.847 57.5296 108.847 57.5296C106.521 53.3852 103.393 49.7183 99.6647 46.7602Z" fill="#FFA409"/>
<path d="M112.992 34.8816C111.79 34.7275 106.105 34.6967 99.6649 46.7602L99.6341 46.7448C97.0458 44.6803 95.1045 43.7097 95.1045 43.7097C105.288 32.0005 111.59 31.3534 111.59 31.3534C112.299 32.2932 112.745 33.4949 112.992 34.8816Z" fill="#FF9300"/>
<path d="M108.862 57.5296C106.521 53.3698 103.408 49.7183 99.6646 46.7602C106.105 34.6967 111.774 34.7275 112.991 34.8816C114.424 43.1242 108.862 57.5296 108.862 57.5296Z" fill="#FF8300"/>
<path d="M113.223 34.9278C113.146 34.9124 113.069 34.897 112.992 34.8816L113.223 34.9278Z" fill="#FF8300"/>
<path d="M55.6938 43.7096C55.6938 43.7096 53.6909 44.6803 51.0102 46.7448C51.0102 46.7448 50.9947 46.7602 50.9793 46.7602C44.3082 34.6812 38.4382 34.7275 37.1748 34.8815C37.4213 33.4949 37.8835 32.2778 38.6076 31.3534C38.6231 31.3534 45.1555 32.0004 55.6938 43.7096Z" fill="#FF9300"/>
<path d="M50.9951 46.7602C48.0678 49.0096 44.3393 52.5378 41.4736 57.5296C41.4736 57.5296 35.7115 43.1242 37.1905 34.8815C38.4385 34.7275 44.3239 34.6966 50.9951 46.7602Z" fill="#FF8300"/>
<path d="M37.1904 34.8815C37.1133 34.8969 37.0209 34.9123 36.9438 34.9277L37.1904 34.8815Z" fill="#FF8300"/>
<path d="M93.271 65.5258C93.271 65.5258 88.3408 65.8339 88.9571 61.9822C89.5734 58.1305 93.4251 57.6683 94.5036 57.8223C95.5821 57.9764 99.896 59.5171 99.1256 62.7525C98.3553 65.988 97.2768 65.3717 96.6605 65.5258C96.0443 65.6798 93.271 65.5258 93.271 65.5258Z" fill="white"/>
<path d="M56.9107 65.5258C56.9107 65.5258 51.9805 65.8339 52.5968 61.9822C53.213 58.1305 57.0648 57.6683 58.1432 57.8223C59.2217 57.9764 63.5356 59.5171 62.7653 62.7525C61.9949 65.988 60.9165 65.3717 60.3002 65.5258C59.6839 65.6798 56.9107 65.5258 56.9107 65.5258Z" fill="white"/>
</svg>
