<svg width="150" height="150" viewBox="0 0 150 150" fill="none" xmlns="http://www.w3.org/2000/svg">
<path d="M45.6495 52.582L43.5805 48.9985L69.8582 33.8269L71.9272 37.4105L45.6495 52.582Z" fill="#FF80C7"/>
<path d="M36.8564 90.1712L36.8564 59.8283H40.9943L40.9943 90.1712H36.8564Z" fill="#8711FF"/>
<path d="M68.3066 115.342L42.0288 100.17L44.0978 96.5867L70.3755 111.758L68.3066 115.342Z" fill="#348EFF"/>
<path d="M105.203 52.4517L78.9254 37.2801L80.9943 33.6966L107.272 48.8681L105.203 52.4517Z" fill="#FF4545"/>
<path d="M107.832 47.097C111.626 44.9069 116.476 46.2066 118.666 50C120.857 53.7933 119.557 58.6439 115.763 60.834C115.154 61.186 114.517 61.4478 113.868 61.6237L113.868 90.1712H109.73L109.73 61.6222C108.414 61.2668 107.189 60.5743 106.196 59.5825L90.612 68.5796C90.7644 69.1461 90.8847 69.7258 90.9709 70.3168L90.9847 70.4179L90.9966 70.4235C91.6848 70.7505 92.1638 71.4462 92.1783 72.2553L92.1787 72.2933C92.1787 73.4232 91.2729 74.3416 90.1477 74.3619L90.1097 74.3622H89.0588C87.9483 74.3622 87.0396 73.4867 86.9918 72.3839L86.9901 72.3276C86.8918 66.4123 82.1113 61.6478 76.2085 61.5531L76.0293 61.5517C74.8866 61.5517 73.9603 60.6254 73.9603 59.4827C73.9603 58.3401 74.8866 57.4138 76.0293 57.4138C81.5224 57.4138 86.3375 60.3494 88.9799 64.7438L104.13 55.9972C103.232 52.6193 104.661 48.9282 107.832 47.097ZM115.083 52.0689C114.035 50.2547 111.716 49.6331 109.901 50.6806C108.087 51.728 107.466 54.0478 108.513 55.8621C109.56 57.6763 111.88 58.2979 113.695 57.2504C115.509 56.203 116.13 53.8832 115.083 52.0689Z" fill="#FFBF00"/>
<path d="M90.1097 70.2242C95.4913 70.2242 99.8539 74.5869 99.8539 79.9684C99.8539 82.0384 99.2084 83.9577 98.1078 85.5359L106.333 90.2843C108.815 87.9232 112.646 87.3662 115.763 89.166C119.557 91.3561 120.857 96.2066 118.666 100C116.476 103.793 111.626 105.093 107.832 102.903C107.137 102.502 106.526 102.011 106.005 101.454L81.8564 115.396L79.7874 111.812L104.065 97.796C103.77 96.5033 103.797 95.1348 104.18 93.82L94.8946 88.4589C93.4813 89.2571 91.8487 89.7126 90.1097 89.7126C88.967 89.7126 88.0407 88.7863 88.0407 87.6437C88.0407 86.5137 88.9466 85.5953 90.0717 85.575L90.1097 85.5747C93.206 85.5747 95.716 83.0647 95.716 79.9684C95.716 76.9031 93.2559 74.4124 90.2024 74.3629L90.1097 74.3622H89.0587C87.9161 74.3622 86.9898 73.4359 86.9898 72.2932C86.9898 71.1632 87.8956 70.2449 89.0207 70.2246L89.0587 70.2242H90.1097ZM108.513 94.1379C107.466 95.9521 108.087 98.272 109.901 99.3194C111.716 100.367 114.035 99.7452 115.083 97.931C116.13 96.1168 115.509 93.797 113.694 92.7495C111.88 91.7021 109.56 92.3237 108.513 94.1379Z" fill="#00DE64"/>
<path d="M75.3651 109.138C70.985 109.138 67.4341 112.689 67.4341 117.069C67.4341 121.449 70.985 125 75.3651 125C79.7453 125 83.2962 121.449 83.2962 117.069C83.2962 112.689 79.7453 109.138 75.3651 109.138ZM75.3651 113.276C77.46 113.276 79.1582 114.974 79.1582 117.069C79.1582 119.164 77.46 120.862 75.3651 120.862C73.2703 120.862 71.572 119.164 71.572 117.069C71.572 114.974 73.2703 113.276 75.3651 113.276Z" fill="#348EFF"/>
<path d="M75.3651 25C70.985 25 67.4341 28.5508 67.4341 32.931C67.4341 37.3112 70.985 40.8621 75.3651 40.8621C79.7453 40.8621 83.2962 37.3112 83.2962 32.931C83.2962 28.5508 79.7453 25 75.3651 25ZM75.3651 29.1379C77.46 29.1379 79.1582 30.8362 79.1582 32.931C79.1582 35.0259 77.46 36.7241 75.3651 36.7241C73.2703 36.7241 71.572 35.0259 71.572 32.931C71.572 30.8362 73.2703 29.1379 75.3651 29.1379Z" fill="#FF4545"/>
<path d="M34.9668 89.166C31.1735 91.3561 29.8738 96.2066 32.0639 100C34.254 103.793 39.1045 105.093 42.8979 102.903C46.6912 100.713 47.9909 95.8623 45.8008 92.069C43.6107 88.2756 38.7602 86.9759 34.9668 89.166ZM42.2173 94.1379C43.2647 95.9521 42.6431 98.272 40.8289 99.3194C39.0147 100.367 36.6949 99.7452 35.6474 97.931C34.6 96.1168 35.2216 93.797 37.0358 92.7495C38.85 91.7021 41.1698 92.3237 42.2173 94.1379Z" fill="#8711FF"/>
<path d="M32.0639 50C29.8738 53.7933 31.1735 58.6439 34.9668 60.834C38.7602 63.0241 43.6107 61.7244 45.8008 57.931C47.9909 54.1377 46.6912 49.2871 42.8979 47.097C39.1425 44.9288 34.3509 46.181 32.1304 49.8869L32.0639 50ZM40.8289 50.6806C42.6431 51.728 43.2647 54.0478 42.2173 55.8621C41.1698 57.6763 38.85 58.2979 37.0358 57.2504C35.2216 56.203 34.6 53.8832 35.6474 52.0689C36.6949 50.2547 39.0147 49.6331 40.8289 50.6806Z" fill="#FF80C7"/>
<path d="M77.4916 87.0525V112.204H73.3537V87.0525H77.4916Z" fill="#348EFF"/>
<path d="M77.5461 40.1724V59.8276H73.4081V40.1724H77.5461Z" fill="#FF4545"/>
<path fill-rule="evenodd" clip-rule="evenodd" d="M55.017 84.3422L57.086 87.9258L45.9371 94.3626L43.8682 90.779L55.017 84.3422Z" fill="#8711FF"/>
<path d="M41.7172 57.7568L43.7861 54.1732L63.2322 65.4004L61.1632 68.9839L41.7172 57.7568Z" fill="#FF80C7"/>
<path d="M63.4828 66.9113C64.6254 66.9113 65.5517 67.8376 65.5517 68.9802C65.5517 70.1102 64.6459 71.0286 63.5208 71.0488L63.4828 71.0492H62.2801C58.269 71.0492 55.0173 74.3008 55.0173 78.312C55.0173 82.283 58.2042 85.5097 62.16 85.5738L62.2801 85.5748C63.4227 85.5748 64.3491 86.5011 64.3491 87.6437C64.3491 88.7864 63.4227 89.7127 62.2801 89.7127C55.9836 89.7127 50.8794 84.6084 50.8794 78.312C50.8794 72.0785 55.8821 67.0135 62.0916 66.9128L62.2801 66.9113H63.4828Z" fill="#8711FF"/>
<path d="M90.1097 85.5748C91.2524 85.5748 92.1787 86.5011 92.1787 87.6437C92.1787 88.7737 91.2728 89.6921 90.1477 89.7124L90.1097 89.7127H62.2801C61.1374 89.7127 60.2111 88.7864 60.2111 87.6437C60.2111 86.5138 61.117 85.5954 62.2421 85.5751L62.2801 85.5748L90.1097 85.5748Z" fill="#348EFF"/>
<path d="M76.0292 57.4138C79.9752 57.4138 83.687 58.9367 86.4786 61.6131C87.3034 62.404 87.3309 63.7137 86.5401 64.5385C85.7592 65.3529 84.4723 65.39 83.646 64.6293L83.6148 64.6C81.5862 62.655 78.8971 61.5517 76.0292 61.5517C71.1355 61.5517 66.8781 64.7871 65.515 69.3999L65.4746 69.5401C65.1653 70.6401 64.0229 71.2812 62.9229 70.972C61.8229 70.6628 61.1818 69.5204 61.491 68.4203C63.3071 61.9594 69.2201 57.4138 76.0292 57.4138Z" fill="#FF4545"/>
<path d="M67.7394 62.2496C68.5771 63.0058 68.6527 64.2913 67.9169 65.1401L67.8889 65.1717C66.7665 66.4151 65.941 67.8978 65.4827 69.5112C65.4428 69.663 65.3858 69.8079 65.3141 69.9439C65.1865 70.1869 65.014 70.3973 64.8103 70.5674L64.758 70.6095C64.7435 70.6209 64.7288 70.6321 64.7139 70.6432C64.5047 70.7982 64.2654 70.9148 64.0063 70.9823L63.9202 71.0028C63.7636 71.0368 63.6019 71.0528 63.4381 71.0492L62.2801 71.0491C60.8319 71.0491 59.4519 71.4717 58.2737 72.2529L58.2072 72.2975C57.2618 72.9393 55.9751 72.6932 55.3333 71.7478C54.6915 70.8025 54.9376 69.5158 55.883 68.874C57.6808 67.6535 59.7918 66.9677 62.0019 66.9145C62.6644 65.2559 63.6183 63.7274 64.8172 62.3991C65.5829 61.5509 66.8912 61.4839 67.7394 62.2496Z" fill="#FF80C7"/>
</svg>
