<svg width="150" height="150" viewBox="0 0 150 150" fill="none" xmlns="http://www.w3.org/2000/svg">
<mask id="mask0_33_477" style="mask-type:alpha" maskUnits="userSpaceOnUse" x="49" y="43" width="54" height="64">
<path fill-rule="evenodd" clip-rule="evenodd" d="M49.2346 53.6387L88.6697 43.0721L102.801 95.8112L63.366 106.378L49.2346 53.6387Z" fill="white"/>
</mask>
<g mask="url(#mask0_33_477)">
<path fill-rule="evenodd" clip-rule="evenodd" d="M92.4383 70.2097C90.3492 69.3852 87.8394 69.5962 87.8394 69.5962C87.8394 69.5962 89.6721 67.7208 90.253 66.4116C90.7784 64.8865 90.7549 63.047 90.4665 61.9707C90.2358 61.1097 89.3556 56.9619 85.453 55.4697C82.597 54.3892 79.5317 54.2876 75.5522 55.1232L73.4181 47.1585L68.4069 48.5012L70.5411 56.466L66.6193 57.5168L64.4851 49.5521L59.256 50.9532L61.3902 58.9179L51.3678 61.6034L52.7521 66.7697L55.8024 65.9524C56.6739 65.7189 57.9812 65.3686 58.81 65.8387C59.6922 66.5252 59.7499 66.7404 60.096 68.032L65.6326 88.6952C65.7486 89.1278 65.921 89.7715 65.6012 90.3209C65.2808 90.8682 64.8451 90.985 63.7557 91.2769L60.7054 92.0942L61.231 98.4135L71.2534 95.728L73.3876 103.693L78.6166 102.292L76.4825 94.3269L80.4043 93.276L82.5384 101.241L87.7697 99.839L85.5778 91.659C86.8829 91.3093 88.132 90.7416 88.7878 90.5659C90.2536 89.9447 93.4086 88.6379 95.9376 85.8838C98.4133 82.9133 98.1995 79.5098 97.5522 76.2224C96.4115 72.8366 94.5296 71.0337 92.4383 70.2097ZM68.1189 63.1137C68.1189 63.1137 69.5886 62.4891 71.3294 62.0227C72.8567 61.6134 74.3797 61.2054 76.7315 61.2674C79.0833 61.3293 80.5765 62.5443 81.3135 64.4233C81.7749 66.1454 81.2495 67.6705 80.1729 68.8818C78.8785 70.1515 77.033 71.1075 75.2899 71.5745L70.9324 72.7421L68.3368 63.0553L68.1189 63.1137ZM85.8532 83.9715C84.9368 84.9092 82.7111 86.1978 80.3144 86.84C78.1927 87.6369 74.6496 88.3579 74.6496 88.3579L71.7656 77.5947C71.7656 77.5947 74.9761 76.5037 77.6483 76.0184C80.3199 75.531 82.4566 75.6529 83.6608 75.7894C84.6461 75.9891 86.6775 76.5984 87.312 78.9663C88.0618 81.7647 86.9847 82.9739 85.8532 83.9715Z" fill="white"/>
</g>
<circle cx="75.0001" cy="75.0001" r="49.2857" stroke="white" stroke-width="3"/>
</svg>
