<svg width="150" height="150" viewBox="0 0 150 150" fill="none" xmlns="http://www.w3.org/2000/svg">
<path d="M48.8102 79.8524L51.4558 59.9751L28.5084 44.0448L49.4752 51.1469L54.4268 43.5497L72.5075 32.3306L112.361 54.2877L114.427 87.7893L96.6716 112.463L82.6372 114.613L89.8949 101.329V88.5391L84.6178 78.5509L79.2559 74.9998L71.0078 83.5025V92.5004L64.5707 98.5273L56.3933 99.5176L52.7716 101.569L46.8296 99.6732L44.3537 90.7603L48.8102 84.4929V79.8524Z" fill="white"/>
<path d="M85.4525 43.875C81.0809 42.9696 76.299 43.2101 76.299 43.2101C76.299 43.2101 74.7286 50.4678 64.9951 52.3778C65.0658 52.3778 77.8553 56.7494 85.4525 43.875Z" fill="#94A6C3"/>
<path d="M89.4139 109.732C94.6909 105.601 98.6522 99.9138 100.477 93.4766C100.562 93.2361 101.298 92.8117 101.793 92.4863C102.614 91.9911 103.448 91.5808 103.604 90.9159C103.929 89.0201 104.099 87.0394 104.099 85.0588C104.099 84.3231 103.349 83.5733 102.614 82.8376C102.034 82.3424 101.453 81.7624 101.453 81.3521C100.633 73.8397 97.1667 66.8225 91.635 61.7152L91.055 62.2953C96.4169 67.3318 99.8831 74.1793 100.633 81.437C100.718 82.1019 101.369 82.7527 102.034 83.4177C102.614 83.9128 103.279 84.6626 103.279 84.988C103.279 86.8838 103.109 88.7796 102.783 90.6754C102.698 91.0008 101.963 91.3403 101.383 91.6657C100.562 92.076 99.8123 92.4863 99.6567 93.1512C97.6761 100.168 93.1347 106.28 87.1078 110.242C88.183 107.935 91.5643 100.423 93.3752 96.6174L93.0498 84.408L82.5664 74.2641L76.6244 75.0847L70.1024 85.653C70.1024 85.653 73.1583 89.5294 68.8574 94.0708C64.6555 98.5273 61.345 99.5176 61.345 99.5176L58.2891 97.8624C59.1946 96.7023 61.0196 94.9762 62.4202 93.8161C64.8112 91.8355 67.2021 91.6657 67.2021 89.5294C67.3011 85.0588 62.5051 86.2896 62.5051 86.2896L60.7649 87.9449L60.0293 94.0566L56.4075 98.598L55.9972 98.5131L50.0552 97.1974C50.0552 97.1974 53.6911 95.3016 54.2712 93.1512C54.8512 91.0857 53.1111 84.2382 53.0262 83.8279C53.1111 83.9128 54.7664 85.3134 55.502 87.6195C56.8178 83.9836 58.5579 80.5174 59.0531 80.192C59.5483 79.8666 66.2259 76.3155 66.2259 76.3155L64.0048 82.1727L65.66 81.2672L69.6213 71.5337C69.6213 71.5337 73.4978 69.6379 76.3839 69.6379C81.5761 69.553 89.2582 63.2007 85.7921 51.8119C86.7824 52.2222 103.943 60.8098 106.914 77.6454C109.136 90.5905 101.793 102.715 89.4139 109.732Z" fill="#94A6C3"/>
<path d="M69.777 45.686C71.6728 43.4506 70.9371 40.1542 70.9371 40.1542L65.4054 48.3316C65.3205 48.3316 67.3719 48.4164 69.777 45.686Z" fill="#1B314F"/>
<path d="M51.2012 90.3358L51.8661 87.0394C51.8661 87.0394 49.1356 91.8213 48.8951 92.4863C48.6405 93.2361 49.0649 94.5518 50.126 94.4669C51.2012 94.382 52.5169 92.8117 52.5169 91.6657C52.5169 90.1802 51.2012 90.3358 51.2012 90.3358Z" fill="#1B314F"/>
<path d="M100.223 37.8482C100.223 37.8482 104.354 38.0179 108.64 38.5131C98.9776 30.9158 89.8241 28.6947 82.3967 28.6947C72.1679 28.6947 65.2356 32.9107 64.8112 33.1512L68.0368 28.0297C68.0368 28.0297 55.1625 26.7847 50.6211 40.4089C49.461 37.5228 48.3999 33.3068 48.3999 33.3068C48.3999 33.3068 41.7081 39.178 44.8489 48.9116C37.1667 46.1104 26.2023 42.2198 25.7779 42.149C25.1979 42.0642 25.0281 42.3188 25.0281 42.3188C25.0281 42.3188 24.8583 42.5593 25.3535 42.9837C26.2731 43.7053 43.6039 56.5089 47.4096 58.9847C46.589 61.9557 46.589 63.3563 47.4096 64.7569C48.5697 66.6527 48.6405 67.643 48.4848 69.0436C48.3151 70.4443 46.8296 82.5829 46.5042 84.0684C46.1788 85.5539 42.7126 90.831 42.8682 92.4014C43.038 93.9717 45.1743 100.649 47.0842 101.399C48.4848 101.894 51.951 102.97 54.2571 102.97C55.0776 102.97 55.8274 102.8 56.1528 102.474C57.5534 101.244 57.9637 100.989 58.9541 100.989C59.0389 100.989 59.1238 100.989 59.1946 100.989C59.6048 100.989 60.1 101.074 60.6801 101.074C61.9958 101.074 63.736 100.819 64.9668 99.6732C66.7777 97.8623 69.9185 95.3865 70.9088 94.2264C72.1538 92.656 72.8046 90.5197 72.4792 88.3693C72.2245 86.3886 73.2997 84.6485 74.5447 82.9225C76.1151 80.8569 79.0012 77.1502 79.0012 77.1502C84.7027 81.4228 88.2538 87.9449 88.2538 95.2026C88.2538 108.077 77.0347 118.475 63.1701 118.475C61.0196 118.475 58.9682 118.235 56.9027 117.74C63.2549 119.961 68.6169 120.711 73.0026 120.711C82.3259 120.711 87.2776 117.329 87.2776 117.329C87.2776 117.329 85.5516 119.565 82.7362 122.111C82.8211 122.111 82.8211 122.111 82.8211 122.111C98.2561 119.961 105.768 107.256 105.768 107.256C105.768 107.256 105.188 111.387 104.453 114.189C124.981 98.7536 121.515 79.4421 121.43 78.7914C121.6 79.0319 123.665 81.5077 124.726 82.8376C128.037 48.8267 100.223 37.8482 100.223 37.8482ZM68.6169 92.1608C68.2915 92.5711 66.8909 93.8161 65.9005 94.7216C64.9102 95.627 63.835 96.5325 63.0144 97.3672C62.689 97.6926 62.0241 97.8623 61.0338 97.8623C60.7084 97.8623 60.3688 97.8623 60.1283 97.8623C59.9585 97.8623 59.8029 97.8623 59.6331 97.8623C59.4634 97.8623 59.3785 97.8623 59.3077 97.8623C59.0531 97.8623 58.8126 97.8623 58.5579 97.8623C59.8029 96.2071 63.4247 92.4155 64.6697 91.5949C66.1552 90.6046 66.905 89.6143 65.9854 87.8883C65.08 86.1481 62.689 86.5725 62.689 86.5725C62.689 86.5725 64.0896 85.9925 65.3346 85.9925C63.7642 85.5822 61.7836 85.9925 60.8781 86.8979C59.8878 87.8034 60.0576 91.029 59.6473 93.0804C59.237 95.2309 57.8364 96.3061 55.686 98.2868C54.5259 99.362 53.7053 99.6874 53.0404 99.6874C51.6397 99.4469 49.9845 99.0224 48.8244 98.6122C48.0038 97.5369 46.7588 93.9859 46.4334 92.5004C46.6739 91.6798 47.6643 89.9397 48.1594 88.9493C49.1498 87.0536 49.7298 85.9783 49.8996 84.988C50.225 83.5874 51.3002 74.9149 51.7105 71.2931C52.7857 72.6937 54.2712 75.0139 53.9317 76.4994C56.3226 73.1182 54.5966 69.8076 53.7619 68.4919C53.0262 67.1762 52.0359 64.5306 52.8564 61.7293C53.677 58.9281 56.648 51.1611 56.648 51.1611C56.648 51.1611 57.6383 52.9012 59.0389 52.5617C60.4396 52.2363 71.7435 35.2309 71.7435 35.2309C71.7435 35.2309 74.7994 41.9085 71.5737 46.7895C68.2773 51.6562 65.0517 52.5617 65.0517 52.5617C65.0517 52.5617 69.5931 53.3822 73.7949 50.3264C75.5209 54.3726 77.1762 58.5744 77.2611 59.1545C77.0064 59.7345 73.71 67.6572 73.3846 68.1523C73.2149 68.3221 72.0689 68.6475 71.2342 68.8173C69.8336 69.2276 69.013 69.4822 68.6735 69.7227C68.0934 70.2179 65.4478 77.4756 64.217 81.0267C62.7315 81.437 61.246 82.2717 60.1708 83.9128C60.7508 83.5025 62.5617 83.2478 63.8916 83.0922C65.0517 83.0073 68.5886 84.9031 69.5082 88.4542C69.5082 88.5391 69.5082 88.5391 69.5082 88.6239C69.6921 89.9255 69.2818 91.1705 68.6169 92.1608ZM60.864 93.1512C61.6138 92.076 61.5289 90.2651 61.6138 89.685C61.6987 89.105 61.8543 88.0297 62.5193 87.8741C63.1842 87.7043 64.7546 87.959 64.7546 89.105C64.7546 90.1802 63.5945 90.4207 62.7739 91.1705C62.1797 91.7364 61.0196 92.9814 60.864 93.1512ZM93.7855 77.3766C94.606 73.1748 94.6909 69.5388 94.4504 66.5678C97.6619 70.8545 99.6426 76.0609 100.223 81.4228C100.308 82.0877 100.958 82.7385 101.623 83.4035C102.203 83.8986 102.868 84.5636 102.868 84.9739C102.868 86.8696 102.698 88.7654 102.373 90.6753C102.288 90.9159 101.553 91.3403 100.972 91.6657C100.152 92.076 99.4021 92.4862 99.2465 93.1512C97.4356 99.5035 93.545 105.12 88.3528 109.081C96.0208 101.074 99.7275 87.86 93.7855 77.3766ZM88.5933 109.817C93.9552 105.686 98.0863 99.9137 99.8972 93.3917C99.9821 93.1512 100.718 92.7267 101.213 92.4014C102.034 91.9911 102.868 91.4959 103.024 90.831C103.349 88.9352 103.519 86.9545 103.519 84.9739C103.519 84.2382 102.769 83.4884 102.034 82.7527C101.623 82.2575 100.958 81.6775 100.958 81.2672C100.293 75.2403 97.9024 69.553 94.1958 64.8418C92.5405 54.9385 85.9477 51.8826 85.7779 51.7977C85.9477 52.0524 90.2344 58.2349 87.2634 65.4926C84.2075 72.8352 76.3698 71.6892 75.7048 71.76C75.0399 71.76 72.4933 75.0564 69.2677 81.1681C68.8574 80.9984 67.1172 80.5881 65.1366 80.9276C66.6221 76.7965 68.8574 70.9394 69.2677 70.4443C69.4374 70.2745 70.6683 69.9491 71.503 69.7086C73.0734 69.2983 73.8091 69.0436 74.0637 68.7183C74.2335 68.4636 75.054 66.5678 75.8746 64.5872C76.6244 64.5872 78.5202 64.4174 78.6758 64.3325C78.8456 64.1627 80.416 60.1307 80.416 59.6355C80.416 59.2252 77.1903 51.2177 75.9595 48.1618C76.5395 47.4968 77.1196 46.6763 77.6855 45.7708C94.606 47.5959 107.82 61.9557 107.82 79.3573C107.82 92.7267 99.9821 104.37 88.5933 109.817Z" fill="#1B314F"/>
<path d="M66.6362 65.2521C68.2066 63.4412 67.386 60.0599 64.4858 59.4799C65.2356 57.7539 66.2967 54.2877 66.2967 54.2877C66.2967 54.2877 57.8788 67.4874 57.1432 67.7421C56.3933 67.9968 55.6577 65.0965 55.6577 65.0965C54.0873 71.1234 58.3033 71.9439 58.7984 70.0482C61.1045 69.454 65.0658 66.9781 66.6362 65.2521Z" fill="#1B314F"/>
<path d="M59.4492 68.4636L63.7359 61.121C63.7359 61.121 66.2118 62.366 64.9668 64.3466C63.4105 66.6527 59.4492 68.4636 59.4492 68.4636Z" fill="#FFD923"/>
<path d="M112.517 102.474C111.272 104.13 109.871 105.856 108.23 107.511C118.869 87.0394 108.725 68.308 108.315 67.5723C109.065 68.3221 109.801 69.1427 110.466 69.8784C118.629 78.947 119.619 92.5712 112.517 102.474Z" fill="#D82122"/>
<path d="M122.42 76.1457C118.699 66.1575 113.422 57.6548 101.793 49.9868C90.574 42.5593 78.5202 43.1394 77.8553 43.2243C77.7704 43.2243 77.6855 43.2243 77.6855 43.2243C78.0958 43.0545 78.506 42.9696 78.9163 42.8989C81.477 42.0783 84.7734 41.4134 88.084 41.0031C96.8413 39.7439 105.669 42.7149 111.696 49.0814C111.781 49.1663 111.781 49.1663 111.866 49.2511C118.714 56.5089 122.265 65.5775 122.42 76.1457Z" fill="#D82122"/>
<path d="M99.1474 35.2875C86.8531 32.9814 78.9305 34.1274 73.229 36.2778C73.0592 35.6129 72.4792 34.2971 71.984 33.2219C70.2721 35.2875 68.4471 37.7633 67.3011 39.3337C64.1604 41.4841 62.8447 43.5497 62.8447 43.5497C64.6555 37.353 69.9468 32.7409 76.3839 31.5808C78.1948 31.2554 80.1755 31.0856 82.3259 31.0856C88.0133 31.1705 93.7006 32.5711 99.1474 35.2875Z" fill="#D82122"/>
<path d="M53.677 51.1328C44.0283 50.8074 47.2398 39.5742 47.4096 38.9234C47.4096 39.0083 48.0604 47.7515 53.677 51.1328Z" fill="#D82122"/>
<path d="M63.17 30.9158C55.7425 35.3723 57.228 46.0113 57.228 46.0113C50.1259 35.2167 62.59 31.1705 63.17 30.9158Z" fill="#D82122"/>
<path d="M50.9607 54.1037C51.4558 54.514 51.951 55.2639 51.3709 56.3391C51.0455 56.9191 50.5504 56.8342 49.8006 56.5088C48.8102 56.0137 42.8682 52.5475 37.5063 48.9965C43.6181 51.1469 49.8006 53.453 50.7909 53.9481C50.7909 53.9481 50.8758 54.033 50.9607 54.1037Z" fill="white"/>
</svg>
