<svg width="150" height="150" viewBox="0 0 150 150" fill="none" xmlns="http://www.w3.org/2000/svg">
<path d="M75.1262 25L118.434 49.9431V99.9841L75.1762 125L74.8259 124.914L32 99.9841V49.9431L74.8259 25H75.1262V25ZM74.9852 30.177L36.5492 52.5589V97.3683L74.9806 119.746L79.6754 117.03L113.885 97.3547V52.568L79.6754 32.7791L74.9852 30.177V30.177ZM42.504 78.4437L53.8815 69.9368L63.9398 76.3602V87.9151L71.5505 95.2484L71.546 98.6876L64.2127 105.557H58.0213L42.5086 78.4437H42.504ZM78.4562 98.6967L78.4425 95.2393L86.026 87.9151V76.3602L95.9751 69.8549L107.33 78.4483L91.8945 105.479H85.7804L78.4562 98.6967ZM67.6746 76.3602L63.9716 66.6659H85.9805L82.3503 76.3602L83.4239 87.1963L74.9306 87.2145L66.5373 87.2282L67.6746 76.3602V76.3602ZM74.9306 64.0092L54.0135 64.0001L57.903 46.6222H91.8581L95.9523 64.0228L74.9306 64.0092Z" fill="white"/>
</svg>
