<svg width="150" height="150" viewBox="0 0 150 150" fill="none" xmlns="http://www.w3.org/2000/svg">
<path d="M81.4881 26.5517L114.237 43.355C118.98 45.7771 121.957 50.6718 121.957 56.0206V63.6905H109.897V56.0206C109.897 55.2132 109.443 54.4563 108.737 54.1031L75.9879 37.2997C75.3824 36.997 74.6255 36.997 74.0199 37.2997L41.2711 54.1031C40.5647 54.4563 40.1105 55.2132 40.1105 56.0206V63.6905H28V56.0206C28 50.6718 30.9772 45.7771 35.7204 43.355L68.4693 26.5517C72.5566 24.4828 77.4008 24.4828 81.4881 26.5517ZM85.3231 74.4891C85.3231 68.787 80.6807 64.1447 74.9787 64.1447C69.2767 64.1447 64.6343 68.787 64.6343 74.4891C64.6343 80.1911 69.2767 84.8335 74.9787 84.8335C80.6807 84.783 85.3231 80.1911 85.3231 74.4891ZM108.737 95.8843C109.443 95.5311 109.897 94.7742 109.897 93.9668V86.2968H121.957V94.0173C121.957 99.3661 118.98 104.261 114.237 106.632L81.4881 123.436C79.4697 124.445 77.2494 125 74.9787 125C72.708 125 70.4877 124.445 68.4693 123.436L35.7204 106.632C30.9772 104.21 28 99.3156 28 94.0173V86.3473H40.0601V94.0173C40.0601 94.8246 40.5142 95.5815 41.2206 95.9348L68.9234 110.114V96.0357C59.5378 93.4118 52.5742 84.7326 52.5742 74.4891C52.5742 62.1263 62.6159 52.0846 74.9787 52.0846C87.3415 52.0846 97.3831 62.1263 97.3831 74.4891C97.3831 84.7326 90.4196 93.4118 80.9835 96.0357V110.114L108.737 95.8843Z" fill="white"/>
</svg>
