<svg width="150" height="150" viewBox="0 0 150 150" fill="none" xmlns="http://www.w3.org/2000/svg">
<path d="M74.4997 115.247C52.5481 115.247 34.7527 97.4517 34.7527 75.5C34.7527 53.5484 52.5481 35.7531 74.4997 35.7531C96.4514 35.7531 114.247 53.5484 114.247 75.5C114.247 97.4517 96.4514 115.247 74.4997 115.247Z" fill="#1B1E36"/>
<path d="M74.3591 15.739C81.7532 15.739 87.7489 42.5581 87.7489 75.6414C87.7489 108.725 81.7532 135.544 74.3591 135.544C66.9649 135.544 60.9692 108.725 60.9692 75.6414C60.9692 42.5581 66.9649 15.739 74.3591 15.739ZM73.4346 132.163C74.2802 133.291 75.1257 132.445 75.1257 132.445C78.531 128.499 80.2336 121.169 80.2336 121.169C86.1898 102.001 84.7722 60.8443 84.7722 60.8443C81.973 28.1704 76.881 20.4518 75.1482 18.7382C74.9712 18.5633 74.7383 18.4565 74.4903 18.4364C74.2423 18.4164 73.9952 18.4844 73.7924 18.6286C71.2782 20.4102 69.1695 27.8608 69.1695 27.8608C62.9426 50.976 63.5065 72.6817 63.5065 72.6817C62.9426 91.5685 66.6268 112.71 66.6268 112.71C69.4627 128.778 73.4346 132.163 73.4346 132.163Z" fill="#6F7390"/>
<path d="M22.4003 45.8308C26.0818 39.4148 52.3261 47.5613 81.0364 64.0243C109.747 80.4874 129.999 99.0355 126.32 105.449C122.641 111.862 96.394 103.718 67.6838 87.2552C38.9735 70.7921 18.7216 52.244 22.4003 45.8308ZM122.923 104.569C124.333 104.391 124.014 103.233 124.014 103.233C122.285 98.3165 116.783 93.1916 116.783 93.1916C103.115 78.4855 66.7078 59.2348 66.7078 59.2348C36.9766 45.4022 27.7417 45.9858 25.399 46.6308C25.1585 46.6979 24.9496 46.848 24.8092 47.0544C24.6687 47.2608 24.6059 47.5103 24.6318 47.7586C24.9135 50.8274 30.3403 56.3622 30.3403 56.3622C47.2801 73.2729 66.3894 83.5874 66.3894 83.5874C82.4913 93.4788 102.663 100.8 102.663 100.8C118.012 106.33 122.923 104.569 122.923 104.569H122.923Z" fill="#6F7390"/>
<path d="M22.5304 105.663C18.8205 99.2635 39.0214 80.6305 67.6308 64.0436C96.2402 47.4567 122.481 39.2093 126.188 45.6193C129.895 52.0292 109.697 70.6514 81.0711 87.2382C52.4452 103.825 26.2371 112.073 22.5304 105.663ZM123.73 48.0919C124.278 46.7926 123.121 46.4797 123.121 46.4797C117.999 45.5124 110.805 47.7165 110.805 47.7165C91.2332 52.1734 56.3338 74.0342 56.3338 74.0342C29.4637 92.8366 25.3428 101.119 24.7252 103.469C24.6624 103.711 24.6867 103.966 24.794 104.191C24.9013 104.416 25.0846 104.596 25.3115 104.699C28.1134 105.981 35.6178 104.07 35.6178 104.07C58.7472 97.8683 77.2449 86.5056 77.2449 86.5056C93.8652 77.5414 110.3 63.7482 110.3 63.7482C122.788 53.2338 123.726 48.1061 123.726 48.1061L123.73 48.0919Z" fill="#6F7390"/>
<path d="M74.4998 82.5473C70.6077 82.5473 67.4526 79.3921 67.4526 75.5C67.4526 71.6079 70.6077 68.4528 74.4998 68.4528C78.3919 68.4528 81.5471 71.6079 81.5471 75.5C81.5471 79.3921 78.3919 82.5473 74.4998 82.5473Z" fill="#B7B9C8"/>
<path d="M45.606 52.6666C43.3485 52.6666 41.5184 50.7735 41.5184 48.4382C41.5184 46.1029 43.3485 44.2098 45.606 44.2098C47.8634 44.2098 49.6935 46.1029 49.6935 48.4382C49.6935 50.7735 47.8634 52.6666 45.606 52.6666Z" fill="#B7B9C8"/>
<path d="M112.697 67.0433C110.439 67.0433 108.609 65.1502 108.609 62.8149C108.609 60.4797 110.439 58.5865 112.697 58.5865C114.954 58.5865 116.784 60.4797 116.784 62.8149C116.784 65.1502 114.954 67.0433 112.697 67.0433Z" fill="#B7B9C8"/>
<path d="M82.8159 118.911C80.5584 118.911 78.7284 117.018 78.7284 114.683C78.7284 112.348 80.5584 110.455 82.8159 110.455C85.0734 110.455 86.9034 112.348 86.9034 114.683C86.9034 117.018 85.0734 118.911 82.8159 118.911Z" fill="#B7B9C8"/>
</svg>
