<svg width="150" height="150" viewBox="0 0 150 150" fill="none" xmlns="http://www.w3.org/2000/svg">
<path d="M125 94.3414C103.269 94.3414 81.8402 94.3414 60.1695 94.3414C60.1695 87.7433 60.1695 81.2058 60.1695 74.3656C74.1525 74.3656 88.0751 74.3656 102.663 74.3656C103.39 64.7409 102.966 55.5399 102.906 45.9152C101.09 45.9152 99.9395 45.9152 98.7288 45.9152C86.7433 45.9152 74.6973 45.8547 62.7119 45.9758C59.7458 45.9758 58.8378 44.8862 58.8983 42.0412C59.0799 36.8353 58.9588 31.569 58.9588 26C81.0533 26 102.906 26 125 26C125 48.6392 125 71.339 125 94.3414Z" fill="#FA330C"/>
<path d="M25 48.6997C35.4116 48.6997 45.6416 48.6997 56.0533 48.6997C56.0533 74.0024 56.0533 99.1234 56.0533 124.487C45.7627 124.487 35.5327 124.487 25 124.487C25 99.4261 25 74.184 25 48.6997Z" fill="#C8030A"/>
<path d="M25.1816 44.8862C25.1816 38.6513 25.1816 32.4165 25.1816 26C35.4116 26 45.5206 26 55.8717 26C55.8717 32.2349 55.8717 38.2881 55.8717 44.8862C45.7627 44.8862 35.7143 44.8862 25.1816 44.8862Z" fill="#FC7A08"/>
</svg>
