<svg width="150" height="150" viewBox="0 0 150 150" fill="none" xmlns="http://www.w3.org/2000/svg">
<path fill-rule="evenodd" clip-rule="evenodd" d="M75.4804 31.1653L96.7501 42.9509C97.5785 43.4108 97.5785 44.551 96.7501 45.0109L75.4804 56.7965C75.1011 57.0073 74.622 57.0073 74.2427 56.7965L52.9731 45.0109C52.1447 44.551 52.1447 43.4108 52.9731 42.9509L74.2427 31.1653C74.632 30.9449 75.1011 30.9449 75.4804 31.1653Z" fill="white"/>
<path fill-rule="evenodd" clip-rule="evenodd" d="M101.668 49.5474V73.1281C101.668 73.5497 101.428 73.9427 101.049 74.1631L79.3006 86.188C78.4722 86.648 77.4442 86.073 77.4442 85.1533V61.5821C77.4442 61.1605 77.6838 60.7677 78.0629 60.5473L99.8017 48.503C100.63 48.0527 101.668 48.6275 101.668 49.5474Z" fill="white"/>
<path fill-rule="evenodd" clip-rule="evenodd" d="M107.667 75.9118L78.0629 92.2681C77.6838 92.4789 77.4442 92.8716 77.4442 93.3028V116.884C77.4442 117.803 78.4722 118.369 79.3006 117.918L108.895 101.553C109.274 101.342 109.513 100.949 109.513 100.518V76.9372C109.523 76.0268 108.485 75.4518 107.667 75.9118Z" fill="white"/>
<path fill-rule="evenodd" clip-rule="evenodd" d="M48 73.1101V49.5388C48 48.619 49.028 48.0537 49.8565 48.504L71.5852 60.5483C71.9644 60.7591 72.204 61.1518 72.204 61.583V85.1542C72.204 86.0742 71.176 86.6393 70.3475 86.1889L48.6188 74.1352C48.2395 73.9244 48 73.5317 48 73.1101Z" fill="white"/>
<path fill-rule="evenodd" clip-rule="evenodd" d="M48 81.2601V104.841C48 105.262 48.2395 105.655 48.6188 105.875L70.3475 117.91C71.176 118.37 72.204 117.795 72.204 116.875V93.3043C72.204 92.8827 71.9644 92.4896 71.5852 92.2695L49.8565 80.2251C49.028 79.7747 48 80.3401 48 81.2601Z" fill="white"/>
</svg>
