<svg width="150" height="150" viewBox="0 0 150 150" fill="none" xmlns="http://www.w3.org/2000/svg">
<path d="M75 125C102.614 125 125 102.614 125 75C125 47.3858 102.614 25 75 25C47.3858 25 25 47.3858 25 75C25 102.614 47.3858 125 75 125Z" fill="#988430"/>
<path d="M75 123.398C101.73 123.398 123.398 101.73 123.398 75.0001C123.398 48.2704 101.73 26.6017 75 26.6017C48.2703 26.6017 26.6016 48.2704 26.6016 75.0001C26.6016 101.73 48.2703 123.398 75 123.398Z" fill="#7A6A2A"/>
<path d="M75 122.379C101.167 122.379 122.379 101.167 122.379 75C122.379 48.8335 101.167 27.6214 75 27.6214C48.8335 27.6214 27.6213 48.8335 27.6213 75C27.6213 101.167 48.8335 122.379 75 122.379Z" fill="#BA9F33"/>
<path fill-rule="evenodd" clip-rule="evenodd" d="M46.8607 69.6602C46.5775 69.4016 46.2783 69.1424 46.0031 68.8837C45.7279 68.625 45.4453 68.3658 45.1621 68.1072L44.3205 67.3072C44.1829 67.1696 44.0373 67.0485 43.8997 66.9104C43.7621 66.7893 43.6005 66.6517 43.4629 66.5301C42.3461 65.4704 41.2229 64.4106 40.1215 63.3504C41.2623 64.3941 42.3791 65.4304 43.5199 66.4896L43.9162 66.8864C44.0538 67.0234 44.1994 67.145 44.337 67.2826L45.1781 68.0592C45.4613 68.3178 45.7365 68.577 46.0197 68.8592C46.3029 69.1413 46.5781 69.401 46.8613 69.6592L46.8607 69.6602ZM32.0389 69.5002C32.0389 69.5002 36.1002 69.9205 38.0826 70.2037C39.9189 70.4629 45.6634 71.3445 45.6634 71.3445L32.0389 69.5002ZM32.0389 69.5002C33.1797 69.5973 34.3205 69.7184 35.4613 69.84C36.0437 69.8965 36.6021 69.961 37.1605 70.0176L38.0175 70.1152C38.3007 70.1552 38.5759 70.1957 38.8591 70.2362L42.2575 70.7781L43.9562 71.0613C44.5146 71.1584 45.073 71.264 45.6554 71.361C45.097 71.3045 44.5146 71.2234 43.9562 71.1424L42.2575 70.8997L38.8591 70.3984C38.5759 70.3578 38.3007 70.3008 38.0175 70.2608L37.1599 70.1621C36.6015 70.1056 36.0191 70.0245 35.4607 69.9594C34.3199 69.8224 33.1791 69.6762 32.0383 69.4986L32.0389 69.5002ZM45.2591 72.4026C45.2591 72.4026 40.9226 73.5034 39.4581 73.9242C38.0181 74.3205 33.657 75.6474 33.657 75.6474L45.2586 72.4032L45.2591 72.4026Z" fill="#CFB66C"/>
<path fill-rule="evenodd" clip-rule="evenodd" d="M45.2585 72.4027C44.2959 72.6859 43.3385 72.9611 42.362 73.2203L39.4655 73.9968C38.5028 74.28 37.5455 74.5552 36.5855 74.8384L35.1455 75.2347C34.6681 75.3723 34.1828 75.4933 33.6895 75.6315C34.1663 75.4715 34.6521 75.3077 35.1295 75.1701L36.5695 74.7093C37.5321 74.4096 38.4895 74.1264 39.4495 73.8272C40.4281 73.5845 41.3913 73.3253 42.37 73.0907C43.3001 72.856 44.2793 72.6219 45.2585 72.4032V72.4027ZM34.2639 78.3173C34.7407 78.1392 40.2425 75.5749 41.5209 74.976C42.1609 74.6763 44.0212 74.016 44.0212 74.016L34.2639 78.3173Z" fill="#CFB66C"/>
<path fill-rule="evenodd" clip-rule="evenodd" d="M34.2642 78.3173C34.6845 78.1573 35.0813 77.9616 35.4855 77.7754L36.6829 77.217L39.0861 76.0602C39.8861 75.68 40.6637 75.2602 41.4887 74.9029C41.9095 74.7253 42.3303 74.5797 42.7506 74.4421L43.3906 74.24C43.6087 74.1834 43.8114 74.1184 44.0306 74.0618C43.2306 74.4421 42.3885 74.7658 41.5874 75.1376C40.7874 75.5344 39.9693 75.8581 39.1437 76.2138L36.7005 77.2896C35.8802 77.6218 35.0802 77.9776 34.2637 78.3173H34.2642ZM34.7975 80.5573C34.7975 80.5573 39.781 77.6368 41.4962 76.6981C42.3943 76.1968 45.2989 74.7562 45.2989 74.7562L34.7975 80.5573Z" fill="#CFB66C"/>
<path fill-rule="evenodd" clip-rule="evenodd" d="M34.7979 80.5583C35.6389 80.0405 36.4965 79.5146 37.3541 78.9807L38.6341 78.2037C39.0709 77.945 39.4917 77.7023 39.9371 77.4437C40.3739 77.1845 40.7947 76.9258 41.2395 76.6831C41.4512 76.5524 41.6731 76.4388 41.9029 76.3434L42.5824 76.0037C43.4805 75.5669 44.3787 75.1216 45.3253 74.7413C44.4677 75.2837 43.5856 75.745 42.704 76.2218C42.2672 76.4645 41.8219 76.6831 41.3851 76.9258C40.9483 77.1685 40.5275 77.4277 40.0821 77.6623C39.6453 77.921 39.2245 78.1637 38.7797 78.3983L37.4608 79.1183L34.7989 80.5583H34.7979ZM45.2587 75.3962C45.2587 75.3962 42.16 77.7749 41.1568 78.5354C40.1536 79.2959 37.2005 81.4319 37.2005 81.4319L45.2587 75.3962V75.3962Z" fill="#CFB66C"/>
<path fill-rule="evenodd" clip-rule="evenodd" d="M63.0421 94.5792L61.4565 91.5776L62.3787 87.8235L68.9563 85.2832L66.1568 79.5392L67.5403 73.7382L70.1376 68.5435L78.1637 67.2816L84.0613 61.6587L96.7963 62.6214L99.296 76.2379L94.4821 93.3819L91.7397 102.258L80.6229 102.678L75.4613 99.1024L69.4176 96.5776L63.0421 94.5792Z" fill="#E2CC85"/>
<path fill-rule="evenodd" clip-rule="evenodd" d="M82.5405 94.4821C82.5405 94.4821 81.0029 95.1861 78.3805 95.0239C77.6216 94.0047 72.3064 93.5274 72.3064 93.5274C72.3064 93.5274 71.6429 93.3253 70.4696 93.8106C69.2888 94.2906 68.172 94.2314 67.1283 94.4901C66.0845 94.7487 65.0483 93.3898 64.2483 93.1066C63.4483 92.8074 62.3875 92.0874 62.3875 92.0874L60.1475 91.8687L55.6493 89.9674L48.5032 82.8479L46.5613 85.8879L45.9624 89.6501L48.1229 94.1082L53.94 99.4074L65.2829 102.287L72.0061 100.307L80.4285 96.7466L82.5405 94.4815V94.4821Z" fill="#F1D789"/>
<path fill-rule="evenodd" clip-rule="evenodd" d="M42.2414 69.3206L43.6814 64.9601L45.3971 62.1441L50.9224 61.6827L49.2638 66.5211L44.6446 74.7414L46.5619 82.0795L43.164 83.7782L42.1198 82.1766L41.2787 78.5035L41.2222 74.3771L42.2414 69.3206Z" fill="#F4ECB4"/>
<path fill-rule="evenodd" clip-rule="evenodd" d="M48.4382 94.183L47.3785 92.7024C47.3785 92.7024 47.0953 91.9984 47.2574 91.3835C47.4174 90.7606 47.3945 90.72 47.3139 90.4854C47.2334 90.2507 46.5534 89.4416 46.5939 88.7456C46.6339 88.0416 46.5374 87.807 47.0547 87.2491C47.5966 86.7072 47.435 85.7686 47.435 85.7686L48.139 86.2054L48.299 85.9627C48.299 85.9627 48.5577 86.1648 48.5577 86.4806C48.6142 86.0438 48.3795 84.0208 48.9134 83.56C49.4473 83.0992 50.3939 85.72 50.3939 85.72L49.8115 81.9174L48.3145 78.0182L45.6526 74.4582L45.4926 70.5339V70.1942C45.4926 70.1942 44.2707 72.0715 43.931 73.5542C43.6883 74.5734 44.2707 75.8112 44.1497 77.2758C44.0521 78.7323 43.931 78.6187 44.2867 79.1958C44.6425 79.7728 45.5086 80.9595 45.1689 81.8171C44.8697 82.5536 43.8499 82.0358 43.8499 82.0358C43.8499 82.0358 43.6478 82.6342 43.3726 82.8528C43.2755 82.4971 43.1705 82.2704 42.9763 82.0528C42.9598 82.1904 42.9198 82.3766 42.9198 82.3766C42.9198 82.3766 42.7417 81.8182 42.5635 81.1142C42.3214 80.176 42.0622 78.9382 41.8275 78.2747C41.7305 78.655 41.4878 79.8118 41.4878 79.8118L41.6254 81.592L42.2889 84.0352L42.9289 85.6352L43.5518 87.5931L44.0931 88.9083L44.5299 89.9115L44.9102 92.1691L46.7465 94.1104L47.7257 94.5478L48.4371 94.1835L48.4382 94.183Z" fill="#F3E19D"/>
<path fill-rule="evenodd" clip-rule="evenodd" d="M43.2036 65.7605C43.2036 65.7605 41.8847 68.0005 41.5049 70.2586C41.1252 72.5167 40.7849 74.9029 41.0249 77.977C41.2676 81.0762 41.7289 82.977 42.1012 84.3365C42.7412 86.5941 44.3988 89.7333 44.3988 89.7333L44.4553 89.6117C44.1767 89.0835 43.9543 88.5276 43.7919 87.953C43.5732 87.0954 43.4921 86.0762 43.29 85.6149C43.1119 85.1541 42.8127 84.7573 42.6671 84.1909C42.5295 83.649 42.5071 82.7914 42.0847 82.1525C41.9065 81.8933 41.6879 81.2138 41.6233 80.5343C41.5423 79.5146 41.6639 78.3738 41.5668 77.4357C41.3887 75.8741 41.2676 74.8143 41.4292 73.9967C41.5908 73.1791 42.4329 70.8581 42.9508 69.0133C43.2905 67.8319 43.0879 66.8367 43.7108 65.809C44.3337 64.7898 44.7145 63.8917 44.8516 63.2687C45.0116 62.7023 43.2015 65.7605 43.2015 65.7605H43.2036Z" fill="#F2E8B0"/>
<path fill-rule="evenodd" clip-rule="evenodd" d="M49.4583 64.8625C49.4583 64.8625 48.7788 65.0651 48.4551 65.4209C48.1313 65.7606 47.9937 66.0438 47.5569 66.6182C47.1201 67.1926 47.0956 67.6619 46.7393 68.3819C46.3836 69.0859 45.5985 70.1457 45.5015 70.5259C45.4044 70.9062 45.2428 72.6859 45.0407 73.5275C44.8625 74.3691 45.2428 75.4049 45.2428 75.4049L45.7036 75.3073C45.7036 75.3073 45.7036 75.9062 46.1649 76.311C46.6257 76.7073 46.7068 74.9675 46.7068 74.9675L48.43 69.1505L51.0268 67.3867L51.31 65.9627L49.4572 64.8625H49.4583Z" fill="#F5EEC0"/>
<path fill-rule="evenodd" clip-rule="evenodd" d="M50.7197 67.5002C50.7197 67.5002 49.4979 67.5808 48.8995 68.0181C48.6568 68.1957 48.5597 68.3413 48.3011 68.56C47.8237 68.9562 47.3379 69.3205 47.1037 69.84C46.8445 70.3573 46.5613 71.1424 46.3672 72.6229C46.2861 73.2459 46.2861 73.8203 46.2296 74.3221C46.1485 75.0016 46.0275 75.5435 46.092 75.9221C46.1731 76.6987 46.9741 77.1035 47.052 77.9851L48.7107 77.144L50.2723 70.9866L53.5896 68.9066L51.7123 66.8032L50.7176 67.4965L50.7197 67.5002Z" fill="#E6DB9D"/>
<path fill-rule="evenodd" clip-rule="evenodd" d="M41.9698 108.962C41.9767 108.901 41.9836 108.841 41.9906 108.778C42.2327 106.698 42.2738 105.122 42.4514 104.135C42.71 102.735 42.8882 102.215 42.8476 101.691C42.7911 100.85 42.7266 100.235 42.8076 99.5873C42.9287 98.7297 43.7703 97.7105 43.7463 97.0065C43.7298 96.4481 43.4466 96.0844 43.2039 95.7447C42.9612 95.4049 42.7671 95.1217 42.7671 95.1217C42.7671 95.1217 44.4258 93.9809 44.4098 89.3852C44.4436 89.3947 44.4762 89.4084 44.5068 89.4257L45.3239 91.7473L45.8823 92.4268L48.0263 96.4236L50.7852 99.102L54.8626 101.844L57.4194 104.627L57.678 112.046L54.3367 116.383L53.7895 117.373C49.4422 115.191 45.4556 112.354 41.9692 108.962L41.9698 108.962Z" fill="#E5CB7A"/>
<path fill-rule="evenodd" clip-rule="evenodd" d="M52.1763 116.06C52.1763 116.06 52.2328 115.138 52.9933 114.539C53.1149 114.741 53.1955 114.935 53.1715 115.081C53.3091 114.838 54.2717 113.285 56.4483 112.88C58.6248 112.484 59.1507 110.898 59.1507 110.898L63.7699 106.699L69.0531 101.837L75.4771 99.5792L78.4792 98.8427C78.4792 98.8427 78.5357 99.0613 78.4227 99.5467C78.9805 99.5067 80.2184 99.2235 81.5048 98.7701C82.0227 98.568 82.5085 98.4869 82.7672 98.7541C83.1475 99.1099 83.204 99.9515 83.228 100.453C83.8509 100.315 84.5709 99.7168 85.148 99.7733C86.0707 99.8704 86.8877 100.955 87.8264 100.955C89.0643 100.955 89.6221 100.194 90.4883 99.5952C91.0061 99.2395 91.7501 98.7952 92.1709 98.4949C93.1741 97.7584 103.789 94.5141 103.789 94.5141L107.511 94.7568L108.11 98.7536L107.79 109.202C107.75 109.239 107.711 109.279 107.671 109.317L90.7491 118.155L67.2931 121.75C62.0388 120.892 56.9684 119.148 52.2979 116.593L52.1779 116.059L52.1763 116.06Z" fill="#D8C173"/>
<path fill-rule="evenodd" clip-rule="evenodd" d="M43.3921 110.291C43.7254 109.594 44.0252 109.011 44.078 108.803C44.1196 109.223 44.1958 110.145 44.3494 111.125C44.0269 110.851 43.7078 110.573 43.3921 110.291V110.291Z" fill="#F1D789"/>
<path fill-rule="evenodd" clip-rule="evenodd" d="M60.5262 120.124L63.5598 119.28L63.8185 119.361C63.8185 119.361 63.9561 119.442 63.9561 119.717C64.3363 119.499 64.6601 119.539 64.8947 119.394C65.0158 119.652 65.1369 120.51 65.6713 120.615C66.2291 120.737 66.8281 120.372 67.435 119.911C68.0334 119.434 68.715 118.835 69.2307 118.593C69.42 118.94 69.5876 119.3 69.7326 119.668C70.4121 119.126 71.5934 116.926 73.2761 116.966C73.7624 115.817 74.5749 114.835 75.6131 114.142C77.1747 113.083 78.1534 113.002 79.3753 113.099C79.8606 112.468 80.4586 111.933 81.139 111.521C81.3411 111.602 81.8995 111.942 82.5955 111.618C83.2995 111.295 84.0921 110.041 85.1358 109.879C85.6982 109.802 86.2701 109.922 86.7539 110.219C86.7539 110.219 89.7939 107.201 91.8915 106.197C91.8105 105.955 91.6489 105.041 94.1081 103.018C94.2457 103.139 94.1486 103.479 94.2457 103.498C94.2857 103.498 94.8857 103.239 95.6451 102.656C96.5838 101.953 97.7081 101.216 98.3875 101.014C99.6675 100.634 101.025 101.41 101.025 101.41C101.141 101.329 101.27 101.269 101.406 101.232C101.729 101.175 101.964 101.135 102.142 101.072C102.126 101.493 102.36 102.213 102.142 102.836C102.395 102.978 102.663 103.092 102.942 103.175C102.805 103.475 102.505 104.235 102.004 104.599C102.424 104.802 102.48 105.036 103.079 105.239C102.837 105.579 102.439 106.162 102.262 106.519C102.084 106.9 101.445 108.477 101.161 109.076C100.862 109.675 100.458 110.775 100.263 110.996C100.069 111.217 99.3651 112.153 98.8233 112.613C99.3033 112.435 101.267 111.837 102.1 111.61C101.852 111.974 100.595 113.839 99.3865 115.633C93.6001 119.101 87.1409 121.296 80.4395 122.072C73.738 122.848 66.9482 122.186 60.5225 120.132L60.5262 120.124Z" fill="#E0CD81"/>
<path fill-rule="evenodd" clip-rule="evenodd" d="M50.9201 67.2815C50.9201 67.2815 50.2167 67.2815 50.0791 67.3785C49.9415 67.4756 50.7831 67.6783 51.0417 67.7753C51.3004 67.8724 51.8588 68.3172 52.0044 68.6735C52.142 69.0132 57.0609 70.9951 57.0609 70.9951L60.5399 70.8169L61.7393 69.1599L59.4577 67.1615L61.0577 62.4447L58.9383 62.7844L53.8412 65.8244L51.2844 66.8036L50.9201 67.2815Z" fill="#DFC57C"/>
<path fill-rule="evenodd" clip-rule="evenodd" d="M58.56 68.8432C58.6103 68.9246 58.6811 68.9914 58.7654 69.0368C58.8496 69.0822 58.9443 69.1046 59.04 69.1019C59.76 69.1019 60.4229 69.28 60.6981 69.6437C61.1595 70.2267 62.4379 72.0875 62.4379 72.0875L65.496 73.1877L65.6933 69.5867L62.352 67.2651L58.5493 68.6645V68.8427H58.5579L58.56 68.8432Z" fill="#E5CC7C"/>
<path fill-rule="evenodd" clip-rule="evenodd" d="M57.9602 70.1781C57.9602 70.1781 58.5181 70.2187 59.2221 69.9595C59.9261 69.7003 61.0829 69.1424 61.5847 69.3611C62.2882 69.6603 62.1426 70.5989 62.9037 71.4411C63.3645 71.9589 64.2061 71.9429 64.6834 72.5013C65.1607 73.0597 66.8029 72.8005 66.8029 72.8005L67.4258 76.1605L64.9261 79.3648L64.1085 83.3451H60.7282L57.6402 82.12L56.1191 78.44L56.8797 74.7184L57.9602 70.1781Z" fill="#D2C281"/>
<path fill-rule="evenodd" clip-rule="evenodd" d="M64.4987 70.3398C64.5825 70.3657 64.6696 70.3793 64.7574 70.3804C64.6603 70.4614 64.4576 70.639 64.5387 71.1004C64.6198 71.5617 64.8784 72.1441 64.6603 72.4998C64.8344 72.6902 64.9643 72.9168 65.0406 73.1633C65.1782 73.5601 65.2187 73.9238 66.1163 73.9809C65.9867 74.0606 65.8673 74.1557 65.7606 74.2641C65.7606 74.2641 66.3835 74.806 66.6992 75.3073C67.0224 75.2934 67.88 75.0268 67.88 75.0268L68.0582 75.1484L68.4384 74.9884C68.4384 74.9884 68.0827 74.8508 68.3414 73.9852C68.584 73.2246 68.8027 73.2652 68.8214 73.2086C68.84 73.1521 68.9995 72.351 68.9995 72.0273C69.1206 71.607 69.2176 70.3286 69.2176 70.3286L68.959 67.5052L67.503 66.623L66.319 65.4801L65.2022 67.5836L64.4667 68.3169L64.4102 70.1372L64.4987 70.3398Z" fill="#E2C270"/>
<path fill-rule="evenodd" clip-rule="evenodd" d="M68.0015 67.9776C68.0015 67.9776 68.2601 68.7136 68.3577 69.28C68.3921 69.1699 68.4111 69.0556 68.4143 68.9403C68.4143 68.9403 68.6164 70.0571 68.6564 70.5184C68.7375 70.5019 68.8164 70.4779 68.8345 70.5584C68.8527 70.6389 69.0372 71.5376 68.9945 72.0389C69.3314 71.4831 69.7976 71.0169 70.3535 70.68C70.6772 70.4773 71.0575 70.2592 71.4543 70.2427C72.0772 70.2267 72.53 70.6395 73.2745 70.6395C75.0703 70.6395 76.6969 69.3205 77.8943 68.9163C78.7759 68.6165 79.5364 68.3984 80.0703 67.9125C80.3295 67.6944 80.7908 67.2091 81.2111 66.4885C81.7695 65.5285 82.3519 64.6928 82.9348 64.5877C82.6711 64.6362 82.4027 64.6551 82.1348 64.6443C82.1348 64.6443 82.3129 64.4661 82.6148 64.2235C82.9167 63.9808 83.2783 63.6816 83.7956 63.6816C84.7183 63.6816 85.1791 63.8187 85.6969 63.8187C86.2148 63.8027 86.514 63.6816 86.514 63.6816C86.514 63.6816 87.0564 64.0619 88.2777 64.0619C89.4996 64.0779 90.3167 64.1829 90.9561 64.24C91.5956 64.2971 93.7391 64.0619 94.354 64.08C94.7549 64.0954 95.1486 64.1918 95.5113 64.3632L93.5289 58.6032L86.4079 52.3792L82.1684 55.3808L75.6468 61.9019L69.3364 64.24L68.0175 65.7205V67.9776H68.0015Z" fill="#CCB360"/>
<path fill-rule="evenodd" clip-rule="evenodd" d="M82.1607 64.6762C82.1607 64.6762 82.3388 64.4986 82.6375 64.2559C82.9362 64.0133 83.3015 63.7135 83.8188 63.7135C84.741 63.7135 85.2023 63.8511 85.7202 63.8511C86.238 63.8351 86.5372 63.7135 86.5372 63.7135C86.5372 63.7135 87.0802 64.0933 88.301 64.0933C89.5228 64.1093 90.3399 64.2143 90.9794 64.2709C91.6188 64.3274 93.7623 64.0933 94.3772 64.1109C94.778 64.126 95.1716 64.2223 95.534 64.3941L94.6359 61.7967L93.5927 59.8149L90.6151 56.5541C90.6151 56.5541 87.0418 54.4506 87.0146 54.4346C86.9986 54.4186 85.7767 54.0949 85.7767 54.0949L82.5404 56.0527L79.6039 63.6501L79.5474 65.2501L81.4482 66.1482C81.9255 65.3482 82.4519 64.7082 82.9452 64.6271C82.4999 64.6757 82.1602 64.6757 82.1602 64.6757L82.1607 64.6762Z" fill="#D5B457"/>
<path fill-rule="evenodd" clip-rule="evenodd" d="M82.1199 65.2186C81.8367 65.2346 81.6026 65.1781 81.5375 64.9759C81.2949 64.2965 81.1007 64.1994 80.8975 64.1994C80.6943 64.1994 80.4202 64.6362 80.2575 64.6762C80.0949 64.7162 79.9018 64.1749 79.9018 64.1749L79.7237 64.0938C79.7237 64.0938 78.6799 64.7733 77.9439 65.5743C77.2079 66.3754 76.0021 67.7349 75.4602 67.977C74.9183 68.2191 73.057 68.3007 72.4202 68.4383C71.7834 68.5759 71.0773 69.0373 70.9802 69.1423C70.8831 69.2474 71.2639 69.3605 71.3205 69.4655C71.377 69.5626 70.697 69.5221 70.6405 69.6255C70.6005 69.7066 70.8005 70.1674 70.8997 70.4021C71.0733 70.3158 71.2637 70.2688 71.4575 70.2645C72.0805 70.2485 72.5338 70.6613 73.2778 70.6613C75.0741 70.6613 76.7002 69.3423 77.8975 68.9375C78.7797 68.6383 79.5402 68.4197 80.0741 67.9343C80.3327 67.7162 80.7941 67.2303 81.2149 66.5103C81.5221 66.017 81.8218 65.5557 82.1215 65.2159L82.1199 65.2186Z" fill="#D2B257"/>
<path fill-rule="evenodd" clip-rule="evenodd" d="M56.3602 105.259C56.3602 105.259 56.2002 104.66 54.7175 103.115C54.2967 102.678 54.0381 102.315 53.7549 102.056C53.0509 101.392 52.6381 101.214 52.1367 100.834C51.0365 100.017 49.8391 100.017 48.917 99.0134C47.9949 98.0102 46.9202 96.0934 46.1735 94.1344C45.4375 92.1766 45.2349 91.5536 45.2349 91.4971C45.2349 91.4406 45.4375 91.0603 45.6962 91.1168C45.9549 91.1734 45.9549 91.6747 46.0199 91.7963C46.1488 91.9948 46.295 92.1814 46.4567 92.3542C46.837 92.7915 47.3789 93.3142 47.6541 94.0939C47.5975 93.4304 47.3709 92.6944 47.3709 92.6944C47.3709 92.6944 48.7949 93.5926 50.0082 94.5307C51.2301 95.4694 51.7314 95.7931 52.0882 96.3915C52.445 96.9899 53.2855 98.568 53.6882 99.0294C54.0909 99.4907 59.6082 101.23 59.6082 101.23L62.2327 103.187L63.5357 106.043L62.5159 107.643L60.5581 108.063L57.3783 106.639L56.3602 105.259V105.259Z" fill="#D2B159"/>
<path fill-rule="evenodd" clip-rule="evenodd" d="M49.2959 95.4208C49.2959 95.4208 49.9594 96.4805 51.5775 97.4837C53.034 98.3658 55.3396 99.1669 57.3951 99.6443C58.5759 99.9275 59.7572 100.146 60.817 100.162C63.673 100.202 65.6388 99.3856 68.0746 99.1184C69.3935 98.9808 71.0116 98.8757 72.6943 98.4784C74.8543 97.9605 76.1327 97.3776 77.8724 96.5584C79.1343 95.976 80.2916 95.5392 81.2298 94.9808C82.5487 94.2043 83.5114 93.3387 84.6282 93.08C84.4906 93.4603 84.345 94.1397 83.2447 94.8437C83.8271 94.8272 84.6282 94.7872 84.6282 94.7872C84.6282 94.7872 83.8516 95.248 82.4842 96.2837C81.6426 96.9237 80.5263 98.0069 79.3855 98.7269C78.649 99.1883 77.8479 99.5269 77.322 99.8032C76.042 100.507 75.5258 100.863 74.6847 101.723C74.9839 101.707 75.0084 101.723 75.0084 101.723C75.0084 101.723 73.9482 101.861 73.1882 102.265C73.0282 102.265 72.7508 102.209 72.2655 102.346C71.8852 102.467 71.3834 102.743 70.866 102.888C70.1295 103.107 69.8874 103.01 69.8874 103.01L70.0084 103.252C70.0084 103.252 69.0484 103.236 68.7284 103.268C68.785 103.284 68.769 103.309 68.769 103.309C68.7128 103.318 68.6586 103.337 68.609 103.365C68.455 103.465 68.2856 103.539 68.1076 103.583C68.0106 103.599 67.9295 103.599 67.8079 103.624C67.8484 103.721 68.1642 104.264 68.3098 104.584C68.1887 104.665 66.3679 106.041 66.3679 106.041C66.4244 106.129 66.4705 106.224 66.5055 106.324C66.562 106.501 66.5866 106.761 66.6431 106.882C66.7802 107.124 66.8612 107.165 66.8612 107.165C66.8612 107.165 66.6431 107.205 66.2623 107.302C65.9391 107.383 65.5423 107.521 64.9823 107.602C64.8105 107.624 64.6376 107.637 64.4644 107.642C64.5455 107.82 64.9012 108.5 64.2458 109.284C63.5903 110.069 63.3882 110.183 63.186 110.684C63.0843 110.607 62.976 110.539 62.8623 110.482C62.6442 110.385 62.3444 110.239 62.2394 110.045C62.1781 110.304 62.097 110.558 61.9967 110.805C61.7946 111.347 61.4954 111.882 61.4388 112.286C61.2202 112.043 60.8159 111.566 60.2575 111.663C59.6991 111.76 59.2543 112.521 59.1572 112.739C59.1572 112.602 59.0602 112.497 59.0362 112.658C59.0196 112.836 58.7124 114.697 56.9972 116.202C56.9812 115.821 56.9812 114.98 56.9407 114.705C56.7807 114.865 56.585 115.101 55.4196 115.603C54.2788 116.105 54.4596 116.606 54.4596 116.606C54.4596 116.606 54.3626 115.806 54.9775 114.964C55.6004 114.123 55.9807 113.726 55.9807 113.661C55.9706 113.596 55.9426 113.534 55.8996 113.483C55.8186 113.402 55.657 113.305 55.657 113.241C55.754 113.201 56.7167 112.739 56.6602 111.784C56.6036 110.927 56.2399 110.482 55.9807 110.166C55.9407 110.126 56.3615 109.827 56.3044 109.73C56.2639 109.673 55.7466 109.292 55.6815 109.09C55.6968 108.969 55.7239 108.849 55.7626 108.734C55.8191 108.556 55.8596 108.434 55.8436 108.313C55.8031 108.111 55.5844 107.553 55.5199 107.496C55.5764 107.512 55.9807 107.496 55.9807 107.496C55.9807 107.496 55.6575 106.978 55.6004 106.735C55.5434 106.493 55.4223 105.853 55.3578 105.732C55.4954 105.748 55.8351 105.772 55.8351 105.732C55.8516 105.611 55.5359 105.409 55.6751 105.252C55.7722 105.268 55.9583 105.349 56.1359 105.576C56.0388 105.317 55.8772 104.815 55.537 104.613C55.697 104.557 56.241 104.411 56.7183 104.694C57.1956 104.977 57.3583 105.373 57.3583 105.373C57.3583 105.373 57.6415 105.592 58.0788 105.916C58.5802 106.312 59.2191 106.876 60.2388 107.275C60.4575 107.396 61.0154 107.396 61.4202 107.315C61.5964 107.273 61.7654 107.205 61.9215 107.113C61.9779 107.08 62.0376 107.053 62.0996 107.032C62.0127 106.857 61.9126 106.69 61.8004 106.53C61.938 106.53 62.0996 106.547 62.0996 106.547C62.0996 106.547 62.1967 106.328 61.7599 105.907C61.857 105.81 61.9786 105.747 61.9786 105.583C61.841 105.567 61.5983 105.365 61.5418 105.284C61.6223 105.227 61.7439 105.041 61.8815 104.985C61.7599 104.887 61.4607 104.483 61.3231 104.443C61.4545 104.394 61.5817 104.334 61.7034 104.265C61.7034 104.265 61.0239 104.086 60.8052 103.941C60.5866 103.781 60.2634 103.504 60.0692 103.423C59.8666 103.342 59.5108 103.302 59.3652 103.14C59.5023 103.18 59.721 103.14 59.8831 103.14C60.0042 103.14 60.0612 103.156 60.1012 103.156C60.0852 103.099 60.0852 102.978 60.401 102.938C60.5528 102.915 60.7002 102.868 60.8378 102.8C60.8378 102.8 60.538 102.784 60.1978 102.46C59.8575 102.137 59.5748 101.878 59.3807 101.837C59.1786 101.797 58.7983 101.975 58.5636 101.958C58.2399 101.918 58.1023 101.756 58.1023 101.756C58.1023 101.756 57.0266 101.853 54.6399 100.397C52.5764 99.1349 51.6783 98.0187 51.6783 98.0187C51.4852 97.9486 51.2985 97.8618 51.1204 97.7595C50.3439 97.3552 49.2676 96.5136 49.3002 95.4128L49.2959 95.4208Z" fill="#C2A44D"/>
<path fill-rule="evenodd" clip-rule="evenodd" d="M79.0613 46.8608C79.2485 46.9216 79.4148 47.0338 79.5413 47.1845C79.9216 47.6213 80.1643 48.4464 79.2987 49.3285C79.6384 49.4496 79.7787 49.4885 80.0752 49.4496C79.776 49.8059 79.0965 50.5664 79.056 51.2299C79.0155 51.7717 79.3552 51.9339 79.3552 51.9339C79.3552 51.9339 78.8373 52.5323 78.8133 53.5339C79.0579 53.2581 79.3255 53.0036 79.6133 52.7733C80.2123 52.296 81.0373 51.7541 81.5957 51.4144C81.5882 51.5568 81.6073 51.6993 81.6523 51.8347C81.6523 51.8347 82.6955 50.9771 83.5723 51.3579C83.9685 51.536 83.7904 52.0939 83.7904 52.0939C83.7904 52.0939 84.3328 51.8917 84.7131 52.272C85.0933 52.6523 85.6309 53.6331 85.9067 54.0133C86.0277 54.1915 86.3435 54.5312 86.6667 55.0571C87.1082 55.7933 87.4769 56.5708 87.7675 57.3787C87.7835 56.9579 87.8885 56.3029 89.0864 56.7152C90.2837 57.136 91.6427 58.0181 92.7835 59.7552C93.9243 61.4923 94.2069 63.4533 94.7813 64.2C95.3637 64.92 95.9627 66.1173 96.0032 66.6192C96.0437 67.1211 95.8251 68.7387 97.0224 73.1157C97.3621 71.7568 97.88 68.7387 97.88 68.7387L98.1632 66.0768L98.4869 57.8405L89.8864 50.6955L83.1632 45.8165L78.7861 46.2373L79.0608 46.8603L79.0613 46.8608Z" fill="#CAA13E"/>
<path fill-rule="evenodd" clip-rule="evenodd" d="M95.041 59.1179C95.041 59.1179 94.9194 58.3179 92.897 56.9579C90.8741 55.615 89.2965 55.615 87.8405 54.4742C86.7237 53.5761 85.5589 51.5126 84.8005 50.8331C84.0639 50.1617 83.9429 48.2198 83.9429 48.2198L86.4266 46.1398L90.1205 40.8006L93.2431 37.3622L94.7397 39.4422L96.8197 41.8854L97.9765 46.7883L98.3973 53.9649L95.0373 59.1185L95.041 59.1179Z" fill="#B59544"/>
<path fill-rule="evenodd" clip-rule="evenodd" d="M97.5407 67.72C97.602 66.6317 97.4676 65.5412 97.1439 64.5003C96.6106 62.8416 95.4453 59.8966 94.9039 58.7936C94.6853 57.5718 94.8474 57.4747 95.0821 57.3371C95.3167 57.1995 96.1989 56.6971 96.6821 54.9344C97.1653 53.1718 98.6645 53.1142 98.6645 53.1142L99.5866 52.4347L100.987 55.9376L102.208 59.1014L102.588 61.5206L102.871 63.5835L102.208 67.9446L98.9317 70.9056L97.5402 67.72H97.5407Z" fill="#C89D3A"/>
<path fill-rule="evenodd" clip-rule="evenodd" d="M51.8208 116.328V116.238C51.8889 116.195 51.949 116.141 51.9984 116.078C52.0549 115.997 52.096 115.9 52.136 115.876C52.2171 115.835 52.5973 115.716 52.7995 115.754C53.0016 115.793 53.536 116.013 53.8192 115.997C54.4016 115.981 55.0811 115.536 56.1573 115.738C57.7755 116.037 58.1557 117.138 59.0944 117.761C59.7344 118.198 60.3968 118.003 60.4939 118.003H60.712C60.7525 118.003 61.0517 117.664 61.2139 117.68C61.5376 117.696 61.5696 117.963 61.7717 117.979C62.2491 118.036 63.1717 117.737 63.6331 117.858C63.7699 117.901 63.8943 117.976 63.9957 118.078C64.0971 118.179 64.1725 118.303 64.2155 118.44C64.3125 118.739 64.2315 119.12 63.9968 119.338C63.4955 119.799 63.0181 120.236 62.9211 120.618C63.0445 120.712 63.1631 120.813 63.2763 120.919C59.2732 119.899 55.4216 118.357 51.8208 116.332V116.328Z" fill="#CEB052"/>
<path fill-rule="evenodd" clip-rule="evenodd" d="M94.9028 100.162C94.9028 100.162 96.1647 98.4795 96.602 97.6459C97.0388 96.7867 95.2186 85.9067 95.2186 85.9067L98.8756 73.9249L98.778 70.0251C98.778 70.0251 98.9562 66.4246 99.377 64.863C99.8788 65.7611 101.44 66.8454 101.78 67.4198C101.94 66.319 102.484 63.9974 102.403 61.5217C102.702 61.9825 103.422 66.6187 103.422 66.6187L104.142 69.7414L105.081 73.0587L106.125 76.5622L106.748 78.9814L107.103 79.5638L107.403 80.583L107.686 81.6838L108.503 84.2646L108.983 86.3841L109.364 90.2273C109.446 90.5215 109.506 90.8218 109.542 91.1254C109.558 91.5462 109.485 91.7889 109.485 91.8619C109.485 91.935 109.623 92.7841 109.566 93.4235C109.485 94.0635 109.485 94.5643 108.983 95.0235C108.481 95.4827 108.166 98.2273 108.166 98.2273L107.268 97.6289C107.268 97.6289 107.446 96.8113 107.025 96.0673C106.605 95.3233 105.788 95.1691 105.326 95.2907C104.865 95.3878 103.943 95.5329 103.644 95.7921C103.36 96.0507 102.665 96.8518 102.025 97.2161C101.225 97.6961 99.922 97.7339 99.2266 97.8955C98.5226 98.0555 97.746 98.5355 96.9284 99.0929C96.2874 99.5079 95.6106 99.8649 94.906 100.16V100.16L94.9028 100.162Z" fill="#CCA847"/>
<path fill-rule="evenodd" clip-rule="evenodd" d="M94.9028 117.84C94.9028 117.84 94.9562 117.875 95.0591 117.931C100.807 115.238 105.957 111.421 110.206 106.705C110.159 105.067 110.099 103.389 110.033 102.767C109.896 101.448 109.993 100.105 109.952 99.3285C109.912 98.552 109.475 95.3883 109.273 94.5712C109.054 93.7541 108.633 93.3493 108.569 93.3493C108.512 93.3659 108.172 94.8869 108.172 95.2693C108.172 95.6517 108.091 96.5723 108.091 96.8069C108.035 96.7904 108.011 96.6469 108.011 96.5883C107.929 96.7904 107.832 97.1467 107.792 97.1872C107.751 97.2277 107.848 96.8475 107.792 96.7664C107.735 96.6853 107.632 96.7259 107.654 96.5237C107.664 96.4039 107.683 96.2849 107.711 96.168C107.711 96.168 107.468 96.5237 107.291 97.4299C107.112 98.328 107.112 98.3525 107.048 98.4331C106.991 98.5307 106.668 98.8539 106.651 98.9755C106.635 99.1936 106.951 99.4123 106.975 99.5333C106.991 99.736 106.692 100.674 106.595 101.133C106.497 101.593 106.538 102.492 106.435 102.954C106.353 103.374 106.275 103.617 105.998 103.795C106.2 103.835 106.394 103.892 106.394 103.892C106.394 103.892 106.677 105.089 105.957 106.109C105.699 106.465 105.634 106.627 105.359 106.95C104.816 107.549 104.396 108.23 104.355 108.674C104.327 108.543 104.308 108.41 104.299 108.277C104.299 108.277 103.457 109.256 103.101 109.814C102.64 110.534 102.001 110.494 101.821 110.672C101.641 110.85 101.603 111.173 101.661 111.433C101.501 111.473 101.2 111.53 100.998 112.153C100.901 112.476 100.658 112.793 100.278 113.01C99.8975 113.228 99.4362 113.293 99.2015 113.35C99.4036 113.406 99.4847 113.406 99.5818 113.471C99.4607 113.673 98.9023 113.989 98.2794 114.394C97.6564 114.774 97.3567 115.332 97.2031 115.696C97.0431 116.036 96.8068 116.254 96.4266 116.295C96.5866 116.392 96.8234 116.618 96.9444 116.691C96.7663 116.732 96.4644 116.732 95.9252 117.193C95.3588 117.662 95.1647 117.8 94.9055 117.841L94.9028 117.84Z" fill="#C39D3C"/>
<path fill-rule="evenodd" clip-rule="evenodd" d="M83.6452 121.589C83.955 121.372 84.2906 121.194 84.6442 121.06C85.906 120.558 87.241 120.461 87.7668 120.3C88.2687 120.14 88.665 119.919 89.2879 119.798C89.2714 119.94 89.2575 120.073 89.2426 120.199C87.4061 120.776 85.5359 121.241 83.6426 121.589H83.6452Z" fill="#D2BA6B"/>
<path fill-rule="evenodd" clip-rule="evenodd" d="M106.92 88.3983C106.92 88.3983 106.661 89.7978 106.2 90.6799C105.739 91.5621 105.24 92.7834 105.24 92.7834C105.243 92.5082 105.276 92.2341 105.337 91.9658C104.755 92.3055 103.339 93.1231 102.937 93.4869C102.557 93.8266 101.917 94.4255 101.756 94.7087C102.136 93.5925 102.532 92.5893 102.597 92.1279C102.015 92.5487 99.2961 94.7898 97.8806 96.2703L93.471 99.8383C92.9622 100.113 92.4381 100.358 91.9014 100.573C91.1414 100.896 90.2433 101.172 89.5798 101.431C89.7579 100.954 90.0406 100.532 90.4374 100.128C90.8582 99.7317 92.1201 98.3642 92.3142 97.7279C92.4923 97.0645 92.5329 96.6682 92.2982 96.1098C92.0795 96.1663 91.5782 96.1909 91.2385 96.2879C90.8987 96.385 90.5345 96.7487 90.5345 96.7487C90.5345 96.7487 90.7931 95.2682 91.3515 93.8687C90.9307 93.8847 90.2107 94.0058 90.2107 94.0058C90.2107 94.0058 91.2139 92.3231 92.9307 91.1503C92.405 91.2622 91.8905 91.4218 91.3937 91.6271C90.3905 92.0479 89.2902 92.6709 88.4731 93.0106C88.9339 92.3706 92.1702 87.7519 94.0961 83.4474C96.0161 79.1514 96.7334 78.0511 97.1542 75.7455C97.3723 74.6047 97.3142 72.9189 97.3723 71.409C97.4289 69.9119 97.615 68.569 97.4939 67.6709C97.9953 68.2938 99.8726 70.0495 99.9371 73.9738C99.9937 77.8975 98.1414 83.1973 96.175 86.0527C96.655 86.1903 97.8987 86.3525 99.1766 84.1327C100.454 81.913 100.439 81.2933 100.9 80.3706C100.957 80.8319 100.94 80.9935 100.94 80.9935C100.94 80.9935 102.802 78.7365 103.683 75.8965C103.861 77.1183 104.387 78.1946 103.562 80.4357C102.826 82.4581 101.863 82.9519 101.863 82.9519C101.863 82.9519 102.34 82.8709 103.044 82.4501C103.165 82.7493 103.141 83.0901 103.344 83.2106C103.546 83.3311 103.821 83.5343 103.861 83.7285C104.08 83.4047 104.419 82.9919 104.525 82.6847C104.444 83.3247 104.387 86.1231 104.685 87.5471C105.308 87.4906 105.947 87.4501 106.384 86.3253C106.085 87.4261 106.085 88.089 106.287 89.0277C106.619 88.8015 106.918 88.3967 106.918 88.3967L106.92 88.3983Z" fill="#C0993A"/>
<path fill-rule="evenodd" clip-rule="evenodd" d="M85.8983 43.8028C85.8983 43.8028 85.2753 44.0614 84.2156 44.0614C83.2935 44.0614 83.5521 43.7057 82.1121 43.7057C79.8956 43.7057 72.1527 44.9857 70.7932 44.9676C69.9111 44.9516 73.7703 45.3478 73.7703 45.3478L83.6332 45.4854L85.6151 45.3254L86.3516 43.8268L85.8983 43.8028Z" fill="#A88F33"/>
<path fill-rule="evenodd" clip-rule="evenodd" d="M60.3238 63.0827C60.3238 63.0827 59.0614 64.0453 58.5275 64.7819C57.9936 65.5184 57.7104 66.0032 57.1035 66.6021C57.246 66.6076 57.3883 66.5885 57.5243 66.5456C57.5243 66.5456 57.5243 66.7056 57.4272 66.7477C57.5111 66.7384 57.596 66.7479 57.6758 66.7755C57.7555 66.8032 57.828 66.8484 57.8881 66.9077C57.7099 67.0048 57.2246 67.4907 57.6049 68.0651C57.8881 68.5019 58.487 68.5419 58.487 68.5419C58.487 68.5419 58.3494 68.9387 58.9238 68.8981C60.1616 68.8416 61.5451 68.2992 62.1841 68.4368C62.8241 68.5968 63.1878 68.6555 63.6406 69.4405C64.1206 70.2171 64.5387 70.3387 64.5387 70.3387C64.5387 70.3387 64.8219 69.6181 64.7574 68.5424C64.9896 67.9626 65.1183 67.3465 65.1377 66.7221L64.7169 63.6235L62.8806 61.3013L60.5019 62.6203L60.3238 63.0811V63.0827Z" fill="#E3C571"/>
<path fill-rule="evenodd" clip-rule="evenodd" d="M62.5806 62.6214C62.5806 62.6214 62.7587 63.0422 63.5032 63.0822C63.4222 63.2604 63.4222 63.2849 63.4467 63.422C63.4627 63.5596 63.4867 63.7617 63.4867 63.7617C63.5687 63.722 63.6428 63.6678 63.7054 63.6017C63.7459 63.7798 63.6648 64.0625 63.7054 64.2652C63.7304 64.3884 63.7711 64.508 63.8264 64.6209C63.8382 64.5932 63.8518 64.5663 63.867 64.5404C63.883 64.4998 64.027 64.9772 64.4254 65.3404C64.425 65.2845 64.4388 65.2295 64.4654 65.1804C64.4715 65.2818 64.505 65.3797 64.5624 65.4636C64.5326 65.4494 64.5054 65.4303 64.4819 65.407C64.4819 65.407 64.5219 66.687 64.7406 67.3489C64.7771 67.3061 64.8096 67.2601 64.8376 67.2113C64.8376 67.1713 64.8216 67.5676 64.7811 67.8513C64.7246 68.1345 64.7651 68.5308 64.7651 68.5308C64.911 68.4159 65.0713 68.3207 65.2419 68.2476C65.4846 68.15 65.8819 67.8508 66.124 67.1873C66.2645 66.8116 66.3728 66.4246 66.4478 66.0305C66.526 66.1811 66.58 66.3431 66.6078 66.5105C66.6243 66.7126 67.0046 66.6076 67.0046 66.6076L67.0856 65.7254L67.5656 63.727L68.0024 62.4892L70.1059 59.2129L73.9064 56.286L77.2238 57.0465L80.0227 53.2438L75.2008 50.3473L70.6376 50.8246L66.4963 56.5606L63.1795 61.7633L62.5806 62.6209V62.6214Z" fill="#D8B65B"/>
<path fill-rule="evenodd" clip-rule="evenodd" d="M86.4808 54.3205C86.4808 54.3205 86.1976 54.377 85.3805 54.8005C84.5634 55.224 83.997 55.3584 83.6813 55.9813C83.3656 56.6042 83.3416 57.0981 83.3416 57.0981C83.3416 57.0981 83.9 56.8554 84.2237 56.7744C84.5634 56.6938 84.9437 56.7178 84.9032 56.8554C84.8643 56.9498 84.8102 57.0372 84.7432 57.1141C84.7432 57.1141 85.3832 57.0981 85.3661 57.4138C85.349 57.7296 85.245 58.0773 85.124 58.2309C85.0024 58.3909 84.501 58.6277 84.4445 58.8138C84.3069 59.1941 84.501 59.2101 84.428 59.5173C84.3714 59.817 84.1048 60.3994 83.2306 61.4186C82.3325 62.4384 81.9506 63.1584 81.9506 63.1584C81.9506 63.1584 81.5138 62.3413 81.2872 61.6373C81.1272 61.7178 80.268 62.1952 80.268 62.1952L78.2776 55.2618L78.3176 54.8005C78.3176 54.8005 78.4957 54.5824 78.5362 54.1776C78.237 54.0805 78.1965 53.9994 77.7997 53.6197C77.4029 53.24 77.0797 52.7781 76.4168 52.4624C76.3197 52.2842 76.1981 52.0421 75.7128 51.9445C75.2274 51.8469 74.9362 51.7669 74.9362 51.7669C74.9362 51.7669 75.1949 51.6693 75.3165 51.4672C75.0168 51.5077 74.7746 51.6048 74.1192 51.5888C73.4557 51.5722 73.3826 51.5482 73.0189 51.6048C72.6552 51.6613 72.2189 51.8234 72.0562 51.265C71.8781 51.1274 71.4978 51.249 71.1741 51.7258C70.8504 52.2026 70.7373 52.5834 70.1144 52.7696C70.0706 53.0442 69.9744 53.3078 69.8312 53.5461C69.653 53.8458 69.3698 54.145 68.9896 54.5898C68.3906 55.2938 68.4877 56.4506 67.533 57.3328C66.5704 58.2144 67.693 54.889 67.693 54.889L69.2301 51.209L73.6072 46.929L80.4034 46.4682L81.0669 49.9882L84.3842 51.129L86.4797 54.3248L86.4808 54.3205Z" fill="#D3AE4D"/>
<path fill-rule="evenodd" clip-rule="evenodd" d="M87.5566 55.097L84.7006 50.9792L82.7022 49.4416C82.7022 49.4416 81.2782 46.8208 81.1811 46.7397C81.1001 46.6832 79.7571 46.5376 78.8995 46.481L79.0595 46.8773C79.2467 46.9381 79.413 47.0503 79.5395 47.201C79.9198 47.6378 80.1625 48.4629 79.2969 49.345C79.6366 49.4661 79.7769 49.505 80.0734 49.4661C79.7742 49.8224 79.0947 50.5829 79.0542 51.2464C79.0137 51.7882 79.3534 51.9498 79.3534 51.9498C79.3534 51.9498 78.8355 52.5488 78.8115 53.5498C79.0561 53.274 79.3237 53.0196 79.6115 52.7893C80.2105 52.3093 81.0355 51.7696 81.5939 51.4298C81.5863 51.5724 81.6055 51.7151 81.6505 51.8506C81.6505 51.8506 82.6937 50.993 83.5705 51.3733C83.9667 51.5514 83.7886 52.1098 83.7886 52.1098C83.7886 52.1098 84.331 51.9077 84.7113 52.288C85.0915 52.6682 85.6334 53.6469 85.9086 54.0277C86.0297 54.2058 86.3454 54.5456 86.6686 55.0709C87.1102 55.8073 87.4789 56.585 87.7694 57.393C87.7854 57.0693 87.8505 56.6165 88.4094 56.6165L87.5598 55.0954L87.5566 55.097Z" fill="#CAA13E"/>
<path fill-rule="evenodd" clip-rule="evenodd" d="M44.7412 66.7962C44.7412 66.7962 44.5391 66.2944 44.7412 65.3157C44.9433 64.337 45.2591 63.8757 45.3641 62.4357C45.4692 60.9957 46.4079 59.1994 46.4079 59.1994L49.0047 58.0186L50.8415 58.52L51.3833 60.9797L49.0612 62.2597C49.0612 62.2597 48.9401 62.8016 48.2847 63.2384C47.6292 63.6752 46.7231 64.0149 46.5049 64.4602C46.3745 64.7329 46.2794 65.0211 46.2217 65.3178C46.2217 65.3178 45.5583 65.1802 45.162 65.617C44.7412 66.0624 44.7572 66.4586 44.7412 66.7984V66.7962Z" fill="#F4EFC8"/>
<path fill-rule="evenodd" clip-rule="evenodd" d="M49.984 66.1408C49.984 66.1408 49.7653 66.2784 49.6037 66.6208C49.4437 66.3621 49.0613 64.8245 49.0453 63.441C49.0293 62.0576 48.9467 61.7146 49.2667 61.2378C49.5867 60.761 50.8416 60.2586 50.6635 59.4C50.4853 58.5829 49.7408 58.2432 48.8267 58.4778C48.1867 58.6378 47.7104 59.9989 47.0469 60.6784C46.5451 61.1962 45.9467 61.1152 45.7851 61.3984C45.5664 61.7786 45.7685 62.1589 45.704 62.4016C45.6875 62.4826 45.4853 62.9194 45.1211 63.4453C44.3851 64.505 43.1392 66.0021 42.9771 67.345C43.0336 66.5845 42.9936 66.5685 43.1957 65.7269L43.0741 65.5248L43.8741 62.9034L44.392 60.7434L45.5493 57.1264L47.5877 53.4293L49.5701 51.2122L51.6331 51.3498L51.8757 54.4485L53.0571 60.2661L55.5408 63.3242L51.56 66.0032L49.9824 66.1408H49.984Z" fill="#EBCC73"/>
<path fill-rule="evenodd" clip-rule="evenodd" d="M51.2221 67.24C51.2221 67.24 50.8824 67.3211 50.7608 67.2565C50.6392 67.192 50.5187 67.1189 50.5587 67.0379C50.5987 66.9568 50.8173 66.8197 50.8173 66.7547C50.8218 66.6959 50.8032 66.6376 50.7655 66.5923C50.7278 66.547 50.6738 66.5182 50.6152 66.512C50.4291 66.488 50.3725 66.6091 50.3725 66.6091C50.3725 66.6091 50.1944 66.472 50.0493 66.4491C50.1352 66.4386 50.2215 66.433 50.308 66.4325C50.0844 66.3313 49.8473 66.2632 49.604 66.2304C49.8061 66.1093 50.2029 65.7531 50.4616 65.7531C50.7203 65.7531 50.8824 65.7131 50.8419 65.5755C50.8013 65.4379 50.5992 65.2357 50.3811 65.1547C50.4616 65.0576 50.5187 64.912 50.3245 64.5147C50.1219 64.1184 50.2029 63.8512 50.268 63.7547C50.3245 63.6331 50.5267 63.4149 50.6237 63.2773C50.7208 63.1397 50.8019 62.9536 50.9635 62.8565C51.0445 62.8 51.3032 62.6965 51.5624 62.5979C51.8456 62.5008 52.0803 62.3792 52.2419 62.5008C52.42 62.6219 52.3389 62.784 52.3389 62.784C52.3389 62.784 52.8973 62.5813 53.3987 62.8405C53.9005 63.0827 55.1224 63.2368 55.1224 63.2368L55.5603 64.1189L52.6637 66.6027L51.4664 67.2016L51.2237 67.2416L51.2221 67.24Z" fill="#E5C66B"/>
<path fill-rule="evenodd" clip-rule="evenodd" d="M55.2424 63.1798C55.2424 63.1798 54.3443 63.7788 54.1421 63.9969C54.2632 64.0134 54.4653 64.0945 54.3843 64.2156C54.2872 64.3366 53.7048 64.7574 53.3811 65.1542C53.0413 65.5505 52.7176 66.0524 52.6045 66.295C52.4835 66.5132 51.5608 67.1526 51.2456 67.2332C51.9091 67.2332 53.244 66.4161 53.7453 66.4161C53.7293 66.6588 53.8829 66.934 54.1661 66.958C54.4493 66.982 55.2664 67.1361 56.3667 66.4566C57.4669 65.7932 57.1032 65.2993 57.564 64.9761C58.4461 64.3932 58.8019 63.8753 59.2872 63.5521C59.7725 63.2289 60.0237 63.1553 60.0237 63.1553C60.0237 63.1553 60.0397 62.9126 60.1837 62.9372C60.2232 62.9417 60.2606 62.9569 60.292 62.9811C60.3234 63.0054 60.3475 63.0378 60.3619 63.0748C60.3619 63.0748 61.2035 62.4758 62.2819 62.3142C62.2567 62.303 62.2366 62.2829 62.2253 62.2577C62.2253 62.2577 62.3059 62.2172 62.3224 62.1766C62.3224 62.1766 62.3789 62.0956 62.4195 62.1361C62.46 62.1766 62.5165 62.4758 62.5976 62.5974C62.7757 62.5164 63.1155 61.7558 63.1155 61.7558L63.9331 59.4177V57.2817L63.2931 57.4033L58.4931 59.4417L55.58 62.4598L55.2403 63.1798H55.2424Z" fill="#E6BD62"/>
<path fill-rule="evenodd" clip-rule="evenodd" d="M69.0613 52.7023C69.321 52.6394 69.5699 52.5384 69.8 52.4026C69.7029 52.6618 69.7029 52.945 69.2821 53.5599C68.8613 54.1749 68.8453 54.2639 68.5056 54.9029C68.1659 55.5663 68.1253 56.521 67.8016 56.9413C67.9467 56.8708 68.1024 56.8245 68.2624 56.8042C68.2624 56.8042 67.9392 57.0874 67.8016 57.3866C67.664 57.6858 67.4213 58.3087 66.8229 58.6895C66.2245 59.0703 65.4635 59.3125 64.6464 60.2106C63.8288 61.0922 62.9877 62.209 62.5664 62.6106C62.7851 62.2304 63.0843 61.4698 63.1653 60.9685C63.2464 60.4671 63.1488 59.8677 63.2864 59.2048C63.424 58.5418 63.424 58.0639 64.0864 56.9066C64.7488 55.7493 65.8827 51.7285 65.8827 51.7285L68.3259 50.952L69.0624 52.6997L69.0613 52.7023Z" fill="#B6933F"/>
<path fill-rule="evenodd" clip-rule="evenodd" d="M67.2975 51.2219C67.2975 51.2219 66.5615 52.2816 66.3594 53.2203C66.1573 54.1589 66.3429 54.0779 66.2218 54.5392C66.1494 54.8205 66.1494 55.1155 66.2218 55.3968C66.4767 54.9862 66.8257 54.6421 67.2399 54.3931C67.9359 53.9728 68.5023 53.6731 68.8399 53.3174C69.1797 52.9371 69.4629 52.3141 70.1989 51.8368C69.8997 51.7963 69.4789 51.6587 69.3989 51.6768C69.6986 51.3371 70.5962 50.8192 71.5023 50.1963C72.4005 49.5563 72.3439 49.2982 73.8005 48.6592C73.3231 48.7403 73.0965 48.6187 72.6997 48.6592C72.8597 48.3195 73.4197 48.1574 73.9797 47.5995C74.5397 47.0416 73.6239 46.216 73.6239 46.216L69.3573 48.7968L67.2943 51.224L67.2975 51.2219Z" fill="#C49937"/>
<path fill-rule="evenodd" clip-rule="evenodd" d="M55.7202 49.2959L55.8173 48.5194L57.0391 46.5615L58.3175 43.1231V38.4223L58.2205 35.7039L58.4226 33.9237L58.5762 33.3578L58.7383 33.1391L59.7815 33.681L61.2221 35.6389L61.3597 39.4175L59.9597 45.3802L55.9629 49.7413L55.7202 49.2959Z" fill="#DFC068"/>
<path fill-rule="evenodd" clip-rule="evenodd" d="M58.9 32.9206C58.9 32.9206 58.26 32.9371 58.1234 35.599C57.9869 38.2608 57.9208 39.6603 57.8237 40.9792C57.7266 42.2982 57.5005 43.0987 57.3869 43.8758C57.2733 44.6528 57.2088 45.712 56.8451 46.3595C56.6851 46.6587 56.3432 47.5974 55.5421 48.3014C54.644 49.0779 53.3021 49.6203 53.0989 49.6608C52.7426 49.7414 50.9384 49.9195 50.2024 50.3243C49.9437 50.4619 49.4984 50.6235 49.0051 51.0848C48.0259 51.9664 46.7235 53.544 45.7848 55.4454C44.3448 58.2854 42.9048 66.303 42.9048 66.303L43.2285 65.7611C43.2285 65.7611 43.2691 65.0411 43.9891 63.7787C44.6931 62.5168 44.4909 61.1008 45.4696 58.6816C45.8499 57.7595 46.3272 56.5622 46.9096 55.5424C47.8323 53.8838 48.9485 52.4598 50.0733 51.6832C51.9096 50.4214 53.9325 50.1462 53.9325 50.1462L56.109 48.7062C56.109 48.7062 56.4893 47.9702 56.9912 47.1286C57.6947 45.9478 58.5912 44.6288 58.7869 42.7115C59.0866 39.8715 58.3661 38.0107 58.4066 36.328C58.4472 34.6454 58.4632 33.4075 58.8034 33.1078C59.1437 32.808 58.9005 32.9216 58.9005 32.9216L58.9 32.9206Z" fill="#A88F33"/>
<path fill-rule="evenodd" clip-rule="evenodd" d="M58.9 45.6229C58.9 45.6229 59.86 43.2602 60.2994 41.1647C60.3805 40.7439 60.5421 40.3237 60.5826 39.9839C60.7848 38.0015 60.8413 37.1845 60.5826 36.1002C60.3805 35.3002 59.604 34.5791 59.1992 34.0202C58.8029 33.4373 58.6168 33.2202 58.6978 33.0975C58.7789 32.9749 59.0941 32.7743 59.4013 32.7983C59.7279 32.8078 60.0491 32.8837 60.3454 33.0212C60.6417 33.1587 60.907 33.3551 61.1251 33.5983C61.748 34.3183 62.2413 36.7621 62.2413 36.7621L62.7603 39.9866L64.0792 44.0479L58.901 45.6261L58.9 45.6229Z" fill="#C99E3D"/>
<path fill-rule="evenodd" clip-rule="evenodd" d="M67.9204 43.1637C67.9204 43.1637 67.7423 43.2442 67.4191 43.1637C67.4328 43.2958 67.4099 43.4291 67.3528 43.549C67.2957 43.6689 67.2066 43.7707 67.0953 43.8432C66.7556 43.7056 63.5753 43.9808 63.5753 43.9808C63.5753 43.9808 62.0948 43.7216 61.6335 41.7637C61.3103 40.4608 61.8761 38.665 61.69 37.4837C61.4068 35.744 61.0105 35.4037 60.97 34.8624C60.9295 34.321 60.8889 34.1829 60.8889 33.8432C60.7108 33.8026 60.6057 33.7461 60.4281 33.7461C60.3876 33.5861 60.4681 33.4464 60.2905 33.1632C60.3876 33.2037 61.0511 33.2848 61.8276 34.0208C62.4676 34.6197 62.4676 34.8378 62.5641 34.9594C62.6852 35.0805 63.6644 35.9194 64.0852 36.7557C64.506 37.592 65.3231 40.2586 65.5092 40.6954C65.5657 40.8736 65.6873 41.0517 65.9892 41.456C66.4585 42.0389 67.146 43.0026 67.9225 43.1626L67.9204 43.1637Z" fill="#B58634"/>
<path fill-rule="evenodd" clip-rule="evenodd" d="M62.6782 35.0001C63.1683 35.7919 63.6087 36.6134 63.9966 37.4599C64.474 38.5356 64.7572 39.4177 65.3561 40.1377C65.0324 39.1996 64.458 37.3548 64.1182 36.6993C63.738 36.006 62.9614 35.2593 62.6782 35.0007V35.0001Z" fill="#A88F33"/>
<path fill-rule="evenodd" clip-rule="evenodd" d="M57.1765 48.3014C57.1765 48.3014 56.3594 48.5035 54.8384 49.3046C54.3365 49.5633 53.8597 49.7814 53.3984 49.9841C52.2 50.5259 50.9146 51.0267 49.8949 51.303C49.976 51.4001 50.016 51.4401 50.016 51.4401C50.016 51.4401 50.016 51.8369 50.2346 52.063C50.1136 52.1846 48.4949 53.2849 48.9728 56.9659C49.296 56.8449 49.6762 56.6827 49.7328 56.6827C49.8304 56.6993 49.8544 56.9659 49.9754 56.9659C50.0965 56.9659 50.4933 56.8059 50.9141 56.2619C50.8981 56.4806 50.6554 58.6811 51.9578 60.1617C52.2005 59.8785 52.8154 58.9398 52.8154 58.9398L52.8314 58.6406C52.8314 58.6406 52.888 57.5969 53.2282 56.6422C53.5685 55.6875 54.2314 54.9835 54.2314 54.9835L57.6933 50.0401L57.1754 48.3009L57.1765 48.3014Z" fill="#E6C367"/>
<path fill-rule="evenodd" clip-rule="evenodd" d="M53.9402 55.56C53.7817 55.672 53.6071 55.7592 53.4223 55.8186C53.3658 55.6165 53.2847 54.9205 53.762 54.241C54.3204 53.4234 55.5418 52.3637 55.8815 51.521C56.1002 50.9786 56.0031 49.6197 57.945 47.88C59.8868 46.1402 60.6468 45.5418 60.6468 45.5418L63.786 43.9642L67.6452 45.4853L65.7279 53L64.2394 56.52L58.3194 55.4037L53.9396 55.56H53.9402Z" fill="#DCBA5A"/>
<path fill-rule="evenodd" clip-rule="evenodd" d="M56.2002 53.5195L56.9367 52.5973V51.9419C56.9367 51.9419 57.7538 51.7232 58.6354 50.8251C59.517 49.9269 60.7389 48.2037 61.8151 48.3088C62.8914 48.4304 62.9965 50.6469 63.037 51.2704C63.0775 51.8939 63.2151 53.3088 63.4333 54.0699C63.6759 54.8304 60.8119 57.7104 60.8119 57.7104L58.8669 59.1909L56.2002 53.5195Z" fill="#E9CE77"/>
<path fill-rule="evenodd" clip-rule="evenodd" d="M58.479 61.1973C58.479 61.1973 59.0779 60.2587 58.639 60.0565C58.8977 59.4741 59.375 58.8592 59.375 58.8592C59.375 58.8592 59.7147 58.0181 60.815 56.9824C61.9153 55.9467 62.5953 55.2587 62.7734 54.5632C62.8832 54.11 62.943 53.646 62.9515 53.1797C63.0705 53.2769 63.1977 53.3635 63.3318 53.4384C63.5099 53.5195 64.351 54.2149 64.2299 55.6149C64.1089 57.0149 63.5899 57.5973 63.5899 57.5973C63.5899 57.5973 63.0886 58.0987 62.7329 58.3579C62.3521 58.6165 62.215 58.9157 61.5755 58.9403C61.6413 58.888 61.7151 58.8469 61.7942 58.8187C61.7942 58.8187 61.1307 58.7381 60.7745 59.0613C60.4182 59.3845 59.6609 60.3803 59.2806 60.68C58.9003 60.9227 58.4806 61.1979 58.4806 61.1979L58.479 61.1973Z" fill="#CDAE50"/>
<path fill-rule="evenodd" clip-rule="evenodd" d="M85.3801 45.4609C84.4242 45.1125 83.4197 44.916 82.403 44.8785C80.7038 44.822 78.2201 44.919 75.7849 44.935C73.1635 44.951 70.7849 44.0369 67.4841 43.8753C66.9422 43.5516 65.5641 42.1356 61.2622 45.1372C61.5209 45.1212 64.3854 44.4737 65.3801 45.7201C66.3833 46.958 66.1001 49.0614 65.963 49.5628C65.7038 50.6796 64.8622 52.3057 64.523 53.4465C64.1838 54.5873 64.2638 55.1868 64.0211 55.9868C63.7785 56.7868 63.2446 57.1841 63.5598 58.1062C63.9806 57.8476 64.1998 57.8476 64.9027 56.27C65.6057 54.6924 65.4611 53.5676 66.6265 52.2326C67.7673 50.8897 69.6665 49.0529 70.3886 48.5916C71.1107 48.1302 76.8446 45.1532 82.8483 47.9932C84.2963 47.8396 85.3806 45.4604 85.3806 45.4604L85.3801 45.4609Z" fill="#D2A83E"/>
<path fill-rule="evenodd" clip-rule="evenodd" d="M63.681 44.3601C63.675 44.2993 63.6616 44.2395 63.641 44.182C63.5848 44.0636 63.5111 43.9545 63.4223 43.8582C63.4223 43.8582 61.9983 43.5996 61.2783 43.6801C60.0159 43.8177 58.8751 45.3793 58.3412 46.1804C57.8074 46.9814 57.1439 48.2188 56.4239 48.8582C56.4318 48.7959 56.4174 48.7328 56.3834 48.6801C56.3834 48.6801 56.4239 48.7366 56.3434 48.8177C56.2628 48.8988 56.2623 48.9388 56.3028 48.9777L56.4244 49.0988C56.4644 49.0988 57.5812 48.5969 59.1023 47.1788C60.7204 45.6982 61.9583 44.9388 62.6058 44.6785C62.9511 44.5318 63.312 44.4249 63.6815 44.3601V44.3601H63.681Z" fill="#C29637"/>
<path fill-rule="evenodd" clip-rule="evenodd" d="M91.3028 38.2767C91.3028 38.2767 91.0436 38.5999 90.7198 38.9562C89.9998 39.7167 89.0612 40.5738 88.2601 41.4559C87.5001 42.2975 86.6425 42.953 85.6793 44.0533C84.7161 45.1535 83.5993 46.3749 83.3166 46.7311C83.058 47.0874 82.8558 47.6698 82.8558 47.969C82.7182 47.8719 82.5566 47.7669 82.5566 47.7669C82.6247 47.8939 82.706 48.0133 82.7993 48.1231C83.0014 48.4063 83.3166 48.7631 83.4788 48.9807C83.6777 49.2577 83.8205 49.571 83.899 49.9029C83.9961 49.9189 84.619 50.0405 85.3961 48.7621C86.1732 47.4837 87.1918 46.0842 87.1918 46.0842L88.81 43.681L89.8297 41.6426L91.1097 39.361L91.3044 38.2767H91.3028Z" fill="#AC8132"/>
<path fill-rule="evenodd" clip-rule="evenodd" d="M92.9617 36.6428C92.9617 36.6428 91.9825 37.4428 91.6023 37.9228C91.222 38.4028 90.3223 39.6625 90.3223 39.6625L90.646 39.622L92.2887 38.166L92.9287 37.0252L92.9612 36.6449L92.9617 36.6428Z" fill="#A88F33"/>
<path fill-rule="evenodd" clip-rule="evenodd" d="M92.662 100.939C92.662 100.939 92.646 100.275 93.0182 99.8789C93.3985 99.4821 94.3612 98.8998 95.2998 96.7152C96.2385 94.5307 96.3431 94.0373 96.3431 94.0373C96.3431 94.0373 94.6604 95.4773 93.6231 95.8171C93.8657 95.3152 94.0033 94.9595 94.1249 94.7003C93.9873 94.5792 93.4049 94.4416 93.3484 94.3771C93.6716 94.0533 93.8497 93.2603 94.5052 92.7344C95.3468 92.0944 96.8838 90.9947 98.0785 90.0144C99.2732 89.0342 101.622 86.7541 101.922 86.0907C102.1 86.3493 102.14 86.5109 102.14 86.5109C102.14 86.5109 100.959 88.0486 100.344 89.0272C99.8017 89.8688 99.8423 90.3462 99.8423 90.3462L100.959 89.8662C100.959 89.8662 101.282 91.0635 99.8182 92.8843C100.458 92.6416 100.716 92.7872 101.08 92.5845C100.481 92.9653 99.6561 93.4832 98.8796 94.9067C98.119 96.3307 97.0833 97.9893 95.3361 99.0245C93.6369 100.117 92.6577 100.934 92.6577 100.934L92.662 100.939Z" fill="#A67A2E"/>
<path fill-rule="evenodd" clip-rule="evenodd" d="M88.2766 46.3029C88.2766 46.3029 87.6131 47.6859 87.5161 48.7621C87.5001 49.0213 87.435 49.2235 87.435 49.5227C87.419 50.4853 87.4915 51.5616 87.275 52.0629C87.1939 51.8608 87.1534 51.7232 87.0723 51.6427C86.9513 51.9824 86.7326 53.0421 86.5545 53.4384C86.4739 53.1797 86.2958 52.2816 86.3123 51.2219C86.3289 50.1621 86.3523 49.9595 86.3523 49.7413C86.3123 50.0645 86.0937 50.5019 86.0126 50.7605C85.8915 50.5424 85.7539 50.2592 85.5918 50.0245C85.4947 50.1845 85.3737 50.4208 85.2686 50.5424C85.2521 50.4453 85.2121 50.1861 85.1875 49.8224C85.1715 49.4016 85.147 48.8597 85.1715 48.7461C85.2115 48.528 85.5518 47.6704 86.2718 46.8853C87.1294 45.9467 88.0115 44.1429 88.2702 43.5845C88.5288 43.0261 89.6291 40.7045 89.6291 40.7045H90.4707L89.2489 43.4875C89.2489 43.4875 88.5129 45.0085 88.1326 45.5675C87.7523 46.1264 86.9513 47.728 86.595 48.3509C86.8537 48.0112 87.0723 47.8331 87.3315 47.5093C87.5822 47.2827 88.2776 46.304 88.2776 46.304L88.2766 46.3029Z" fill="#8C6228"/>
<path fill-rule="evenodd" clip-rule="evenodd" d="M92.9776 36.537C92.8402 36.9601 92.6229 37.353 92.3376 37.6944C91.8358 38.2933 90.7595 39.0938 90.2342 39.7328C89.7542 40.3557 88.7942 42.0549 89.2305 44.0693C89.3905 43.6325 89.6918 42.7669 90.4929 41.7877C91.2939 40.8085 92.1515 39.6842 92.5728 38.8106C92.9931 37.9285 93.0497 37.233 93.0497 37.233L93.2097 37.0309L93.1126 36.5696L92.975 36.537H92.9776Z" fill="#CBA94C"/>
<path fill-rule="evenodd" clip-rule="evenodd" d="M109.361 90.202C109.361 90.202 109.037 89.3204 108.94 88.5194C108.843 87.7183 109.1 87.5594 108.803 86.6426C108.624 86.0842 108.301 86.1626 108.22 86.0842C108.139 86.0058 108.083 85.162 108.099 84.7007C108.115 84.2394 108.083 83.641 108.002 83.3818C107.88 83.2847 107.799 83.2036 107.621 82.6052C107.419 82.0063 107.322 81.7071 107.225 81.5295C107.128 81.3519 106.844 81.1898 106.844 81.0116C106.844 80.6554 107.168 80.4698 107.168 80.3716C107.152 80.1695 106.909 80.3316 106.844 80.2746C106.764 80.1775 107.047 79.5951 106.942 79.514C106.901 79.474 106.618 79.8138 106.545 79.7167C106.464 79.6191 106.367 78.6564 106.221 78.0175C106.084 77.3946 105.938 76.9418 105.922 76.7556C105.906 76.5775 104.805 73.4383 104.539 72.6778C104.324 72.0351 104.143 71.3816 103.997 70.7199C103.916 70.3396 103.859 69.5626 103.819 69.6436C103.778 69.7247 103.803 70.121 103.738 70.105C103.681 70.0884 103.479 68.7055 103.414 68.4868C103.358 68.2682 103.018 67.5268 102.934 66.9903C102.853 66.4479 102.676 65.0319 102.554 64.0692C102.432 63.1066 102.376 62.7103 102.376 62.4692C102.396 61.8796 102.363 61.2894 102.279 60.7055C102.119 59.6858 101.799 58.4479 101.518 57.7284C100.976 56.369 99.5359 52.89 99.2783 52.0244C99.2783 51.8058 99.5615 51.9274 99.5615 51.9274C99.5615 51.9274 100.265 53.6911 100.783 55.05C101.285 56.4095 101.762 57.6068 101.884 57.7284C101.981 57.8495 102.741 59.1844 103.081 61.369C103.421 63.5535 103.542 65.5679 103.744 66.9108C103.842 67.5508 103.923 68.2298 104.125 68.9092C104.343 69.6458 104.683 70.4063 105.128 71.5711C105.508 72.5503 105.791 73.3674 105.945 74.0714C106.123 74.9695 106.123 75.649 106.228 76.0943C106.326 76.4746 106.471 77.2346 106.811 78.3343C107.151 79.434 107.652 80.8506 107.992 81.7322C108.656 83.4959 108.952 84.9684 109.052 85.7535C109.141 86.5626 109.44 89.362 109.359 90.2031L109.361 90.202Z" fill="#A88F33"/>
<path fill-rule="evenodd" clip-rule="evenodd" d="M93.0183 36.44L92.9778 36.5371C92.9778 36.5371 93.0989 36.5776 93.0749 36.7398C93.0766 36.9616 93.063 37.1833 93.0343 37.4032C92.9943 37.6864 92.9133 37.9046 92.8973 38.0827C92.8973 38.463 92.9538 38.8998 92.4173 39.984C92.2573 40.2832 92.1586 40.5419 92.0775 40.72C91.8754 41.1568 91.8349 41.2219 91.6567 41.424C91.9399 41.264 92.9597 40.624 93.477 40.72C93.1213 40.9222 92.5789 41.319 92.2391 41.8368C92.3202 41.8528 92.6599 41.9179 93.1991 41.8368C94.0973 41.6992 95.1005 41.3755 95.9821 41.44C96.9453 41.4966 96.565 40.2832 96.565 40.2832L95.4535 37.84L93.3501 36.36L93.0183 36.4406V36.44Z" fill="#BE9C44"/>
<path fill-rule="evenodd" clip-rule="evenodd" d="M98.5032 54.7414C98.5032 54.7414 97.5645 53.8027 97.1843 50.5814C96.804 47.3451 96.8851 42.5814 96.8851 42.5814L96.1245 40.7206C96.1245 40.7206 95.9645 39.4827 95.5661 39.0219C95.1677 38.5611 94.3853 37.784 94.0291 37.4038C93.6728 37.0235 93.2685 36.5056 93.0259 36.4246C93.1469 36.2224 93.6893 35.0816 95.7683 35.0656C97.8472 35.0496 98.4883 36.2064 98.7053 36.6272C98.9224 37.048 99.9027 38.8672 100.266 42.3339C100.606 45.7963 100.623 46.0555 100.566 47.2528C100.526 47.9163 100.307 49.4534 99.9261 51.0955C99.5784 52.4875 99.1982 54.0411 98.5022 54.7446L98.5032 54.7414Z" fill="#A17C34"/>
<path fill-rule="evenodd" clip-rule="evenodd" d="M95.5601 57.5003C95.8729 57.5228 96.1854 57.4523 96.4582 57.2976C96.7574 57.2816 97.8417 57.4192 98.6747 56.3595C98.7313 56.6016 98.8774 57.2576 98.4966 57.84C98.6993 57.6373 98.9985 57.5568 99.039 57.5003C99.055 57.7995 99.3382 58.7216 98.1409 60.9627C98.4641 60.6069 98.8443 60.6229 99.1841 60.5824C99.2006 61.0032 99.4268 62.4187 98.8283 63.1797C98.4321 63.6976 97.7846 63.5355 97.7846 63.5355C97.7941 63.4224 97.7941 63.3088 97.7846 63.1957C97.7686 62.9771 97.6875 62.7589 97.7446 62.6133C97.4318 62.4704 97.1468 62.273 96.903 62.0304C96.199 61.3669 95.2849 60.2347 95.2203 59.3931C95.1393 58.4544 95.9809 58.2523 95.9809 58.2523C95.9104 58.1892 95.8503 58.1154 95.8027 58.0336C95.7622 57.8965 95.7217 57.6779 95.5601 57.5003V57.5003Z" fill="#8C6228"/>
<path fill-rule="evenodd" clip-rule="evenodd" d="M89.3202 47.3222C89.3202 47.3222 89.2797 47.2656 89.0615 47.5243C89.1021 47.2656 89.1426 47.0224 89.1586 46.7878C89.2618 46.5705 89.3954 46.369 89.5554 46.1894C89.4338 46.4315 89.3527 46.6502 89.3527 46.6502C89.3527 46.6502 89.6525 46.0918 90.0893 45.7521C90.3885 45.5094 90.7687 45.3963 90.9303 45.1696C91.1085 44.927 91.0679 44.8864 91.1085 44.8459C91.1085 44.8459 91.5053 44.5872 92.1122 43.8262C92.1927 43.7291 92.3143 43.624 92.3954 43.527C92.5325 43.4704 92.8562 43.3248 93.2365 43.1302C93.6333 42.912 94.0781 42.6128 94.3533 42.4902C94.8951 42.2475 95.4701 42.272 95.7367 41.8912C95.9389 41.8347 96.157 41.2278 96.117 40.7104C96.4162 40.8315 97.9533 41.7862 98.4797 43.8736C98.8599 45.3542 98.1799 47.6358 97.8967 48.7366C97.6135 49.8374 97.5735 50.6539 97.1767 51.1553C96.6749 51.8193 95.0573 52.7553 94.6605 53.2187C94.3207 53.599 93.3015 54.5617 93.3415 55.2571C93.3821 55.775 94.021 56.0571 94.1591 56.1553C94.2973 56.2534 94.2962 56.3739 94.5554 56.3153C94.8146 56.2566 94.9111 56.1371 95.0167 56.1371C95.1378 56.1531 95.1378 56.1777 95.1943 56.1777C95.2353 56.1764 95.2761 56.1709 95.3159 56.1611C95.3159 56.1611 95.2754 56.8977 93.5522 57.1211C93.4306 57.1377 93.3095 57.1777 93.1554 57.2022C93.3581 57.1051 93.4791 57.1051 93.6978 56.8059C93.4551 56.7654 92.7591 56.7249 92.581 56.6683C92.6375 56.5713 92.8237 56.3121 92.9773 56.191C93.1149 56.0699 92.9613 56.031 92.8402 56.0939C92.6317 56.2357 92.4318 56.3896 92.2413 56.5547C92.0391 56.7329 91.861 56.9755 91.5373 57.1947C91.4402 56.871 91.4562 56.2561 91.837 55.8113C91.7394 55.8273 91.5533 56.1105 91.3757 56.0539C91.3435 55.7588 91.3627 55.4604 91.4322 55.1718C91.5293 54.8075 92.0551 54.1686 92.0551 54.1686L94.5954 49.6294L95.1373 46.191L89.3202 47.3211V47.3222Z" fill="#92723A"/>
<path fill-rule="evenodd" clip-rule="evenodd" d="M89.1832 47.5162C89.1832 47.5162 89.0456 47.6132 89.3208 47.7994C89.2802 47.8559 89.1832 48.058 89.0616 48.1956C88.9245 48.3556 88.7784 48.4548 88.7218 48.5924C88.6008 48.8756 88.5037 49.0698 88.5037 49.1914C88.5037 49.313 88.4632 50.0895 88.1234 50.5908C88.0018 50.769 87.8642 51.0682 87.7672 51.2703C87.565 51.626 87.3869 51.9103 87.3464 52.0703C87.2658 52.3535 87.2093 53.13 87.2093 53.13C87.2093 53.13 87.3874 52.9114 87.452 52.8308C87.3544 53.033 87.2493 53.2511 87.0957 53.4132C87.1928 53.3322 87.476 53.13 87.9533 52.7092C88.6168 52.1514 89.6525 51.2127 90.9149 50.4692C90.5341 50.6068 90.2109 50.6068 89.9522 50.6474C90.1544 50.4452 91.9746 48.3092 92.9293 48.1071C92.9873 48.0336 93.0161 47.9413 93.0104 47.8479L92.1928 47.7674L90.5341 48.1231L90.292 46.8431L89.1832 47.5146V47.5162Z" fill="#B18E3E"/>
<path fill-rule="evenodd" clip-rule="evenodd" d="M91.821 54.798C91.821 54.798 91.6023 55.0161 91.4002 55.5585C91.2446 55.396 91.1111 55.2136 91.0034 55.0161C90.7042 54.5148 90.2434 53.8753 89.1671 54.2396C89.1511 53.8998 89.1266 53.7217 89.1671 53.479C89.3453 53.439 89.8871 53.0022 90.429 52.3628C90.8098 51.926 91.1655 51.4241 91.4082 50.7852C91.5682 50.6636 91.845 50.4614 92.2082 50.2268C92.7261 49.871 93.349 49.3852 93.4461 48.8433C93.2034 48.9404 92.6855 49.183 91.9085 49.143C92.2082 49.0054 92.669 48.8598 92.6125 48.2609C92.7341 48.1798 92.8311 48.1233 92.8311 48.1233C92.7399 48.0929 92.644 48.0792 92.5479 48.0828C92.5314 48.0262 92.5074 47.9457 92.3698 47.9857C92.2322 48.0257 92.2098 48.0262 92.1917 48.0828C92.1351 48.0993 91.949 48.0828 91.8114 48.1804C91.6738 48.278 91.2935 48.6006 91.1479 48.6572C91.2045 48.5601 91.285 48.415 91.285 48.415C91.285 48.415 90.8887 48.455 90.6055 48.575C90.0877 48.7532 89.4893 49.0769 88.8823 49.3921C88.9389 49.295 88.9634 49.2321 89.0034 49.214C89.0434 49.1958 89.141 49.174 89.141 49.1574C89.141 49.1409 89.101 48.9974 89.125 48.9393C89.3064 48.5549 89.5205 48.1868 89.765 47.839C90.0482 47.4582 90.1047 46.9164 90.1047 46.9164L91.3426 46.2934L94.8215 45.4934L97.0791 45.631L96.7959 47.1926L95.4626 49.919L94.3218 52.4028L93.0189 53.9244L91.8215 54.798H91.821Z" fill="#543E26"/>
<path fill-rule="evenodd" clip-rule="evenodd" d="M97.4597 48.0399C97.4597 48.0399 96.1002 49.7226 95.72 49.9818C95.9626 49.4639 97.4597 46.3813 98.0016 45.5237C97.8805 45.4266 97.7184 45.4266 98.0986 43.9237C97.7754 44.6837 97.6619 45.0805 97.3952 45.2826C97.1285 45.4847 97.0955 45.4202 96.9152 45.4202C96.9492 45.3586 96.9632 45.288 96.9552 45.2181C96.9552 45.2181 95.8144 45.0805 95.0352 45.0805C94.256 45.0805 92.7136 45.5013 91.8554 45.841C91.176 46.1242 90.7957 46.1242 90.553 46.3018C90.3104 46.5039 90.1728 46.7226 90.0512 46.7791C89.9541 46.8357 89.4933 46.9813 89.3877 47.1349C89.2906 47.2949 89.129 47.4746 89.129 47.5151C89.129 47.5557 89.0885 47.6127 89.2101 47.5717C89.2501 47.5557 89.5498 47.3935 89.8896 47.1914C90.3504 46.9327 90.9088 46.6335 91.3136 46.4554C92.4704 45.9941 92.8346 46.0751 93.352 45.9781C93.8938 45.881 94.6709 45.6543 95.1882 45.6543C95.7061 45.6383 96.6853 45.6543 96.912 45.6949C96.8149 45.7759 96.7339 45.873 96.7744 46.2127C96.7744 46.3098 96.6933 46.4149 96.6144 46.6495C96.3723 47.313 95.9109 48.4133 95.6544 48.9717C95.2986 49.7317 94.8944 50.3711 94.6944 50.7674C94.4944 51.1637 94.0544 52.2074 93.6186 52.7658C93.1829 53.3242 92.9552 53.6639 92.8186 53.7855C92.6821 53.9071 91.7018 54.6266 91.7749 54.8858C91.953 54.8293 93.0778 54.4058 93.8944 53.4863C94.7109 52.5669 94.8736 52.0058 95.5125 51.5039C96.1514 51.0021 96.6533 50.161 96.9525 49.4655C97.2032 48.8181 97.1467 48.6159 97.4619 48.0415L97.4597 48.0399Z" fill="#806031"/>
<path fill-rule="evenodd" clip-rule="evenodd" d="M68.164 60.5989C68.164 60.5989 67.9859 61.3349 67.5811 61.6992C67.1848 62.0554 66.4808 62.3626 66.4002 62.9616C66.3032 63.56 67.1043 63.8597 67.1043 63.8597C67.1043 63.8597 66.6669 64.5797 66.6669 65.1216C66.6669 65.68 66.6509 65.785 66.7074 66.3189C66.6433 66.3602 66.5887 66.4147 66.5474 66.4789C66.5474 66.4789 66.5874 66.9968 66.9843 67.32C67.3811 67.6432 67.7202 67.8378 67.9224 67.7568C67.9532 67.8227 67.9803 67.8904 68.0035 67.9594C68.0035 67.9594 68.3032 67.1989 68.5053 66.5354C68.7074 65.856 68.8856 65.9525 68.9661 65.0384C69.0467 64.1242 69.9261 62.5546 69.9261 62.5546L70.5261 61.2133L69.5475 60.4528L68.164 60.5984V60.5989Z" fill="#B6903C"/>
<path fill-rule="evenodd" clip-rule="evenodd" d="M69.9838 61.9172C69.782 62.1244 69.5957 62.3461 69.4265 62.5807C69.1678 62.9369 68.9657 63.2601 68.5854 63.3983C68.2052 63.5364 67.9625 63.5353 67.9865 63.9161C68.0105 64.2969 68.3668 64.458 68.5689 64.6521C68.7876 64.8543 68.9657 65.194 68.8686 65.5748C68.9897 65.5183 69.2084 65.4532 69.4105 65.0164C69.6126 64.5796 71.0265 61.9177 71.0265 61.9177H69.9838V61.9172Z" fill="#685026"/>
<path fill-rule="evenodd" clip-rule="evenodd" d="M75.5597 55.7765C75.5597 55.7765 75.6808 55.4533 75.5597 55.2186C75.4381 54.9759 74.7021 54.8949 74.3378 54.6197C73.9576 54.3365 73.4962 54.1397 73.116 54.2639C73.1725 54.1263 73.3992 53.8266 73.213 53.7621C73.0349 53.7055 72.372 54.0047 72.1938 54.1423C72.0157 54.2799 71.6109 54.4415 71.5304 54.5391C71.4498 54.6367 71.3117 54.8223 71.2306 54.7413C71.1496 54.6847 71.1096 54.5391 70.972 54.6197C70.8344 54.7002 70.172 55.2426 70.0498 55.5583C69.9277 55.8741 69.653 56.5781 68.828 57.3786C68.0029 58.1791 67.6466 58.6975 67.8893 58.9967C68.132 59.2959 68.2456 59.0778 68.2861 59.3365C68.3173 59.5904 68.3036 59.8478 68.2456 60.097C68.1485 60.5178 67.9869 60.9141 68.205 60.9951C68.7634 61.1733 69.3058 60.8351 69.4269 60.9386C69.6696 61.1567 69.2893 61.9418 69.8637 62.0954C70.4466 62.2554 71.021 61.9578 71.021 61.9578L73.1405 60.817L75.1794 59.7413L76.2226 57.6778L75.6632 55.9546L75.5565 55.7765H75.5597Z" fill="#D4B968"/>
<path fill-rule="evenodd" clip-rule="evenodd" d="M73.5601 60.7041C73.5601 60.7041 73.2039 60.1622 73.6412 59.6843C74.0785 59.2065 74.7009 59.0049 74.9436 58.7057C74.8974 58.6487 74.8355 58.6066 74.7655 58.5846C74.9266 58.2963 75.1723 58.0646 75.4695 57.9206C75.3484 57.7995 75.1863 57.7025 75.0087 57.7025C74.6119 57.7025 74.3687 57.9451 74.0049 57.9451C73.6492 57.9451 73.6087 57.767 73.6087 57.767C73.6087 57.767 74.2076 57.7105 74.1505 57.4433C74.094 57.1601 73.9905 57.1601 73.9905 57.1601C73.9905 57.1601 75.1473 56.6801 75.3495 56.4241C75.5516 56.1681 75.5276 55.8657 75.5681 55.7446C75.7052 55.7446 76.5063 55.3238 76.83 55.5019C77.1537 55.6801 76.9271 56.1654 76.9271 56.1654C76.9271 56.1654 77.9068 55.4289 78.406 54.7067C78.8428 54.7473 79.046 54.4075 79.366 54.4075C79.7628 54.4075 80.3857 54.9494 80.5068 56.1062C80.5879 56.7697 80.7089 57.1499 80.5879 58.3233C80.5313 58.9867 80.5473 60.4033 80.7479 61.1062C80.8849 61.6646 81.2087 61.6081 81.2087 61.6081C81.159 61.7782 81.0605 61.9301 80.9255 62.0449C80.7068 62.247 80.6828 62.7814 80.7068 62.9835C80.7391 63.1313 80.7797 63.2771 80.8284 63.4203C80.8284 63.4203 80.5697 63.7195 80.5047 63.9222C80.4481 64.1243 80.1815 64.2619 79.9868 64.2619C79.7921 64.2619 79.8897 64.2454 79.6311 64.2619C79.3724 64.2785 79.2913 64.3185 79.1292 64.2619C78.9671 64.2054 78.846 64.1403 78.9111 63.6219C78.9676 63.1041 76.9127 61.8987 76.9127 61.8987L73.5527 60.7014L73.5601 60.7041Z" fill="#CCA849"/>
<path fill-rule="evenodd" clip-rule="evenodd" d="M69.7009 65.8171C69.7009 65.8171 70.4369 66.7963 73.463 66.7963C74.903 66.7963 75.4049 66.6587 75.703 66.5776C76.0268 66.4966 77.2401 66.0198 78.462 64.5792C79.5622 63.2768 79.3196 62.743 79.3196 62.743L78.6796 62.6459L76.5996 62.9291L70.4449 65.5504L69.6982 65.8171H69.7009Z" fill="#585136"/>
<path fill-rule="evenodd" clip-rule="evenodd" d="M71.9578 66.0597C71.9578 66.0597 69.3364 66.6426 69.3364 64.9839C69.3364 63.3658 70.9546 61.6666 71.3594 61.3674C71.7802 61.0677 72.7834 60.7274 72.7834 60.7274H75.2026L75.6634 61.9493L75.4612 64.5866L71.9578 66.0591V66.0597Z" fill="#252211"/>
<path fill-rule="evenodd" clip-rule="evenodd" d="M74.3774 61.2219C74.3774 61.2219 73.8761 60.7606 72.7353 61.3819C71.5945 62.0033 70.6718 63.302 70.6153 64.4812C70.5587 65.5244 71.4729 66.3014 72.8969 66.342C73.9566 66.382 74.5961 66.2609 74.9198 66.182C74.8387 66.0849 74.4179 65.559 74.4179 65.559L74.3779 61.2225L74.3774 61.2219Z" fill="#C3B378"/>
<path fill-rule="evenodd" clip-rule="evenodd" d="M73.8838 61.48C73.8838 61.48 73.7627 61.3829 73.4038 61.577C73.1046 61.737 72.6678 62.16 72.328 62.4592C72.1094 62.6373 71.9718 62.7178 71.848 62.8554C71.3462 63.4544 70.9254 64.4336 71.1686 64.9189C71.4118 65.4042 72.2123 65.9626 74.2512 65.5824L73.8779 61.4805L73.8838 61.48Z" fill="#E6D89C"/>
<path fill-rule="evenodd" clip-rule="evenodd" d="M73.2203 62.4837C73.2203 62.4837 72.8966 62.9856 72.8966 63.7867C72.8966 64.6037 73.3579 65.9061 75.0571 66.0032C76.3595 66.0843 77.2331 64.1264 78.1798 63.3659C78.8998 62.7835 79.3366 62.7669 79.3366 62.7669C79.3366 62.7669 78.6006 61.9669 76.6347 60.9307C74.6928 59.8869 72.5163 59.7493 71.335 61.3515C71.8934 61.3109 73.6976 60.8496 73.6976 60.8496L74.5798 61.1328L73.2203 62.4843V62.4837Z" fill="#252211"/>
<path fill-rule="evenodd" clip-rule="evenodd" d="M75.7608 63.5435C75.7042 63.4225 75.6637 63.2603 75.8984 63.2203C76.133 63.1803 76.2381 63.2038 76.3192 63.3803C76.4002 63.5569 76.4792 63.7041 76.3592 63.7771C76.2381 63.8417 75.9224 63.7771 75.7602 63.5425L75.7608 63.5435ZM75.3805 62.4027C75.3805 62.4027 75.2994 62.4593 75.34 62.3462C75.356 62.2091 75.4616 61.9659 75.7202 62.023C75.9789 62.0801 75.9229 62.3627 75.8802 62.4438C75.8376 62.5249 75.6216 62.6619 75.4594 62.6038C75.4389 62.5985 75.4198 62.5885 75.4039 62.5745C75.3879 62.5605 75.3755 62.543 75.3676 62.5233C75.3597 62.5036 75.3566 62.4823 75.3584 62.4612C75.3603 62.4401 75.3671 62.4197 75.3784 62.4017L75.3805 62.4027Z" fill="#6F674D"/>
<path fill-rule="evenodd" clip-rule="evenodd" d="M53.48 62.92C53.48 62.92 54.12 63.4 54.8634 63.3813C55.5994 63.3648 56.5461 62.6048 56.9829 62.1189C57.2416 61.8357 57.4629 61.5365 57.7029 61.3019C57.9056 61.0997 58.0426 61.0027 58.1397 60.8651C58.2773 60.7051 58.4229 60.4043 58.496 60.3067C58.3178 60.4443 58.0592 60.6875 57.792 60.8491C57.5333 61.0091 56.9749 61.3099 56.7482 61.3909C56.5301 61.472 54.2645 62.6709 54.2645 62.6709L53.48 62.92Z" fill="#AC924C"/>
<path fill-rule="evenodd" clip-rule="evenodd" d="M54.458 56.9418C54.458 56.9418 54.8137 56.6991 55.5017 56.545C56.1652 56.385 57.5001 56.2618 57.5001 56.2618L58.6004 56.7418L59.0372 58.4005L58.2372 60.1242L57.218 60.7642L56.0607 58.9034L54.4607 56.945L54.458 56.9418Z" fill="#9F8E57"/>
<path fill-rule="evenodd" clip-rule="evenodd" d="M53.018 58.4223L52.6372 58.7066C52.6372 58.7066 52.7348 58.5284 52.8153 57.9866C52.8959 57.4447 53.3172 56.1258 53.9321 55.3652C54.5471 54.6047 54.5311 54.6452 54.5311 54.6452C54.4745 54.6349 54.4163 54.6367 54.3605 54.6506C54.3047 54.6645 54.2525 54.6901 54.2073 54.7258C54.2884 54.5466 54.8063 53.9066 55.3241 53.5866C55.842 53.2666 56.0441 53.1658 56.586 53.4266C57.1279 53.6874 57.2655 53.8228 57.6623 53.8068C58.0591 53.7908 58.3983 53.37 58.3983 53.37C58.3983 53.37 58.4793 53.6287 58.1801 54.2276C57.8809 54.8266 56.6996 56.0479 56.6996 56.0479L54.2399 57.7306L53.018 58.4239V58.4223Z" fill="#EAC970"/>
<path fill-rule="evenodd" clip-rule="evenodd" d="M54.8376 56.7398C54.8376 56.7398 56.6178 56.9824 57.1597 56.4811C57.1757 56.5376 57.2408 56.5376 57.2408 56.5782C57.2364 56.6087 57.2222 56.637 57.2002 56.6587C57.2592 56.6493 57.3187 56.6439 57.3784 56.6427C57.4496 56.6639 57.5229 56.6775 57.597 56.6832C57.6567 56.6819 57.7163 56.6764 57.7752 56.6667C57.7696 56.7069 57.7559 56.7456 57.735 56.7804C57.7141 56.8152 57.6864 56.8455 57.6536 56.8694C57.7346 56.8694 57.8136 56.8854 57.8136 56.9499C57.8136 57.0144 57.8296 57.2091 57.7325 57.2496C57.6521 57.2719 57.5665 57.266 57.4898 57.2331C57.4963 57.3863 57.5379 57.5359 57.6114 57.6704C57.7714 57.9696 58.1128 58.3104 58.5714 58.2123C58.5714 58.2123 58.8136 58.7947 57.7944 60.0891C57.6573 60.2672 57.5112 60.5099 57.3336 60.712C57.2634 60.865 57.2098 61.025 57.1736 61.1894C57.1736 61.1894 58.8973 60.5259 59.3906 59.0128C59.8925 57.4918 59.9896 55.9952 59.8925 54.5958C59.876 54.199 59.8114 53.9163 59.7144 53.7136C59.4717 53.2118 58.7917 53.2928 58.517 53.576C58.1202 53.9728 57.4568 54.9595 56.5347 55.639C55.596 56.3184 55.556 56.439 54.8354 56.7398H54.8376Z" fill="#D7BC6B"/>
<path fill-rule="evenodd" clip-rule="evenodd" d="M52.7023 58.9244C52.7023 58.9244 52.3626 59.1265 52.1845 59.8844C52.0063 60.6609 52.3445 61.6076 52.5402 61.9068C52.736 62.206 53.1802 63.0236 54.1018 63.0641C54.3299 63.0629 54.5555 63.0161 54.7653 62.9265C55.087 62.779 55.3888 62.5914 55.6634 62.3681C56.0602 62.0689 56.3834 61.8103 56.3429 61.7857C56.2458 61.7452 53.8997 59.8033 53.8997 59.8033L53.0176 58.8188L52.7018 58.9255L52.7023 58.9244Z" fill="#585136"/>
<path fill-rule="evenodd" clip-rule="evenodd" d="M54.9201 62.1439C54.9201 62.1439 55.3974 62.1039 55.6806 61.9258C55.9638 61.7477 54.022 59.8223 54.022 59.8223L54.1596 61.9023L54.9201 62.1439Z" fill="#453A25"/>
<path fill-rule="evenodd" clip-rule="evenodd" d="M52.8561 58.7782C52.8561 58.7782 52.6135 59.2395 52.6135 59.3611C52.5729 59.7574 52.6945 61.0033 52.7916 61.3995C52.8887 61.8203 53.4145 62.4593 54.0945 62.4593C54.5148 62.4593 55.0977 62.2006 55.0977 62.1361C55.0977 62.055 54.4988 61.9761 54.3372 61.6747C54.2401 61.5147 54.1996 61.1169 54.1772 60.7147C54.1612 60.4561 54.1612 60.1729 54.2583 60.0747C54.4769 59.8321 54.5169 59.136 54.5169 59.136L55.2935 57.6934H54.2721L53.0503 58.4539L52.8561 58.7782Z" fill="#84754B"/>
<path fill-rule="evenodd" clip-rule="evenodd" d="M52.5566 59.2233C52.5566 59.2233 53.3566 58.1636 54.0777 57.9204C54.7988 57.6772 55.1214 57.8233 55.1214 57.8233L54.7006 58.8996L54.1017 59.563L54.1422 59.9028C54.1422 59.9028 54.0446 60.8009 54.6436 61.4238C55.2425 62.0468 55.6873 62.0228 55.9465 62.0228C56.2057 62.0228 56.9497 61.8041 57.33 60.906C57.6697 60.0649 57.9529 58.986 57.2734 57.9044C56.6094 56.8281 55.4366 56.7865 55.21 56.7865C54.9833 56.7865 53.2036 56.8756 52.5566 59.2217V59.2233Z" fill="#252211"/>
<path fill-rule="evenodd" clip-rule="evenodd" d="M73.099 62.8235C72.7998 62.6859 73.083 61.8448 73.3822 61.5856C73.6814 61.3264 74.0617 61.0278 74.7257 60.9867C74.9678 60.9707 75.2025 61.1243 75.1625 61.2864C75.1059 61.5856 74.6851 62.0064 74.3049 62.3056C73.779 62.7184 73.4387 62.9771 73.099 62.8235Z" fill="#F7F7E7"/>
<path fill-rule="evenodd" clip-rule="evenodd" d="M56.9173 58.2362C57.1359 58.2202 57.4191 58.3962 57.4757 58.633C57.5322 58.8917 57.3381 59.4096 56.9173 59.4096C56.5775 59.4096 56.3994 58.9888 56.3994 58.8677C56.4032 58.7681 56.4311 58.671 56.4805 58.5845C56.4965 58.56 56.537 58.2768 56.9173 58.2362V58.2362Z" fill="#F8F6DE"/>
<path fill-rule="evenodd" clip-rule="evenodd" d="M53.7621 58.4225C53.7621 58.4225 53.2037 58.6811 52.945 59.2225C52.7602 59.6222 52.7043 60.0695 52.785 60.5025C52.8255 60.7046 53.0277 61.2059 53.1653 61.3841C53.3029 61.5622 53.489 61.6838 53.6266 61.6673C53.7642 61.6507 54.0469 61.287 54.0469 61.0689C54.0469 60.8507 54.0634 59.9281 54.3301 59.4262C54.5647 58.9249 53.7637 58.423 53.7637 58.423L53.7621 58.4225Z" fill="#D4C38B"/>
<path fill-rule="evenodd" clip-rule="evenodd" d="M53.8431 58.3819C53.746 58.4384 53.5844 58.5195 53.6244 58.6245C53.6649 58.7216 54.0047 58.7845 54.1263 59.0213C54.2639 59.264 54.2639 59.5227 54.2233 59.6443C54.329 59.5941 54.4249 59.5254 54.5065 59.4416C54.6847 59.2395 54.9028 58.9648 55.0889 58.9648C55.2105 58.9648 55.3316 59.0213 55.4452 59.0213C55.6233 59.0213 55.8009 58.9648 55.8255 58.7787C55.8655 58.536 55.4857 58.3173 55.2671 58.3579C55.3076 58.1979 55.3641 57.9616 55.186 57.7995C55.0079 57.6373 54.45 57.9211 54.3284 58.0021C54.2068 58.0832 53.8431 58.3824 53.8431 58.3824V58.3819Z" fill="#E2D59D"/>
<path fill-rule="evenodd" clip-rule="evenodd" d="M66.6994 75.3802L67.8967 75.0266L68.2365 75.2692C68.2365 75.2692 68.4786 75.7871 68.8594 75.8516C68.7378 76.1103 68.4221 76.3316 68.4386 76.5151C68.4551 76.6986 68.6167 76.8388 68.6167 76.8388C68.6167 76.8388 67.5405 78.6186 69.6605 80.4122C69.1586 80.6143 68.5197 80.8922 68.1799 81.0522C68.4221 81.1087 68.9399 81.2122 69.1586 81.4084C69.3773 81.6047 69.3773 81.6671 69.5794 81.7887C69.7815 81.9103 69.9026 82.0719 69.8626 82.1444C69.725 82.0634 69.2637 81.8212 69.1831 82.0474C69.1026 82.2735 67.1847 82.185 67.1847 82.185L63.9485 82.8079C63.9485 82.8079 64.0695 82.4842 63.7298 82.185C63.3335 81.8292 62.8482 82.201 62.3303 81.8047C61.6509 81.2868 61.6263 80.6879 61.4082 80.4618C61.6263 80.3242 62.0717 80.122 63.1314 79.9818C63.0909 79.9007 62.9533 79.658 63.0343 79.4399C63.1314 79.1567 63.5357 78.9786 63.4146 78.6399C63.5927 78.5994 63.6733 78.5994 64.1186 78.041C64.5394 77.4826 64.7981 77.3615 65.1218 77.321C65.4455 77.2804 65.6397 77.321 66.2386 76.7626C66.6589 76.3663 66.5218 76.0266 66.5218 76.0266C66.5218 76.0266 66.7965 75.9375 66.6999 75.3791L66.6994 75.3802Z" fill="#CBAC5A"/>
<path fill-rule="evenodd" clip-rule="evenodd" d="M63.1635 75.5601C63.1795 75.479 63.2446 75.4385 63.6814 75.479C64.1182 75.5196 66.8851 75.2204 67.6376 75.1798C68.3982 75.1233 71.076 75.1633 72.379 75.4385C73.6819 75.7137 75.0003 76.0374 75.6392 76.199C76.2792 76.3772 76.4808 76.4412 76.4563 76.5222C76.4403 76.6033 76.2963 76.6822 76.2136 76.6598C76.1331 76.6438 74.0131 75.9964 73.3582 75.8598C72.7032 75.7233 70.4371 75.358 69.1982 75.3798C68.0414 75.3964 67.58 75.3638 66.6014 75.4769C65.6222 75.5985 64.004 75.7601 63.5187 75.6956C63.0387 75.639 63.1379 75.639 63.1624 75.558L63.1635 75.5601Z" fill="#D6BC6F"/>
<path fill-rule="evenodd" clip-rule="evenodd" d="M69.6764 81.9013C69.6764 81.9013 71.3351 82.7995 71.934 83.8997C72.3708 84.7168 71.6753 85.1216 71.6753 85.1216C71.6753 85.1216 72.614 85.1216 72.4924 85.6395C72.4359 85.9627 70.8743 86.8363 69.8305 87.2976C68.7708 87.7589 68.8113 87.7349 68.2935 87.8155C67.7916 87.8965 66.4161 87.6555 66.1329 88.0581C65.8497 88.4608 65.9729 88.8757 66.0519 88.9403C66.1329 88.9968 66.7884 89.0779 66.7884 89.0779C66.7884 89.0779 66.6508 89.4581 65.2919 89.4987C63.9329 89.5392 63.5927 89.6357 63.5116 89.7819C63.4305 89.9189 63.7703 89.8384 64.3937 89.9419C65.0167 90.0389 65.8903 90.1019 65.8903 90.1019C65.8903 90.1019 65.6071 90.3445 64.8711 90.5387C64.0295 90.7568 62.7105 90.9595 62.3143 91.2021C62.5164 91.3397 62.8161 91.5419 62.9543 91.5579C62.6145 91.6389 62.1367 91.8171 62.0561 91.8816C62.1772 91.9627 62.3393 92.0597 62.3393 92.0597C62.3393 92.0597 61.6593 92.8768 61.2631 93.0795C60.8668 93.2821 58.5852 94.3413 57.8001 94.1392C55.8423 93.6213 55.5996 91.4773 55.1223 91.3157C54.4023 91.0731 54.0625 91.5579 53.4231 91.2181C53.7063 91.016 53.8604 90.8949 54.1596 90.7573C53.8359 90.5973 52.1612 89.5355 52.1612 89.5355C51.9861 89.1538 51.7917 88.7812 51.5788 88.4192C51.2551 87.8608 50.7788 87.1163 50.4215 86.4608C49.6449 85.0208 49.6044 84.3573 48.9004 83.5403C49.022 83.3803 49.4423 83.4027 49.4423 83.4027L55.3409 85.3445L65.8001 85.6475L68.5201 81.7643L69.6769 81.9019L69.6764 81.9013Z" fill="#DFC677"/>
<path fill-rule="evenodd" clip-rule="evenodd" d="M54.1831 87.8235C54.2462 87.8938 54.3198 87.9539 54.4012 88.0017C54.6039 88.1393 54.9031 88.3014 55.1052 88.5435C55.1863 88.4225 55.3884 88.2038 55.7452 88.5435C56.102 88.8833 56.5452 88.6411 56.821 88.7217C57.1042 88.8193 57.1202 88.8593 57.1202 88.8593C57.1202 88.8593 57.2802 88.7217 57.638 88.5761C57.8567 88.495 58.1154 88.4385 58.3986 88.3579C58.6572 88.3014 58.9404 88.2203 59.1351 88.2203C59.3132 88.3414 59.9522 89.0203 62.517 88.0182C64.9362 87.0795 65.494 86.9745 65.8988 87.1195C65.9394 87.0225 65.9799 86.8363 66.6028 86.8609C66.6028 86.6022 66.085 85.7201 66.085 85.7201L63.229 84.7414H61.6668L56.9826 85.599L54.3868 87.0801L54.1847 87.8267L54.1831 87.8235Z" fill="#C4A859"/>
<path fill-rule="evenodd" clip-rule="evenodd" d="M52.6216 86.1813C52.6216 86.1813 52.6781 86.6181 53.3256 87.0794C53.9656 87.5402 54.1666 87.8154 54.1666 87.8154C54.1666 87.8154 54.2882 87.6554 54.3853 87.4922C54.4824 87.3141 54.5634 87.112 54.725 87.0554C55.0488 86.9178 55.7848 87.1765 55.9469 87.136C56.0845 87.096 56.044 86.8128 56.1896 86.8128C56.5293 86.7962 56.7474 87.0309 56.869 87.0309C56.9906 87.0309 57.2893 87.0149 57.3298 86.9504C57.3704 86.8858 57.3864 86.2138 57.8477 85.8901C58.3496 85.5344 58.9645 85.688 59.1277 85.769C59.1277 85.8901 59.1437 86.1898 59.4674 86.2058C59.7912 86.2218 59.8232 86.1653 60.1074 86.2624C60.3917 86.3594 60.7304 86.2464 60.884 86.7232C61.0216 86.6832 61.3453 86.6426 61.2642 86.1813C61.4242 86.0602 61.564 85.9792 61.9042 85.5018C61.9853 85.3808 62.1224 85.2432 62.228 85.065C62.5112 85.065 62.8509 85.0085 63.3037 85.4048C63.1661 85.5018 63.085 85.5648 63.045 85.6634C63.1635 85.7807 63.2716 85.9079 63.3682 86.0437C63.4898 86.2037 63.5709 86.4 63.7245 86.4405C64.0642 86.5376 64.6226 86.4 65.2456 86.4405C65.8445 86.481 66.3458 86.6992 66.5645 86.8368C66.6456 86.7968 66.6456 86.7802 66.8477 86.8208C67.0498 86.8613 67.2034 86.8773 66.9853 86.6186C67.1064 86.6752 67.244 86.7968 67.3656 86.6752C67.4872 86.5536 67.5837 86.376 67.9234 86.3354C68.2632 86.2949 68.3848 86.3514 68.5224 85.9957C68.7005 85.5589 68.0856 85.5589 68.0856 85.5589C68.0856 85.5589 68.3688 85.2997 68.6845 84.96C69.0648 84.6042 69.5016 84.1429 69.6066 83.5765C69.7848 82.5328 68.7656 82.3957 68.7656 82.3957L63.8221 83.9168L57.7784 83.617L52.6248 86.1818L52.6216 86.1813Z" fill="#927D49"/>
<path fill-rule="evenodd" clip-rule="evenodd" d="M48.1798 71.9012C48.1798 71.9012 48.0198 72.1034 47.9211 72.5807C47.8224 73.058 47.8646 73.0015 47.7835 73.3412C47.7024 73.681 46.7067 77.0628 47.08 78.2036C47.4534 79.3444 48.0998 79.7652 48.504 80.6874C48.5851 80.8895 48.664 81.0111 48.7062 81.1892C48.8438 81.7876 48.7227 82.249 48.8843 82.8479C48.9408 83.05 49.087 83.2847 49.3051 83.5274C49.7851 84.0287 50.5675 84.506 50.9051 84.8458C51.3819 85.3476 52.0619 86.3674 52.9275 86.4639C53.3888 86.5204 54.0443 86.3263 54.5862 86.0031C55.0662 85.7034 55.3627 85.2831 55.8662 85.0431C56.2219 84.865 56.6022 84.8004 56.9419 84.7194C57.6459 84.5818 58.2854 84.5594 58.6656 84.6383C59.248 84.7599 60.6235 85.1807 61.3856 85.1807C61.9812 85.1711 62.5734 85.0896 63.1494 84.938C64.3062 84.5983 65.7056 84.0154 66.6283 83.7567C67.1702 83.5967 67.607 83.5546 68.0523 83.4575C68.8128 83.2794 69.4518 83.0367 69.816 82.5754C69.5734 82.2922 69.2742 81.8554 67.6555 81.8714C65.8192 81.9119 63.6992 82.9311 62.6555 83.0932C61.6118 83.2554 61.159 83.3924 59.9936 82.9716C58.8512 82.5466 58.8134 82.2655 58.8134 82.2655C58.8134 82.2655 57.6139 81.4266 57.112 79.2879C56.6102 77.1492 57.112 75.5908 58.415 74.1098C58.7547 73.7295 58.6736 73.3898 58.6736 73.3898C58.6736 73.3898 59.5312 72.233 59.2966 71.1498C59.0379 70.0735 57.3792 70.2922 57.3792 70.2922L48.1803 71.9012H48.1798Z" fill="#6E6342"/>
<path fill-rule="evenodd" clip-rule="evenodd" d="M49.5635 75.5019C49.4922 75.636 49.4586 75.787 49.4664 75.9387C49.4824 76.1568 49.5475 76.44 50.2024 77.0795C50.7608 77.6373 50.6392 78.2603 50.6392 78.2603C50.6392 78.2603 50.9203 78.3168 51.683 77.96C52.2819 77.6768 52.483 78.1787 52.483 78.1787C52.6573 78.0872 52.8463 78.0269 53.0414 78.0005C53.2181 77.9842 53.3892 77.9296 53.5427 77.8405C53.5427 77.8405 54.2467 78.5605 54.8616 78.9003C55.42 79.2 55.7438 79.4021 56.019 79.2C56.2776 79.0219 56.2776 78.6576 56.2611 78.496C56.1969 78.3468 56.1157 78.2056 56.019 78.0752C55.8408 77.8165 55.5576 77.5168 55.539 77.2752C55.4984 76.7173 55.9598 76.0533 55.8622 75.8917C55.7646 75.7301 55.4014 75.6896 54.5032 76.0133C53.5731 76.3205 49.5598 75.5035 49.5598 75.5035L49.5635 75.5019Z" fill="#39331F"/>
<path fill-rule="evenodd" clip-rule="evenodd" d="M51.6827 79.1184C51.6827 79.1184 51.2219 78.6816 51.3835 76.5616C51.5791 76.5587 51.7745 76.5777 51.9659 76.6181C51.9659 76.6181 52.2171 78.2608 51.6827 79.1184Z" fill="#292311"/>
<path fill-rule="evenodd" clip-rule="evenodd" d="M48.3986 70.2833C48.4629 70.2357 48.5225 70.1821 48.5767 70.1233C48.4167 70.4225 47.678 71.6198 48.277 73.5051C48.8759 75.3819 50.3804 76.7814 52.2332 76.8465C54.086 76.9115 55.0599 76.0049 56.1735 74.6459C56.6103 74.1041 57.1121 73.4241 57.5569 72.9633C58.2204 72.2427 58.7383 72.0406 58.7383 71.3451C58.7383 69.9211 57.2817 69.2817 55.1378 68.6427C52.9938 68.0038 51.0599 68.0827 50.0567 68.5201C49.078 68.9969 48.6572 69.4987 48.398 70.2838L48.3986 70.2833Z" fill="#252211"/>
<path fill-rule="evenodd" clip-rule="evenodd" d="M55.2833 79.7573L55.4433 79.6762C55.4433 79.6762 55.4833 79.0362 55.7425 79.0533C56.0012 79.0938 56.1228 79.4341 56.0983 79.5551C56.0823 79.6762 56.0177 79.8789 55.7585 79.8543C55.4188 79.8623 55.2817 79.7573 55.2817 79.7573H55.2833Z" fill="#3F3824"/>
<path fill-rule="evenodd" clip-rule="evenodd" d="M54.5635 77.0389C54.5635 77.0389 54.7235 76.9824 54.9192 77.1765C55.0792 77.1765 55.7768 77.0955 55.9955 77.2331C56.2141 77.3707 56.2787 77.4917 56.2787 77.4917C56.2787 77.4917 55.4616 77.6699 55.0163 77.4917C54.5635 77.3381 54.5635 77.0389 54.5635 77.0389V77.0389Z" fill="#2D2815"/>
<path fill-rule="evenodd" clip-rule="evenodd" d="M58.1639 77.1599C58.1639 77.1194 57.7271 76.8202 57.2658 76.7226C57.1847 76.7066 57.1682 76.7631 57.1058 76.7631C57.0652 76.7471 57.0492 76.6255 57.0492 76.6255L56.7868 76.7636C56.7868 76.7636 56.7463 76.8202 56.8839 76.9236C57.005 77.0207 57.2076 77.1018 57.2642 77.2634C57.3207 77.425 57.3207 77.4815 57.3452 77.506C57.3612 77.522 57.6444 77.506 57.782 77.425C57.9196 77.3439 58.1788 77.2116 58.1623 77.1583L58.1639 77.1599Z" fill="#82764F"/>
<path fill-rule="evenodd" clip-rule="evenodd" d="M54.0776 78.8027C54.0776 78.8027 54.1582 78.2448 54.7006 78.2203C55.2584 78.1798 55.364 78.7216 55.364 78.7216L55.0403 79.0453C55.0403 79.0373 54.7976 78.6976 54.0803 78.8027H54.0776Z" fill="#2D2816"/>
<path fill-rule="evenodd" clip-rule="evenodd" d="M57.5975 76.3995C57.5975 76.3995 57.2977 76.7232 56.6348 76.8203C56.5783 76.7392 56.4567 76.5776 56.6348 76.319C56.8129 76.0603 57.0151 75.9792 57.2172 76.0598C57.3064 76.0742 57.3896 76.1139 57.4569 76.1741C57.5243 76.2343 57.5731 76.3125 57.5975 76.3995V76.3995Z" fill="#574F35"/>
<path fill-rule="evenodd" clip-rule="evenodd" d="M58.8187 76.7961C58.8352 76.7151 58.7787 76.6991 58.8187 76.6585C58.8587 76.618 59.0779 76.5375 59.1184 76.5775C59.1344 76.594 59.1184 76.6585 59.1184 76.7375C59.1184 76.8164 59.1184 76.8975 59.0779 76.9556C59.0214 77.0367 58.8598 77.0772 58.7787 77.0532C58.6976 77.0292 58.6816 76.9156 58.6816 76.8932C58.7216 76.8772 58.8187 76.8367 58.8187 76.7961ZM60.2 75.9225C60.2 75.882 60.3376 75.8009 60.4187 75.8009C60.5398 75.8009 60.5398 75.898 60.5563 75.9225C60.5963 75.9385 60.5963 75.906 60.6368 75.9791C60.6774 76.0521 60.7344 76.1812 60.6934 76.2623C60.6523 76.3433 60.4912 76.3993 60.4512 76.3833C60.3947 76.3428 60.2166 75.9791 60.2 75.9225V75.9225Z" fill="#82764F"/>
<path fill-rule="evenodd" clip-rule="evenodd" d="M57.4189 76.9824C57.4189 76.9824 57.5971 77.0224 57.8397 77.2251C57.7587 77.2816 57.6371 77.3461 57.6371 77.3461C57.6371 77.3461 57.6211 77.16 57.4189 76.9819V76.9824Z" fill="#6E6342"/>
<path fill-rule="evenodd" clip-rule="evenodd" d="M57.023 75.2021C56.9825 75.1621 57.1441 75.065 57.2411 75.081C57.3382 75.097 57.3787 75.1621 57.4838 75.1781C57.5889 75.1941 57.6054 75.1375 57.6438 75.097C57.6822 75.0565 57.8219 75.081 57.8459 75.097C57.8609 75.1148 57.8744 75.1337 57.8865 75.1535C57.8882 75.1228 57.8962 75.0927 57.91 75.0651C57.9239 75.0376 57.9433 75.0132 57.967 74.9935C57.998 74.9707 58.0338 74.9553 58.0717 74.9482C58.1096 74.9412 58.1485 74.9428 58.1857 74.953C58.2017 75.0095 58.2827 75.2117 58.2667 75.2522C58.2507 75.2927 58.0081 75.3498 57.967 75.3087C58.0075 75.4063 58.1857 75.6085 58.2097 75.6485C58.2337 75.6885 58.0315 75.7861 57.951 75.7701C57.8379 75.7621 57.1419 75.3573 57.0209 75.2037L57.023 75.2021ZM58.0827 73.8591C58.0677 73.8184 58.0391 73.7841 58.0017 73.7621C57.9451 73.7461 57.759 73.7621 57.759 73.8591C57.759 73.9562 57.919 74.4991 58.0987 74.7818C58.3014 75.065 58.4385 75.2991 58.5761 75.3642C58.6193 75.3839 58.6683 75.3865 58.7133 75.3714C58.7584 75.3564 58.796 75.3248 58.8187 75.2831C58.8347 75.2426 58.8753 74.9434 58.8593 74.2394C58.8433 73.5354 58.8187 72.856 58.7782 72.8154C58.7377 72.7749 58.5761 72.7754 58.5195 72.856C58.463 72.9365 58.0987 73.7381 58.0822 73.8591H58.0827Z" fill="#585136"/>
<path fill-rule="evenodd" clip-rule="evenodd" d="M57.3628 78.0015C57.3628 78.0015 57.0796 77.8234 56.8044 77.945C56.5457 78.0666 56.5617 78.5439 56.5617 78.5439C56.6199 78.5667 56.6828 78.5749 56.7449 78.5679C56.807 78.5608 56.8664 78.5387 56.918 78.5034C57.0961 78.3823 57.3222 78.1802 57.3628 78.0021V78.0015Z" fill="#574F35"/>
<path fill-rule="evenodd" clip-rule="evenodd" d="M57.8968 78.6411C57.8808 78.4811 57.7368 78.4811 57.7368 78.3984C57.7467 78.3589 57.7696 78.3238 57.8018 78.2989C57.834 78.2739 57.8737 78.2605 57.9144 78.2608C57.9955 78.2608 58.0744 78.3579 58.1736 78.4208C58.2707 78.4773 58.4163 78.5808 58.4323 78.704C58.4483 78.8272 58.2723 79.1648 58.0765 79.1648C57.8808 79.1648 57.939 78.8005 57.8984 78.6389L57.8968 78.6411ZM59.4584 78.4224C59.4584 78.4224 59.1347 78.5195 59.1587 78.4224C59.1827 78.3253 59.2563 78.3013 59.3614 78.3013C59.4147 78.2455 59.4865 78.2108 59.5635 78.2037C59.6075 78.2016 59.6507 78.216 59.6846 78.2443C59.6846 78.2443 59.9032 78.1472 59.9678 78.2037C60.0323 78.2603 59.9843 78.2603 60.0243 78.3253C60.0752 78.3975 60.1086 78.4806 60.1219 78.568C60.1219 78.6325 59.8792 78.7701 59.6846 78.7461C59.4584 78.6976 59.4984 78.4629 59.4584 78.4224V78.4224ZM61.3432 78.0581C61.3432 78.0581 61.4403 78.1147 61.3598 78.1797C61.3032 78.2363 61.02 78.3397 60.7768 78.3579C60.5342 78.3579 60.316 78.3979 60.316 78.3173C60.316 78.2368 60.5182 78.0747 60.6392 78.0341C60.6635 78.0037 60.6943 77.9792 60.7294 77.9624C60.7645 77.9456 60.803 77.9369 60.8419 77.9371C60.939 77.9371 61.3187 77.8965 61.4243 77.8805C61.5214 77.864 61.6024 77.9205 61.5453 78.0016C61.5213 78.0581 61.3432 78.0581 61.3432 78.0581V78.0581ZM61.9016 75.56C61.9016 75.56 61.78 75.8187 61.643 75.8187C61.5054 75.8027 61.5053 75.7621 61.5053 75.7216C61.5053 75.6651 61.643 75.5195 61.6264 75.4789C61.5864 75.4789 61.4888 75.4789 61.5053 75.3819C61.5053 75.3008 61.643 75.2037 61.764 75.2219C61.8555 75.1467 61.9694 75.1041 62.0878 75.1008C62.2254 75.1008 62.3464 75.1408 62.3464 75.2219C62.3464 75.3029 62.1864 75.4805 62.1278 75.5216C62.0632 75.5861 61.9822 75.6283 61.9016 75.5616V75.56ZM60.0568 80.3413C60.0568 80.3413 59.8968 80.3579 59.8968 80.4384C59.8968 80.4789 59.9368 80.4789 59.9939 80.4549C60.0268 80.4531 60.0593 80.4475 60.091 80.4384C60.107 80.4549 60.107 80.5355 60.2286 80.5355C60.3284 80.522 60.4246 80.489 60.5118 80.4384C60.6088 80.3984 60.6899 80.3573 60.6899 80.2784C60.6494 80.1408 60.5683 80.0757 60.4472 80.0757C60.3852 80.0718 60.3233 80.0859 60.2691 80.1163C60.2691 80.1163 60.2286 80.0352 60.091 80.1163C59.9534 80.1973 59.9694 80.1973 60.0099 80.2379C60.0824 80.3024 60.0584 80.3445 60.0584 80.3445L60.0568 80.3413ZM59.1427 81.1829C59.1427 81.1424 59.3448 81.0613 59.4014 81.0859C59.4579 81.1019 59.6195 81.4091 59.6195 81.4416C59.6195 81.4821 59.4173 81.5792 59.3363 81.5792C59.2552 81.5792 59.1182 81.4416 59.1182 81.4192C59.1182 81.4032 59.2152 81.3792 59.2152 81.3627C59.2392 81.3227 59.1427 81.2251 59.1427 81.1845V81.1829ZM58.5027 80.0016C58.5432 79.9856 58.5432 79.9451 58.5997 79.9045C58.6175 79.8928 58.6376 79.8852 58.6587 79.8824C58.6798 79.8796 58.7012 79.8817 58.7214 79.8885C58.7356 79.8631 58.7554 79.8411 58.7792 79.8242C58.803 79.8074 58.8302 79.796 58.8589 79.7909C58.956 79.7749 59.0371 79.7909 59.0189 79.8315C59.0189 79.9531 59.1 80.0336 59.1 80.1307C59.1 80.2277 59.0435 80.3493 58.8414 80.4304C58.6392 80.4869 58.364 80.4869 58.3235 80.4709C58.2829 80.4549 58.2424 80.2928 58.2829 80.2117C58.3235 80.1307 58.4366 80.0421 58.5016 80.0016H58.5027Z" fill="#82764F"/>
<path fill-rule="evenodd" clip-rule="evenodd" d="M58.7598 80.0565C58.7598 80.0565 58.6222 80.1375 58.6222 80.1781C58.61 80.2172 58.6046 80.2582 58.6062 80.2991C58.6062 80.3231 58.7844 80.2831 58.8084 80.2586C58.8164 80.2426 58.7598 80.0986 58.7598 80.0565Z" fill="#6E6342"/>
<path fill-rule="evenodd" clip-rule="evenodd" d="M57.5568 79.6762C57.6374 79.6928 57.775 79.6762 57.88 79.7168C57.9611 79.7573 58.0176 79.8384 57.9366 79.9354C57.8555 80.0325 57.7766 80.1781 57.5968 80.1536C57.3947 80.1376 57.2006 80.0325 57.2006 79.9514C57.1972 79.9002 57.204 79.8487 57.2207 79.8001C57.2373 79.7515 57.2635 79.7067 57.2976 79.6682C57.3787 79.6037 57.4187 79.6442 57.5563 79.6762H57.5568Z" fill="#585136"/>
<path fill-rule="evenodd" clip-rule="evenodd" d="M57.4599 79.7574C57.4599 79.7574 57.2012 79.9595 57.1361 80.0571C57.0551 80.1542 56.6588 80.6555 56.5377 80.7606C56.578 80.6897 56.6238 80.6221 56.6748 80.5585C56.5148 80.6608 56.3949 80.815 56.3351 80.9953C56.238 81.295 56.8775 81.4566 57.2977 81.5782C57.718 81.6998 57.8807 81.7382 57.8807 81.7382C57.726 81.5057 57.5931 81.2593 57.4839 81.0022C57.3239 80.6219 57.2412 80.5814 57.3463 80.4033C57.4273 80.2251 57.5489 80.1041 57.5489 79.9665C57.5004 79.8385 57.4599 79.7574 57.4599 79.7574Z" fill="#574F35"/>
<path fill-rule="evenodd" clip-rule="evenodd" d="M48.2359 80.3967C48.2948 80.4075 48.3552 80.4075 48.4141 80.3967C48.5351 80.3802 49.7975 79.9167 51.1165 79.9999C52.1038 80.0596 53.0825 80.2204 54.037 80.4799C55.6957 80.9167 57.7586 81.7823 59.0935 82.2762C59.4493 82.4132 59.7975 82.6564 60.0535 82.753C61.0733 83.1498 61.1133 83.1498 61.7122 83.2548C62.4162 83.3519 63.1362 83.1172 63.8887 82.9556C64.8109 82.753 66.3885 82.6559 67.7719 82.4538C68.2193 82.3918 68.6605 82.2917 69.0909 82.1546C69.0909 82.1546 67.9906 83.2548 65.3527 83.6511C64.2865 83.813 63.203 83.8267 62.133 83.6916C61.2914 83.6106 60.7335 83.489 60.3127 83.3679C59.8354 83.2303 58.8562 82.866 57.6509 82.5679C56.8093 82.3492 55.8706 82.1876 54.7949 81.9855C52.141 81.4996 49.261 80.9418 48.2349 80.3999L48.2359 80.3967Z" fill="#252211"/>
<path fill-rule="evenodd" clip-rule="evenodd" d="M45.2587 75.3969C44.6187 75.9388 43.9398 76.4567 43.2769 76.958L41.2785 78.4935C40.599 78.9948 39.9355 79.5127 39.2555 80.0145C38.5755 80.5164 37.8966 80.9932 37.1755 81.4545C37.8155 80.9126 38.4945 80.4108 39.1739 79.9174C39.8534 79.4241 40.5579 78.9404 41.2134 78.4401L43.2118 76.9025C43.8993 76.4012 44.5627 75.8833 45.2587 75.398V75.3969ZM41.7233 81.0604C41.7233 81.0604 42.4433 80.4614 43.3414 79.6204C44.4577 78.5772 45.8251 77.2417 46.2619 76.9996L41.7227 81.0609L41.7233 81.0604Z" fill="#CFB66C"/>
<path fill-rule="evenodd" clip-rule="evenodd" d="M41.7231 81.0597C42.0794 80.704 42.4597 80.3563 42.8399 80.016L43.4223 79.5147C43.6005 79.3547 43.8031 79.1749 43.9807 78.9968C44.3365 78.6411 44.6847 78.2603 45.0405 77.8965C45.2168 77.7136 45.4032 77.5407 45.5989 77.3787C45.6967 77.2921 45.8053 77.2186 45.9221 77.16C46.0197 77.1035 46.1247 77 46.2618 76.9819C46.1813 77.1035 46.0842 77.16 46.0031 77.2651C45.9061 77.3461 45.825 77.4432 45.7445 77.5237C45.5663 77.7019 45.3642 77.8635 45.1861 78.0256C44.8058 78.3493 44.4095 78.6656 44.0293 79.0043C43.649 79.3429 43.2933 79.7083 42.9125 80.048C42.5002 80.3963 42.1199 80.736 41.7231 81.0613V81.0597ZM46.5615 77.8235C46.5615 77.8235 43.9242 80.4048 43.3818 80.8251L46.5615 77.8235Z" fill="#CFB66C"/>
<path fill-rule="evenodd" clip-rule="evenodd" d="M46.5616 77.8236C46.3243 78.0982 46.0699 78.3576 45.8 78.6001L45 79.3606C44.7413 79.6193 44.4981 79.8785 44.2234 80.1372C43.9402 80.3798 43.6816 80.6172 43.3818 80.8412L44.1584 80.0806C44.4176 79.822 44.7008 79.6038 44.976 79.3446L45.7525 78.5841C46.0192 78.3174 46.2784 78.0582 46.5616 77.8236V77.8236ZM46.6826 79.223C46.4395 79.9015 46.1531 80.5637 45.825 81.2054C45.1456 82.5649 44.1264 84.2636 43.681 85.1297L46.6826 79.223Z" fill="#CFB66C"/>
<path fill-rule="evenodd" clip-rule="evenodd" d="M46.6826 79.2234C46.6826 79.5226 46.6015 79.7818 46.5044 80.0405C46.4098 80.2994 46.3019 80.5532 46.1812 80.801C46.0596 81.0437 45.922 81.3029 45.7844 81.5376C45.6468 81.7722 45.4852 82.0144 45.3636 82.2576L44.5466 83.6976C44.2634 84.1776 43.9882 84.6602 43.689 85.1216C43.8911 84.6037 44.1663 84.1184 44.4255 83.641C44.7087 83.161 44.9674 82.681 45.2255 82.1845C45.3515 81.9371 45.4649 81.6834 45.5652 81.4245C45.6863 81.1653 45.8074 80.9226 45.905 80.688C46.026 80.4293 46.1231 80.1861 46.2447 79.952C46.3818 79.7008 46.4954 79.4581 46.6815 79.2234H46.6826Z" fill="#CFB66C"/>
<path fill-rule="evenodd" clip-rule="evenodd" d="M49.563 85.8576C49.563 85.8576 48.763 86.9173 48.843 88.2602C49.0612 87.5568 49.3364 86.4805 49.563 85.8576ZM50.3236 86.92C50.3236 86.92 50.0404 89.8 49.8057 91.216C50.1374 89.5792 50.202 89.7168 50.3236 86.92ZM55.6228 91.3861C55.6228 91.3861 54.4254 94.9061 54.4009 95.8842C54.6601 94.8784 55.1614 92.8234 55.6228 91.3834V91.3861Z" fill="#DEC270"/>
<path fill-rule="evenodd" clip-rule="evenodd" d="M58.4224 85.64C58.4224 85.64 60.3642 88.8437 61.8208 91.5781C61.4266 90.2021 60.52 87.6784 58.4224 85.64Z" fill="#CBAF59"/>
<path fill-rule="evenodd" clip-rule="evenodd" d="M63.6411 90.3562C64.7073 92.2409 65.6687 94.1828 66.5211 96.1733C66.3595 94.7978 65.9222 92.4437 63.6411 90.3562Z" fill="#E3C677"/>
<path fill-rule="evenodd" clip-rule="evenodd" d="M78.9809 95.08C79.3041 94.8779 79.9436 93.7771 80.502 93.5024C81.0598 93.2192 81.4806 93.1627 81.9825 92.6043C82.4838 92.0213 82.6225 91.6656 83.7217 91.2048C85.2593 90.5408 84.2017 89.6832 84.2017 89.6832C84.3711 89.5168 84.5522 89.3629 84.7436 89.2224C85.1404 88.9232 85.6012 88.5589 85.5612 87.9195C85.5046 86.8437 85.3025 85.2821 84.4204 84.376C85.278 84.1979 86.9201 84.0768 87.9404 83.8181C89.1212 83.5184 89.6636 83.0976 89.6636 83.0976C89.6636 83.0976 88.9841 81.9408 90.0844 80.776C91.1846 79.6112 92.0828 78.9152 92.7462 77.6123C91.9857 77.5152 90.8262 77.1109 87.8673 78.2352C88.027 78.3104 88.1812 78.3968 88.3286 78.4939C88.3286 78.4939 86.5084 78.9957 85.8449 79.5541C84.6876 80.5328 84.542 81.3339 83.2881 81.9328C82.0342 82.5317 80.7718 82.3696 79.7286 82.8549C78.6854 83.3403 78.5313 83.7531 78.1505 83.9312C78.2316 84.0283 78.1345 84.1899 78.2881 84.3275C78.191 84.4651 77.6246 85.3872 77.0502 85.3872C77.1068 85.6059 77.5921 85.7675 77.5921 85.7675C77.5921 85.7675 77.2364 86.0267 76.3302 86.0912C76.791 86.5712 77.2284 87.0944 78.4337 87.8549C78.3366 88.0571 77.9318 88.3568 78.094 88.7371C78.2721 89.1173 78.734 89.6352 80.5777 90.056C79.639 90.096 78.5393 90.3147 77.0577 90.1125C75.5772 89.9344 75.3345 89.8293 74.4204 90.056C74.5174 90.1531 74.7761 90.1531 75.0028 90.4117C74.7601 90.4277 73.239 90.2336 72.7212 90.9136C72.1793 91.6171 71.9446 92.7744 71.9852 93.5509C71.702 93.6885 71.4268 93.9312 71.5644 94.4331C71.702 94.9349 72.422 95.0965 72.8833 95.4117C73.3441 95.7515 73.3846 95.8725 73.822 95.792C74.2828 95.6949 74.9622 95.2341 75.359 95.2341C75.7558 95.2341 76.0385 95.5333 76.0385 95.5333C76.0385 95.5333 77.1148 95.0155 77.2198 95.1125C77.3169 95.2096 77.2358 95.8325 77.3409 95.9296C77.4476 96.0027 78.6598 95.2827 78.9836 95.08H78.9809Z" fill="#ECD592"/>
<path fill-rule="evenodd" clip-rule="evenodd" d="M102.5 62.7024C97.4436 49.6443 84.9433 47.2251 84.9433 47.2251H49.2798L49.4174 60.5259H56.5198V90.2267H49.2793V103.503H83.9561C92.3134 103.503 99.0126 95.1051 99.0126 95.1051C109.741 79.8789 102.5 62.7024 102.5 62.7024H102.5ZM84.1422 86.1568C84.1422 86.1568 81.4222 90.0811 78.4628 90.0811H72.5428L72.4025 60.5584H79.9998C79.9998 60.5584 83.5198 61.2944 85.979 68.2603C85.979 68.2603 89.2393 78.2336 84.1422 86.1568V86.1568Z" fill="white" fill-opacity="0.8"/>
</svg>
