<svg width="150" height="150" viewBox="0 0 150 150" fill="none" xmlns="http://www.w3.org/2000/svg">
<path fill-rule="evenodd" clip-rule="evenodd" d="M98.5622 75.0233C96.0359 73.069 92.5653 72.4176 92.5653 72.4176C92.5653 72.4176 95.7232 70.4633 96.9832 68.8347C98.2464 66.8804 98.8811 64.2747 98.8811 62.6461C98.8811 61.3433 99.1937 55.1547 94.4569 51.5718C90.9864 48.9661 86.878 47.6633 81.1937 47.3376V35.2861H73.9306V47.3376H68.2464V35.2861H60.6674V47.3376H46.1411V55.1547H50.5622C51.8253 55.1547 53.7201 55.1547 54.6706 56.1318C55.6148 57.4347 55.6148 57.7604 55.6148 59.7147V90.98C55.6148 91.6347 55.6148 92.6086 54.9832 93.2633C54.3516 93.9147 53.7201 93.9147 52.1411 93.9147H47.7201L46.1411 103.035H60.6674V115.086H68.2464V103.035H73.9306V115.086H81.5127V102.709C83.4043 102.709 85.299 102.38 86.2495 102.38C88.4569 102.058 93.1969 101.406 97.6148 98.4747C102.039 95.2176 102.983 90.3318 103.299 85.4461C102.983 80.2347 101.092 76.9776 98.5622 75.0233ZM68.2464 55.8061C68.2464 55.8061 70.4601 55.4804 72.9832 55.4804C75.1969 55.4804 77.4043 55.4804 80.5622 56.4576C83.7201 57.4347 85.299 59.7147 85.6148 62.6461C85.6148 65.2518 84.3516 67.2061 82.4569 68.509C80.2464 69.8118 77.4043 70.4633 74.878 70.4633H68.5622V55.8061H68.2464ZM84.6706 91.9604C83.0916 92.9376 79.6148 93.9147 76.1411 93.9147C72.9832 94.2372 67.9306 93.9147 67.9306 93.9147V77.629C67.9306 77.629 72.6674 77.3033 76.4569 77.629C80.2464 77.9514 83.0916 78.9318 84.6706 79.58C85.9306 80.2347 88.4569 81.8633 88.4569 85.4461C88.4569 89.6804 86.5622 90.98 84.6706 91.9604Z" fill="white"/>
</svg>
