<svg width="150" height="150" viewBox="0 0 150 150" fill="none" xmlns="http://www.w3.org/2000/svg">
<path d="M101.82 57.1154C99.9243 56.0324 97.4875 56.0324 95.3215 57.1154L80.1591 66.0504L69.8703 71.7363L54.9786 80.6713C53.0833 81.7543 50.6465 81.7543 48.4805 80.6713L36.8379 73.6316C34.9426 72.5486 33.5888 70.3825 33.5888 67.9457V54.4078C33.5888 52.2418 34.6719 50.0757 36.8379 48.7219L48.4805 41.953C50.3758 40.87 52.8126 40.87 54.9786 41.953L66.6212 48.9927C68.5165 50.0757 69.8703 52.2418 69.8703 54.6786V63.6136L80.1591 57.6569V48.4512C80.1591 46.2851 79.076 44.1191 76.91 42.7653L55.2494 30.0397C53.3541 28.9567 50.9173 28.9567 48.7512 30.0397L26.5491 43.036C24.3831 44.1191 23.3 46.2851 23.3 48.4512V73.9024C23.3 76.0684 24.3831 78.2345 26.5491 79.5883L48.4805 92.3138C50.3758 93.3969 52.8126 93.3969 54.9786 92.3138L69.8703 83.6496L80.1591 77.693L95.0507 69.0287C96.946 67.9457 99.3828 67.9457 101.549 69.0287L113.191 75.7977C115.087 76.8807 116.441 79.0467 116.441 81.4836V95.0214C116.441 97.1875 115.357 99.3535 113.191 100.707L101.82 107.476C99.9243 108.559 97.4875 108.559 95.3215 107.476L83.6789 100.707C81.7836 99.6243 80.4298 97.4582 80.4298 95.0214V86.3572L70.141 92.3138V101.249C70.141 103.415 71.2241 105.581 73.3901 106.935L95.3215 119.66C97.2168 120.743 99.6536 120.743 101.82 119.66L123.751 106.935C125.646 105.852 127 103.686 127 101.249V75.5269C127 73.3608 125.917 71.1948 123.751 69.841L101.82 57.1154Z" fill="white"/>
</svg>
