<svg width="500" height="500" viewBox="0 0 500 500" fill="none" xmlns="http://www.w3.org/2000/svg">
<g id="100030_F3BA2F_F7F7F7">
<g id="Group">
<path id="Shape" fill-rule="evenodd" clip-rule="evenodd" d="M250 151.36L180.085 221.275L180.087 221.272L139.408 180.592L250 70L360.628 180.625L319.948 221.305L250 151.36ZM110.681 209.313L70 250L110.679 290.673L151.36 249.991L110.681 209.313ZM180.085 278.729L250 348.64L319.947 278.696L360.648 319.355L360.628 319.376L250 430L139.408 319.408L139.35 319.35L180.085 278.729ZM389.321 209.336L348.64 250.017L389.32 290.696L430 250.014L389.321 209.336Z" fill="white"/>
<path id="Path" d="M291.257 249.979H291.275L249.999 208.7L219.489 239.2L215.984 242.707L208.756 249.937L208.698 249.993L208.756 250.052L249.999 291.301L291.278 250.022L291.298 249.999L291.26 249.979" fill="white"/>
</g>
</g>
</svg>
