<svg width="150" height="150" viewBox="0 0 150 150" fill="none" xmlns="http://www.w3.org/2000/svg">
<path d="M44.913 45.8696L52.3043 41.9565L53.1739 43.6957L80.1304 28.0435L78.3913 26.7391L76.2174 25.4348L75.3478 25L31 50.6522V51.5217L43.6087 44.5652L44.913 45.8696ZM44.913 62.3913L66.2174 49.7826L67.087 51.5217L94.4783 35.8696L92.3043 34.5652L90.1304 33.6957L89.2609 33.2609L31 66.7391V67.6087L43.6087 60.6522L44.913 62.3913ZM44.913 70.2174L73.1739 54.1304L74.0435 55.4348L101.435 39.7826L99.2609 38.913L97.087 37.6087L96.2174 37.1739L31 74.5652V75.8696L43.6087 68.4783L44.913 70.2174ZM44.913 78.0435L80.1304 58.0435L81 59.3478L108.391 44.1304L106.217 42.8261L104.043 41.5217L103.174 41.087L31 82.8261V83.6957L43.6087 76.7391L44.913 78.0435ZM44.913 86.3043L87.087 61.9565L87.9565 63.6956L115.348 48.0435L113.174 46.7391L111.435 45.8696L110.13 45L31 90.6522V91.9565L43.6087 84.5652L44.913 86.3043ZM117.957 49.7826L117.087 48.913L31 98.913V99.7826L43.6087 92.8261L44.913 94.5652L87.087 69.7826L87.9565 71.5217L119.696 53.6957V50.6522L117.957 49.7826ZM36.6522 105L43.6087 100.652L44.4783 102.391L87.087 78.0435L87.9565 79.7826L119.696 61.5217V55.8696L35.3478 104.13L36.6522 105ZM87.087 86.3043L87.9565 88.0435L119.696 69.3478V63.6956L42.3043 108.478L43.6087 108.913L50.5652 104.565L51.8696 106.304L87.087 86.3043ZM50.5652 112.826L57.9565 108.913L58.8261 110.652L87.087 94.1304L87.9565 95.8696L119.696 77.6087V71.9565L49.2609 112.391L50.5652 112.826ZM57.5217 116.739L64.913 112.826L65.7826 114.565L87.087 102.391L87.9565 104.13L119.696 85.8696V79.7826L56.2174 116.304L57.5217 116.739ZM63.1739 120.217L64.4783 121.087L71.8696 116.739L72.7391 118.478L87.087 110.217L87.9565 111.957L119.696 93.6956V88.0435L63.1739 120.217ZM71.4348 125L78.3913 120.652L79.6957 122.391L87.087 118.478L87.9565 120.217L119.696 101.957V95.8696L70.5652 124.565L71.4348 125ZM87.5217 31.9565L85.3478 30.6522L83.1739 29.7826L82.3043 28.913L31 58.4783V59.7826L43.6087 52.3913L44.913 54.1304L59.2609 45.8696L60.1304 47.6087L87.5217 31.9565Z" fill="white"/>
</svg>
