<svg width="150" height="150" viewBox="0 0 150 150" fill="none" xmlns="http://www.w3.org/2000/svg">
<path d="M75.4874 25L74.8232 27.2561V92.7164L75.4874 93.379L105.873 75.418L75.4874 25Z" fill="#E6E4E4"/>
<path d="M75.4876 99.1346L75.1133 99.5911V122.909L75.4876 124.002L105.892 81.1829L75.4876 99.1346Z" fill="#E5E3E3"/>
<path d="M75.4883 93.3781L105.874 75.4171L75.4883 61.6055V93.3781Z" fill="#C0C0C0"/>
<path d="M45.1064 75.4171L75.4926 93.3781V61.6055L45.1064 75.4171Z" fill="#D8D8D8"/>
<path d="M75.4926 25L45.1064 75.418L75.4926 93.379V61.6064V25Z" fill="white"/>
<path d="M75.4926 124.002V99.1346L45.1064 81.1829L75.4926 124.002Z" fill="white"/>
<path d="M75.4873 25L75.4873 28L75.4873 92V93.379L105.873 75.418L75.4873 25Z" fill="#178844" fill-opacity="0.2"/>
<path d="M75.4878 99.1346L75.5002 100.5L75.5001 122.5L75.4878 124.002L105.892 81.1829L75.4878 99.1346Z" fill="#178844" fill-opacity="0.2"/>
<path d="M75.4883 93.3781L105.874 75.4171L75.4883 61.6055V93.3781Z" fill="#178844" fill-opacity="0.2"/>
<path d="M45.1064 75.4171L75.4926 93.3781V61.6055L45.1064 75.4171Z" fill="#178844" fill-opacity="0.2"/>
</svg>
