<svg width="150" height="150" viewBox="0 0 150 150" fill="none" xmlns="http://www.w3.org/2000/svg">
<path d="M74.3627 125C47.0991 125.046 23.7695 102.019 25.0504 72.3466C26.1482 47.0122 47.1906 24.908 74.7287 25.0003C102.175 25.0464 124.224 47.4736 124.27 75.2538C124.361 102.619 101.809 125.092 74.3627 125ZM93.1179 54.9032C91.0594 54.9032 89.2754 54.9032 87.3541 54.9032C87.3541 58.8718 87.3541 62.702 87.3541 66.5783C78.8457 66.5783 70.5202 66.5783 61.966 66.5783C61.966 62.5635 61.966 58.6872 61.966 54.6725C59.9533 54.8571 58.1235 54.4418 56.3395 54.9494C56.3395 68.2395 56.3395 81.4374 56.3395 94.7276C58.2607 94.7276 60.0448 94.7276 62.1033 94.7276C62.1033 90.6206 62.1033 86.6058 62.1033 82.5911C70.6117 82.5911 78.8914 82.5911 87.4456 82.5911C87.4456 86.7443 87.4456 90.759 87.4456 94.7276C89.5041 94.7276 91.2881 94.7276 93.1637 94.7276C93.1179 81.3913 93.1179 68.1934 93.1179 54.9032Z" fill="white"/>
<path d="M93.118 54.9033C93.118 68.1935 93.118 81.3914 93.118 94.6816C91.2425 94.6816 89.4584 94.6816 87.3999 94.6816C87.3999 90.713 87.3999 86.6983 87.3999 82.5451C78.8915 82.5451 70.6118 82.5451 62.0576 82.5451C62.0576 86.5598 62.0576 90.5746 62.0576 94.6816C59.9991 94.6816 58.2151 94.6816 56.2938 94.6816C56.2938 81.3914 56.2938 68.2397 56.2938 54.9033C58.0778 54.3957 59.9076 54.8111 61.9203 54.6265C61.9203 58.6412 61.9203 62.5175 61.9203 66.5323C70.4745 66.5323 78.8 66.5323 87.3085 66.5323C87.3085 62.6098 87.3085 58.8258 87.3085 54.8572C89.3212 54.9033 91.1052 54.9033 93.118 54.9033ZM87.5372 71.4699C79.0745 71.4699 70.749 71.4699 62.1948 71.4699C62.2863 73.6388 61.9661 75.6231 62.332 77.6074C70.8405 77.6074 79.166 77.6074 87.5372 77.6074C87.5372 75.4847 87.5372 73.5465 87.5372 71.4699Z" fill="black"/>
<path d="M87.5371 71.4697C87.5371 73.5002 87.5371 75.4845 87.5371 77.6072C79.1659 77.6072 70.8404 77.6072 62.332 77.6072C61.966 75.6691 62.2405 73.6386 62.1947 71.4697C70.7489 71.4697 79.0744 71.4697 87.5371 71.4697Z" fill="white"/>
</svg>
