<svg width="150" height="150" viewBox="0 0 150 150" fill="none" xmlns="http://www.w3.org/2000/svg">
<path d="M75.381 25L74.7168 27.2561V92.7164L75.381 93.379L105.767 75.418L75.381 25Z" fill="#E6E4E4"/>
<path d="M75.3861 25L45 75.418L75.3861 93.379V61.6064V25Z" fill="white"/>
<path d="M75.3811 99.1347L75.0068 99.5912V122.909L75.3811 124.002L105.786 81.183L75.3811 99.1347Z" fill="#E5E3E3"/>
<path d="M75.3861 124.002V99.1347L45 81.183L75.3861 124.002Z" fill="white"/>
<path d="M75.3818 93.378L105.767 75.4169L75.3818 61.6053V93.378Z" fill="#C0C0C0"/>
<path d="M45 75.4169L75.3861 93.378V61.6053L45 75.4169Z" fill="#D8D8D8"/>
<path d="M75.3813 25V29.5L75.3814 89L75.3813 93.379L105.767 75.418L75.3813 25Z" fill="#2C2C2C" fill-opacity="0.2"/>
<path d="M75.3813 99.1348V104L75.3813 116.5L75.3813 124.002L105.786 81.1831L75.3813 99.1348Z" fill="#2C2C2C" fill-opacity="0.2"/>
<path d="M75.3818 93.3782L105.767 75.4171L75.3818 61.6055V93.3782Z" fill="#2C2C2C" fill-opacity="0.2"/>
<path d="M45 75.4171L75.3861 93.3782V61.6055L45 75.4171Z" fill="#2C2C2C" fill-opacity="0.2"/>
</svg>
