<svg width="500" height="500" viewBox="0 0 500 500" fill="none" xmlns="http://www.w3.org/2000/svg">
<g id="100020_2C2C2C_F7F7F7">
<path id="Shape" fill-rule="evenodd" clip-rule="evenodd" d="M317.486 185.484L352.404 168.085L393.333 147.661V172.163L352.048 192.744L332.073 202.693L154.312 291.281L144.411 296.214L134.362 301.23L103.333 316.694V292.178L113.871 286.916C121.874 282.952 126.66 274.622 125.994 265.82C125.757 262.787 125.638 259.743 125.638 256.688C125.644 231.336 133.839 206.644 149.036 186.188C188.84 132.552 265.565 120.63 320.405 159.559L317.424 161.048L297.436 171.008C282.486 162.847 265.679 158.556 248.589 158.537C193.111 158.465 148.079 202.393 148.005 256.652C148.007 260.943 148.294 265.23 148.864 269.484L317.486 185.484ZM164.41 310.694L393.333 196.693V221.125L382.783 226.384C374.788 230.355 370.008 238.682 370.674 247.481C370.907 250.53 371.03 253.613 371.03 256.696C371.012 282.037 362.814 306.714 347.622 327.158C307.811 380.789 231.086 392.701 176.25 353.765L197.918 342.965L199.145 342.329C214.152 350.553 231.038 354.873 248.21 354.88C303.688 354.914 348.689 310.955 348.723 256.696C348.722 252.377 348.435 248.063 347.864 243.781L179.072 327.898L144.154 345.299L103.333 365.638V341.15L144.435 320.666L164.41 310.694Z" fill="white"/>
</g>
</svg>
