<svg width="150" height="150" viewBox="0 0 150 150" fill="none" xmlns="http://www.w3.org/2000/svg">
<path d="M58.0488 37.2862C56.9351 37.1289 56.8821 37.0765 57.4124 37.024C58.4201 36.8667 60.7536 37.0765 62.3976 37.4435C66.216 38.3349 69.6632 40.6421 73.3226 44.6796L74.2772 45.7808L75.6561 45.571C81.5428 44.6272 87.5887 45.3613 92.6269 47.6684C94.0058 48.2977 96.1802 49.5561 96.4453 49.8707C96.5514 49.9756 96.7105 50.6573 96.8166 51.3389C97.1878 53.8034 97.0287 55.6386 96.2332 57.0544C95.8089 57.8409 95.8089 58.0507 96.0741 58.7323C96.2862 59.2567 96.9226 59.6237 97.506 59.6237C98.7788 59.6237 100.105 57.6312 100.741 54.8521L101.006 53.751L101.484 54.2753C104.188 57.2641 106.31 61.4065 106.628 64.3429L106.734 65.1295L106.257 64.4478C105.461 63.2418 104.719 62.4553 103.711 61.7736C101.908 60.5676 99.9986 60.2005 94.9604 59.9384C90.3995 59.6762 87.8008 59.3091 85.2552 58.4702C80.9064 57.0544 78.679 55.2192 73.5347 48.455C71.2543 45.4662 69.8223 43.8407 68.3904 42.4773C65.2614 39.4885 62.1324 37.9154 58.0488 37.2862Z" fill="#F7F7F7"/>
<path d="M97.753 43.9399C97.8614 41.9158 98.1325 40.5841 98.7288 39.3589C98.9456 38.8795 99.1625 38.4534 99.2167 38.4534C99.2709 38.4534 99.1625 38.8262 98.9998 39.2524C98.5662 40.4243 98.5119 42.0756 98.783 43.9399C99.1625 46.337 99.3251 46.6566 101.927 49.2667C103.12 50.4919 104.529 52.0366 105.071 52.6758L105.993 53.8477L105.071 52.9954C103.933 51.9301 101.331 49.9059 100.735 49.6396C100.355 49.4265 100.301 49.4265 100.03 49.6928C99.813 49.9059 99.7588 50.2255 99.7588 51.7703C99.7045 54.1673 99.3793 55.6588 98.5662 57.2036C98.1325 58.0026 98.0783 57.8428 98.4577 56.9372C98.7288 56.2448 98.783 55.9252 98.783 53.6346C98.783 49.0004 98.2409 47.8817 94.9341 46.0174C94.121 45.538 92.7116 44.8455 91.8984 44.4726C91.0311 44.0997 90.3806 43.7801 90.4348 43.7801C90.5432 43.6736 93.7415 44.5791 94.9884 45.1118C96.8857 45.8576 97.2109 45.9108 97.4278 45.8576C97.5904 45.6978 97.6988 45.2716 97.753 43.9399Z" fill="#F7F7F7"/>
<path d="M60.4351 51.7518C58.2318 48.6657 56.8153 43.8768 57.1301 40.3117L57.235 39.1943L57.7596 39.3008C58.7039 39.4604 60.3302 40.0989 61.1171 40.5778C63.2156 41.8548 64.1599 43.6107 65.0517 47.9739C65.314 49.251 65.6812 50.7408 65.8386 51.2197C66.1009 52.0179 67.0977 53.8802 67.937 55.0508C68.5141 55.9022 68.1469 56.3279 66.8354 56.2214C64.8418 56.0086 62.1663 54.1463 60.4351 51.7518Z" fill="#F7F7F7"/>
<path d="M95.0915 75.1255C84.5316 70.8362 80.7983 67.1367 80.7983 60.8635C80.7983 59.952 80.8517 59.2014 80.8517 59.2014C80.905 59.2014 81.2783 59.5231 81.7583 59.8984C83.8916 61.6142 86.2916 62.3648 92.9582 63.3299C96.8515 63.9197 99.0914 64.3486 101.118 65.0456C107.571 67.1903 111.571 71.5868 112.531 77.5382C112.798 79.254 112.638 82.5246 112.211 84.2403C111.838 85.5807 110.771 88.0471 110.505 88.1007C110.451 88.1007 110.345 87.8326 110.345 87.4037C110.238 85.1518 109.118 83.0071 107.251 81.345C105.011 79.4148 102.131 77.9672 95.0915 75.1255Z" fill="#F7F7F7"/>
<path d="M87.1883 77.0448C87.0815 76.2492 86.8146 75.2414 86.6545 74.8171L86.3876 74.0215L86.868 74.6049C87.5619 75.4005 88.0957 76.3553 88.5762 77.6813C88.9498 78.689 88.9498 79.0073 88.9498 80.6515C88.9498 82.2427 88.8964 82.614 88.5762 83.5157C88.0423 84.9478 87.4018 85.9556 86.3342 87.0694C84.4125 89.0319 81.9036 90.0927 78.3271 90.5701C77.6865 90.6231 75.8716 90.7822 74.2701 90.8883C70.2666 91.1005 67.5976 91.5248 65.1954 92.3734C64.8752 92.4795 64.5549 92.5856 64.5015 92.5326C64.3947 92.4265 66.0495 91.4718 67.384 90.8353C69.2524 89.9336 71.1741 89.4562 75.3911 88.7137C77.473 88.3954 79.6082 87.9711 80.142 87.7589C85.4267 86.1147 88.0424 82.0306 87.1883 77.0448Z" fill="#F7F7F7"/>
<path d="M91.8014 85.4507C90.3965 82.3999 90.0723 79.5096 90.8288 76.7799C90.9369 76.5122 91.0449 76.2446 91.153 76.2446C91.2611 76.2446 91.5853 76.4052 91.9095 76.6193C92.5579 77.0475 93.9088 77.7968 97.3671 79.6702C101.744 82.0252 104.23 83.845 105.959 85.9324C107.472 87.7522 108.39 89.8397 108.823 92.4088C109.093 93.854 108.931 97.333 108.552 98.7781C107.364 103.328 104.662 106.967 100.717 109.055C100.123 109.376 99.6366 109.59 99.5826 109.59C99.5285 109.59 99.7447 109.055 100.069 108.412C101.366 105.683 101.528 103.06 100.555 100.116C99.9608 98.2964 98.718 96.102 96.2324 92.4088C93.2604 88.1269 92.5579 87.0029 91.8014 85.4507Z" fill="#F7F7F7"/>
<path d="M53.0165 101.973C56.9528 98.7271 61.7934 96.4233 66.2616 95.6903C68.1766 95.3762 71.3682 95.4809 73.1236 95.9521C75.9428 96.6851 78.4961 98.2558 79.8259 100.193C81.1026 102.078 81.6877 103.701 82.2728 107.314C82.4856 108.727 82.7516 110.193 82.8048 110.508C83.2303 112.392 84.0814 113.858 85.1453 114.644C86.7943 115.848 89.6667 115.9 92.4859 114.853C92.9647 114.696 93.3902 114.539 93.3902 114.591C93.4966 114.696 92.0604 115.639 91.1029 116.11C89.7731 116.791 88.7092 117 87.273 117C84.7197 117 82.5388 115.691 80.7834 113.073C80.4111 112.55 79.6663 111.031 79.028 109.617C77.1663 105.377 76.2088 104.12 74.0278 102.706C72.1129 101.502 69.666 101.24 67.8042 102.13C65.3573 103.282 64.719 106.371 66.4212 108.256C67.1127 109.042 68.3894 109.67 69.4532 109.827C71.4214 110.089 73.1236 108.57 73.1236 106.633C73.1236 105.377 72.6448 104.644 71.3682 104.068C69.666 103.335 67.8042 104.172 67.8574 105.795C67.8574 106.476 68.1766 106.895 68.8681 107.209C69.2936 107.418 69.2936 107.418 68.9745 107.366C67.4319 107.052 67.0595 105.167 68.283 103.963C69.7724 102.497 72.9108 103.125 73.9747 105.167C74.4002 106.005 74.4534 107.68 74.081 108.727C73.1768 111.031 70.6235 112.235 68.017 111.555C66.2616 111.084 65.5169 110.612 63.3892 108.466C59.6656 104.696 58.2294 103.963 52.9101 103.177L51.8994 103.02L53.0165 101.973Z" fill="#F7F7F7"/>
<path fill-rule="evenodd" clip-rule="evenodd" d="M24.8018 16.2773C37.1335 31.2651 56.1339 54.5676 57.0866 55.8387C57.8805 56.8979 57.5629 57.9041 56.2397 58.6456C55.4988 59.0693 53.9639 59.4929 53.223 59.4929C52.3762 59.4929 51.3706 59.0693 50.6825 58.3808C50.2062 57.9041 48.1421 54.8854 43.4846 47.6298C39.9386 42.069 36.9218 37.4614 36.8689 37.4085C36.6572 37.3026 36.6572 37.3026 43.1142 48.8479C47.1894 56.1035 48.5126 58.6985 48.5126 59.0163C48.5126 59.7048 48.3009 60.0755 47.4541 61.0288C46.0251 62.6176 45.39 64.4183 44.9136 68.1784C44.3844 72.3623 42.9554 75.3281 38.8801 80.3593C36.4984 83.3251 36.128 83.8547 35.5458 85.0728C34.8048 86.5557 34.5931 87.403 34.4873 89.3096C34.3814 91.3221 34.5931 92.5932 35.1753 94.4997C35.7045 96.1945 36.2867 97.3066 37.7157 99.478C38.933 101.385 39.674 102.815 39.674 103.344C39.674 103.768 39.7798 103.768 41.6852 103.344C46.2368 102.285 49.9945 100.484 52.0586 98.2599C53.3288 96.8829 53.6464 96.1415 53.6464 94.2349C53.6464 93.0168 53.5935 92.752 53.2759 92.0106C52.7466 90.8455 51.7411 89.8922 49.5711 88.4093C46.7131 86.4498 45.4958 84.8609 45.1783 82.7425C44.9136 80.9419 45.2312 79.7238 46.819 76.3873C48.4597 72.9449 48.8831 71.5149 49.1477 68.0196C49.3065 65.7952 49.5711 64.8949 50.2062 64.2064C50.8942 63.465 51.4764 63.2002 53.1171 62.9883C55.8163 62.6176 57.5629 61.9291 58.939 60.6051C60.1563 59.4929 60.6855 58.3808 60.7384 56.739L60.7914 55.5209L60.1033 54.7795C57.6158 51.9196 23.1611 14 23.0024 14C22.9494 14 23.7962 15.0062 24.8018 16.2773ZM41.0501 91.5868C41.6322 90.5806 41.3147 89.3095 40.362 88.674C39.4623 88.0914 38.0862 88.3563 38.0862 89.1507C38.0862 89.3625 38.1921 89.5743 38.5096 89.6803C38.9859 89.9451 39.0389 90.2099 38.6684 90.7924C38.2979 91.375 38.2979 91.9046 38.7742 92.2753C39.5152 92.8579 40.5208 92.5401 41.0501 91.5868Z" fill="#F7F7F7"/>
<path fill-rule="evenodd" clip-rule="evenodd" d="M62.3521 63.7832C61.0491 64.1719 59.8003 65.6157 59.4203 67.0594C59.2031 67.9479 59.3117 69.5582 59.6917 70.058C60.289 70.8354 60.8319 71.0575 62.3521 71.0575C65.3383 71.0575 67.8901 69.7248 68.1616 68.1145C68.4331 66.7818 67.2929 64.9493 65.7184 64.1164C64.9039 63.6721 63.2208 63.5056 62.3521 63.7832ZM65.8269 66.5599C66.2613 65.8935 66.0984 65.1716 65.284 64.6719C63.8181 63.7279 61.592 64.5053 61.592 65.949C61.592 66.6709 62.7322 67.4483 63.8181 67.4483C64.5239 67.4483 65.5012 67.0041 65.8269 66.5599Z" fill="#F7F7F7"/>
</svg>
