<svg width="150" height="150" viewBox="0 0 150 150" fill="none" xmlns="http://www.w3.org/2000/svg">
<path d="M75 125C47.3858 125 25 102.614 25 75C25 47.3858 47.3858 25 75 25C102.614 25 125 47.3858 125 75C125 102.614 102.614 125 75 125Z" fill="url(#paint0_linear)"/>
<path d="M53.1186 94.9226L70.0259 54.0463C70.9795 51.9329 72.397 50.902 74.2656 50.902H75.7604C77.629 50.902 79.0465 51.9329 80.0001 54.0463L87.3583 71.8556H92.9253C94.5877 71.8685 95.9408 73.2087 95.9537 74.8839V74.9226C95.9408 76.585 94.5877 77.9381 92.9253 77.9509H89.9357L96.9589 94.9226C97.0877 95.2963 97.165 95.6829 97.165 96.0824C97.165 97.036 96.8686 97.7834 96.3403 98.3633C95.8119 98.9432 95.0516 99.2267 94.098 99.2267C93.4666 99.2138 92.8609 99.0205 92.3583 98.6468C91.8171 98.2731 91.4434 97.7319 91.147 97.1133L83.415 77.9381H78.0542C76.3918 77.9252 75.0388 76.585 75.0259 74.9097V74.8324C75.0388 73.17 76.3918 71.8169 78.0542 71.804H80.915L75.013 57.1004L58.9305 97.1004C58.6341 97.719 58.2604 98.2602 57.7192 98.6339C57.2166 99.0076 56.598 99.2009 55.9795 99.2138C55.0259 99.2138 54.2784 98.9303 53.7372 98.3504C53.196 97.7705 52.9125 97.0231 52.9125 96.0695C52.8996 95.6829 52.964 95.2834 53.1186 94.9226Z" fill="white"/>
<defs>
<linearGradient id="paint0_linear" x1="37.7207" y1="43.6323" x2="112.121" y2="106.232" gradientUnits="userSpaceOnUse">
<stop stop-color="#B6509E"/>
<stop offset="1" stop-color="#2EBAC6"/>
</linearGradient>
</defs>
</svg>
