<svg width="150" height="150" viewBox="0 0 150 150" fill="none" xmlns="http://www.w3.org/2000/svg">
<path d="M25.3294 50.6973H16V60.0266H25.3294V50.6973Z" fill="white"/>
<path d="M25.097 99.3028V65.7039H16.2656V99.3028H25.097ZM83.7955 99.6348V91.4011C82.5007 91.4011 81.4051 91.3347 80.6083 91.2019C79.6786 91.0691 78.9814 90.7371 78.5166 90.2722C78.0518 89.8074 77.753 89.1434 77.587 88.2802C77.4542 87.4502 77.3878 86.3546 77.3878 85.0266V73.2736H83.7955V65.7039H77.3878V52.5896H68.5233V85.093C68.5233 87.8486 68.7557 90.1726 69.2205 92.0319C69.6853 93.8579 70.4821 95.3519 71.5777 96.4807C72.6733 97.6096 74.1342 98.4064 75.8938 98.9044C77.6866 99.4024 79.9442 99.6348 82.6335 99.6348H83.7955ZM134.526 99.3028V50H125.661V99.3028H134.526ZM59.9907 68.9907C57.5339 66.3347 54.081 65.0066 49.6986 65.0066C47.5737 65.0066 45.6481 65.4382 43.8885 66.3015C42.162 67.1647 40.668 68.3599 39.506 69.8871L39.008 70.5179V69.9535V65.7039H30.2763V99.3028H39.0744V81.4077V82.6361C39.0744 82.4369 39.0744 82.2377 39.0744 82.0385C39.174 78.8845 39.9376 76.5604 41.3984 75.0664C42.9589 73.4728 44.8513 72.676 47.0093 72.676C49.5658 72.676 51.5246 73.4728 52.8194 75C54.081 76.5272 54.745 78.6853 54.745 81.4409V81.5073V99.2696H63.676V80.2125C63.7092 75.4316 62.4476 71.6467 59.9907 68.9907ZM121.08 82.4369C121.08 80.0133 120.648 77.7556 119.818 75.6308C118.955 73.5392 117.76 71.6799 116.266 70.0863C114.738 68.4927 112.912 67.2643 110.788 66.3679C108.663 65.4714 106.305 65.0398 103.749 65.0398C101.325 65.0398 99.0346 65.5046 96.9097 66.4011C94.7849 67.3307 92.9257 68.5591 91.3652 70.1195C89.8048 71.6799 88.5432 73.5392 87.6468 75.664C86.7172 77.7888 86.2856 80.0797 86.2856 82.5033C86.2856 84.927 86.7172 87.2178 87.5804 89.3426C88.4436 91.4675 89.672 93.3267 91.1992 94.8871C92.7265 96.4475 94.6189 97.7092 96.8101 98.6056C99.0014 99.5352 101.425 100 104.015 100C111.518 100 116.166 96.5803 118.955 93.3931L112.58 88.5458C111.252 90.1394 108.065 92.2975 104.081 92.2975C101.591 92.2975 99.5326 91.7331 97.9721 90.5711C96.4117 89.4422 95.3493 87.8486 94.7849 85.8898L94.6853 85.591H121.08V82.4369ZM94.7517 79.3493C94.7517 76.8924 97.5737 72.6096 103.649 72.5764C109.725 72.5764 112.58 76.8592 112.58 79.3161L94.7517 79.3493Z" fill="white"/>
</svg>
