<svg width="150" height="150" viewBox="0 0 150 150" fill="none" xmlns="http://www.w3.org/2000/svg">
<path fill-rule="evenodd" clip-rule="evenodd" d="M62.3111 42V50.9265C62.8981 50.8815 63.4851 50.8433 64.0753 50.8233C86.8082 50.0571 101.62 69.4678 101.62 69.4678C101.62 69.4678 84.6081 90.1541 66.8845 90.1541C65.2601 90.1541 63.7394 90.0034 62.3111 89.7503V95.2702C63.5325 95.4253 64.7989 95.5165 66.1203 95.5165C82.6133 95.5165 94.5407 87.0934 106.09 77.1243C106.941 77.8062 108.964 78.9224 111.09 80.0956L111.09 80.0957C113.745 81.5609 116.561 83.1149 117.456 84.0219C106.474 93.2155 80.8821 100.627 66.373 100.627C64.9745 100.627 63.6314 100.542 62.3111 100.414V108.171H125V42H62.3111ZM62.3111 55.7669C44.2584 57.147 35.217 70.4869 35.217 70.4869C35.217 70.4869 42.1274 92.7317 62.3111 95.2709V100.415C34.8072 97.8193 25 69.4684 25 69.4684C25 69.4684 42.3155 52.533 62.3111 50.9272V55.7669ZM62.3111 89.7508V85.0397C53.7112 82.1502 50.9157 72.1095 50.9157 72.1095C50.9157 72.1095 55.9033 66.1453 62.2878 66.9115C62.2953 66.9115 62.3017 66.9142 62.3107 66.9143V85.0391C63.7531 85.524 65.3558 85.8113 67.1432 85.8113C79.5635 85.8113 91.1473 69.7232 91.1473 69.7232C91.1473 69.7232 80.4225 55.1619 64.0753 55.6754C63.4775 55.6943 62.8921 55.7256 62.3111 55.7662V61.7441C63.3807 61.6296 64.4699 61.5496 65.6081 61.55C76.0794 61.55 82.2911 69.6967 82.2911 69.6967L73.7817 76.8719C73.5424 76.4731 73.3131 76.0882 73.0919 75.7169C69.7756 70.1504 68.2769 67.6347 62.3111 66.9137V61.7447C50.1467 63.0605 42.8225 71.1742 42.8225 71.1742C42.8225 71.1742 47.0567 87.0313 62.3111 89.7508ZM62.3111 66.9137C62.311 66.9137 62.3109 66.9137 62.3107 66.9137V66.9143C62.3109 66.9143 62.311 66.9143 62.3111 66.9143V66.9137Z" fill="#F9F9F9"/>
</svg>
