<?xml version="1.0" encoding="UTF-8" standalone="no"?>
<!-- Created with Inkscape (http://www.inkscape.org/) -->

<svg
   xmlns:dc="http://purl.org/dc/elements/1.1/"
   xmlns:cc="http://creativecommons.org/ns#"
   xmlns:rdf="http://www.w3.org/1999/02/22-rdf-syntax-ns#"
   xmlns:svg="http://www.w3.org/2000/svg"
   xmlns="http://www.w3.org/2000/svg"
   xmlns:sodipodi="http://sodipodi.sourceforge.net/DTD/sodipodi-0.dtd"
   xmlns:inkscape="http://www.inkscape.org/namespaces/inkscape"
   width="531px"
   height="167px"
   viewBox="0 0 531 167"
   version="1.1"
   id="SVGRoot"
   inkscape:version="0.92.5 (2060ec1f9f, 2020-04-08)"
   sodipodi:docname="Etoro logo.svg">
  <defs
     id="defs895" />
  <sodipodi:namedview
     id="base"
     pagecolor="#ffffff"
     bordercolor="#666666"
     borderopacity="1.0"
     inkscape:pageopacity="0.0"
     inkscape:pageshadow="2"
     inkscape:zoom="2.1603982"
     inkscape:cx="302.85714"
     inkscape:cy="90"
     inkscape:document-units="px"
     inkscape:current-layer="layer1"
     showgrid="false"
     inkscape:window-width="1920"
     inkscape:window-height="1001"
     inkscape:window-x="-9"
     inkscape:window-y="-9"
     inkscape:window-maximized="1" />
  <metadata
     id="metadata898">
    <rdf:RDF>
      <cc:Work
         rdf:about="">
        <dc:format>image/svg+xml</dc:format>
        <dc:type
           rdf:resource="http://purl.org/dc/dcmitype/StillImage" />
        <dc:title></dc:title>
      </cc:Work>
    </rdf:RDF>
  </metadata>
  <g
     inkscape:label="Layer 1"
     inkscape:groupmode="layer"
     id="layer1">
    <path
       style="fill:#fff;fill-opacity:1;stroke:none;stroke-width:0.60396051px;stroke-linecap:butt;stroke-linejoin:miter;stroke-opacity:1"
       d="m 51.187683,0.97752992 c -1.687602,-0.0868748 -2.804141,1.40153048 -2.804141,1.40153048 0,0 -18.206174,21.9175346 -28.924654,35.1263256 C 8.7392863,50.713986 4.8678155,59.910843 4.8678155,59.910843 -2.6700606,78.928418 12.613042,91.376856 12.613042,91.376856 28.51903,104.51626 45.807286,104.44684 45.807286,104.44684 45.530859,92.413909 46.014198,85.291254 46.014198,85.291254 47.190004,72.497665 60.812375,59.842438 60.812375,59.842438 56.176282,60.200116 46.917929,60.17995 41.809921,55.560425 36.702434,50.940818 39.932098,39.974314 39.932098,39.974314 L 53.153079,4.9329204 c 0,0 1.652729,-2.4042848 -0.713509,-3.6060305 C 51.99566,1.1015215 51.576062,0.99770951 51.186739,0.97752992 Z m 427.698077,0 c -0.38901,0.009577 -0.80994,0.12408738 -1.25521,0.34935998 -2.37084,1.2017457 -0.7145,3.6060305 -0.7145,3.6060305 L 490.1629,39.974314 c 0,0 3.23617,10.966518 -1.88183,15.586111 -5.11756,4.619539 -14.39529,4.639663 -19.04066,4.282013 0,0 13.65054,12.655214 14.82868,25.448816 0,0 0.48454,7.122655 0.20704,19.155586 0,0 17.32381,0.0695 33.2614,-13.069984 0,0 15.31387,-12.448438 7.76081,-31.466013 0,0 -3.87957,-9.196857 -14.62005,-22.405457 C 499.93758,24.296595 481.69612,2.3790604 481.69612,2.3790604 c 0,0 -1.11964,-1.48817273 -2.81062,-1.40153048 z M 98.0427,57.406481 c 0,0 -37.196957,-0.140641 -41.969258,32.704643 v 43.092246 c 0,0 0.56195,30.59909 43.793739,32.84493 0,0 22.738079,2.38611 39.160869,-19.37025 l -18.52709,-12.21136 c 0,0 -8.84295,11.36903 -20.21228,10.66722 -11.369055,-0.70179 -22.176872,-4.9127 -22.176872,-16.56286 v -9.54422 h 58.249212 c 0,0 4.07096,0.84174 4.07096,-6.45717 V 91.09374 c 0,0 0.56206,-32.28358 -42.38928,-33.687259 z m 330.48198,0.291421 c 0,0 -37.31507,0.704315 -42.5958,33.443024 v 42.419834 c 0,0 1.40852,27.80985 41.89147,31.50611 0,0 40.48419,2.46502 45.58861,-32.56184 V 87.973757 c 0,0 -3.69623,-28.867744 -44.88428,-30.275855 z M 276.5407,57.97861 c 0,0 -37.31535,0.70437 -42.59561,33.443065 v 42.418645 c 0,0 1.40824,27.81102 41.89186,31.50731 0,0 40.48353,2.46382 45.58805,-32.56303 V 88.25322 c 0,0 -3.69697,-28.866485 -44.8843,-30.27461 z m 100.9884,0.336144 c -38.42109,0.485063 -42.96597,30.823208 -42.96597,30.823208 v 75.523168 h 21.70723 V 92.49984 c 0,0 3.84234,-11.625658 17.42983,-12.466128 0,0 5.88438,-16.669546 16.67014,-20.871921 -3.92852,-0.536244 -7.58451,-0.805816 -10.98563,-0.847037 -0.62678,-0.0027 -1.24551,-0.0027 -1.8556,0 z m -184.54687,1.27758 c -1.47632,-0.0055 -2.96693,0.0027 -4.46626,0.055 -23.99522,0.808784 -33.29646,2.696937 -47.31605,6.87589 0,0 9.03113,8.626862 9.43551,18.602381 0,0 16.04179,-4.448073 26.01741,-4.04366 v 83.578785 h 21.83798 V 81.621004 c 0,0 16.58136,-0.269011 25.34384,3.64037 0,0 -0.94372,-8.358111 10.24546,-18.738098 0,0 -18.95665,-6.753622 -41.09789,-6.931311 z m -92.43882,19.137914 c 9.84263,0.08523 18.27701,6.320616 18.41266,13.346122 v 8.8435 H 78.111808 V 90.532269 c 0,0 4.779333,-11.256475 21.475171,-11.790187 0.31989,-0.0041 0.639291,-0.0068 0.956431,-0.0055 z m 328.33401,0.618165 c 17.95367,-0.175966 22.35386,7.392091 22.35386,12.672494 v 36.435703 c 0,0 -2.46485,14.43301 -20.9459,14.08096 -18.48206,-0.35203 -22.35396,-9.68127 -22.35396,-16.89787 V 93.252422 c 0,0 2.99298,-13.728015 20.946,-13.904009 z M 276.8932,79.627945 c 17.95365,-0.175925 22.35374,7.393267 22.35374,12.673738 v 36.434487 c 0,0 -2.46473,14.43301 -20.94615,14.08093 -18.48164,-0.35196 -22.3535,-9.68005 -22.3535,-16.89665 V 93.533158 c 0,0 2.9927,-13.729206 20.94591,-13.905213 z"
       id="path828"
       inkscape:connector-curvature="0" />
  </g>
</svg>
