<svg id="SvgjsSvg1001" width="288" height="288" xmlns="http://www.w3.org/2000/svg" version="1.1" xmlns:xlink="http://www.w3.org/1999/xlink" xmlns:svgjs="http://svgjs.com/svgjs"><defs id="SvgjsDefs1002"></defs><g id="SvgjsG1008" transform="matrix(1,0,0,1,0,0)"><svg xmlns="http://www.w3.org/2000/svg" width="288" height="288" fill="none" viewBox="0 0 29 29"><path stroke="#9ca8ae" stroke-linecap="round" stroke-linejoin="round" stroke-width="2.808" d="M17.2918 7.48937L26.5191 7.48937M17.2918 21.9643L26.5191 21.9643" fill="#000000" class="color000 svgShape colorStrokeA5A5A5 svgStroke"></path><path fill="#84939a" fill-rule="evenodd" d="M10.4718 21.0254L5.30784 15.8615L26.2052 15.8921C26.9781 15.8932 27.6049 15.2663 27.6036 14.4935C27.6024 13.7239 26.9788 13.1005 26.2093 13.0994L5.32429 13.0697L10.4462 8.00983C10.9903 7.46578 10.9897 6.58118 10.4433 6.03473C9.89684 5.48829 9.01323 5.48677 8.46819 6.03181L0.986087 13.5139C0.694045 13.806 0.57893 14.1628 0.608664 14.5146C0.606431 14.8765 0.739261 15.2393 1.01599 15.516L8.49657 22.9966C9.04301 23.543 9.92667 23.5446 10.4717 22.9995C11.0177 22.4554 11.0172 21.5708 10.4718 21.0254Z" clip-rule="evenodd" class="colorfff svgShape"></path></svg></g></svg>