<svg xmlns="http://www.w3.org/2000/svg" width="45" height="50" viewBox="0 0 45 50">
    <g fill="none" fill-rule="evenodd" stroke="#6BAD10" stroke-linecap="round" stroke-linejoin="round" stroke-width=".938">
        <path d="M10.592 24.882L11.814 25.863 14.363 22.972M7.338 33.213L8.559 34.194 11.109 31.303M16.739 25.183L32.329 25.183M17.339 15.797L33.663 15.797M13.512 32.906L30.747 32.906M11.454 15.763L12.676 16.745 15.225 13.853" transform="translate(1 1)"/>
        <g>
            <path d="M33.42 38.992l8.633.196c.557.015 1.007.444 1.032.985.055 1.247.117 3.374-.05 4.252-.231 1.21-1.03 2.606-4.226 2.706-3.195.1-5.87-2.12-5.496-7.234.387-5.318 3.603-8.157 5.783-21.574C40.526 9.517 39.525.03 35.711.03c-4.208 0-4.262 4.263-4.062 6.234.054.527-.374.982-.92.982H2.42c-.722 0-2.183-1.102-2.165-3.858C.27.92 2.624.03 2.624.03h33.087" transform="translate(1 1) translate(0 .216)"/>
            <path d="M38.81 47.133l-32.674-.288c-2.875-.25-7.99-6.228-1.08-18.196 5.28-9.143 1.898-21.403 1.898-21.403" transform="translate(1 1) translate(0 .216)"/>
        </g>
    </g>
</svg>
