<?xml version="1.0" encoding="utf-8"?>
<!-- Generator: Adobe Illustrator 24.1.3, SVG Export Plug-In . SVG Version: 6.00 Build 0)  -->
<svg version="1.1" id="Layer_1" xmlns="http://www.w3.org/2000/svg" xmlns:xlink="http://www.w3.org/1999/xlink" x="0px" y="0px"
	 width="65px" height="64px" viewBox="0 0 65 64" style="enable-background:new 0 0 65 64;" xml:space="preserve">
<style type="text/css">
	.st0{fill:none;stroke:#6BAD10;stroke-linejoin:round;stroke-dasharray:5.233;}
	.st1{fill:none;stroke:#6BAD10;stroke-linecap:round;}
	.st2{fill:none;stroke:#6BAD10;stroke-width:0.5;}
	.st3{fill:none;stroke:#6BAD10;stroke-linecap:round;stroke-linejoin:round;}
	.st4{fill:none;stroke:#6BAD10;}
	.st5{fill:none;stroke:#6BAD10;stroke-width:0.9;stroke-linejoin:round;}
</style>
<g>
	<path class="st0" d="M20.9,50.9c-9.2-3.2-15.8-12-15.8-22.3c0-1.5,0.1-3,0.4-4.4"/>
	<path class="st0" d="M20.4,6.5C23,5.6,25.8,5,28.8,5C40.4,5,50.1,13.4,52,24.5"/>
	<path class="st1" d="M33,42.3l-2,2.3"/>
	<path class="st2" d="M31.6,51.1c0,0,0.6,0.9,1.8,2.2c1.2,1.2,2.1,1.7,2.1,1.7 M35.9,49c0,0,0.6,0.9,1.8,2.2
		c1.2,1.2,2.1,1.7,2.1,1.7"/>
	<path class="st1" d="M42.3,28.9L29.8,43.4"/>
	<path class="st3" d="M38.4,30.2c0,0,5.6,3.1,2.8,6.5C39.1,39.4,34,35,34,35s5.8,3.7,3,7c-2.8,3.2-6.9-2.6-6.9-2.6"/>
	<path class="st1" d="M43.6,30.3l-2.1,2.4"/>
	<path class="st4" d="M49.8,25.3c-2.8-2.8-11.6-0.2-18.4,6.9c-6.9,7.1-9.2,16-6.4,18.7c2.8,2.8,10.7-0.7,17.5-7.8
		C49.4,36,52.7,28.1,49.8,25.3z"/>
	<path class="st4" d="M25.2,51.1l4.3,4.3c2.2,2,10.5-1,17.1-8.2c8-8.7,9.3-15.3,7.5-17.1L50,25.5"/>
	<path class="st4" d="M54.3,35.4c0,0-0.7-1.1-2-2.3c-1.3-1.1-2.1-1.6-2.1-1.6"/>
	<g>
		<g>
			<path class="st5" d="M18.4,11.7l-1.1,3.7l-4.4,0.8l7,1.8L18.4,11.7L18.4,11.7z M10.8,8l1.8,6.1l3.1-0.5l0.7-3.2
				C16.4,10.5,10.8,8,10.8,8z"/>
		</g>
	</g>
	<path class="st4" d="M5.5,4.2C7.6,2.1,14.2,4,19.4,9.4s7,12.1,4.8,14.1c-2.1,2.1-8.1-0.6-13.2-5.9C5.8,12.3,3.4,6.3,5.5,4.2z"/>
	<path class="st4" d="M24.1,23.6l-3,3.1c-2.1,2-8.3-0.4-13.5-5.7C1.2,14.6,0.9,9.1,2.2,7.8l3.1-3.5"/>
	<path class="st1" d="M19.3,23.7c0,0-0.4,0.7-1.4,1.6c-0.9,0.9-1.7,1.6-1.7,1.6 M16,22.1c0,0-0.4,0.7-1.4,1.6
		c-0.9,0.9-1.8,1.6-1.8,1.6"/>
	<path class="st4" d="M1.8,11.6c0,0,0.8-0.7,1.8-1.6c1-0.9,1.7-1.2,1.7-1.2"/>
</g>
</svg>
