<svg xmlns="http://www.w3.org/2000/svg" width="56" height="51" viewBox="0 0 56 51">
    <g fill="none" fill-rule="evenodd" transform="translate(1.612 1.214)">
        <path stroke="#6BAD10" stroke-linecap="round" stroke-linejoin="round" d="M24.4 38.606H3c-1.657 0-3-1.343-3-3V3c0-1.657 1.343-3 3-3h44c1.657 0 3 1.343 3 3v22.299h0"/>
        <path stroke="#6BAD10" stroke-linejoin="round" d="M.047 29.077l6.174-5.65c.818-.748 2.058-.79 2.926-.101.84.668 2.057.548 2.751-.27l5.702-6.714c1.499-1.765 4.144-1.98 5.909-.482.177.15.341.315.491.493h0"/>
        <circle cx="29.173" cy="18.562" r="1.335" fill="#B8E986"/>
        <path fill="#6C6C6C" stroke="#6BAD10" d="M32.888 15.286L50 2.874"/>
        <path stroke="#6BAD10" d="M32.184 19.462c.47-1.642-.479-3.354-2.12-3.824-1.641-.47-3.353.478-3.824 2.12-.47 1.64.479 3.353 2.12 3.823"/>
        <path stroke="#6BAD10" stroke-linecap="round" stroke-linejoin="round" d="M33.784 47.18c-1.746-1.848-4.755-5.208-6.427-8.062-.67-1.138-.869-2.108-.284-2.728.844-.906 1.957-.901 3.245-.076 1.76 1.261 3.377 2.713 4.82 4.329 0 0-4.633-13.754-5.346-16.48-.713-2.726.13-3.09 1.106-3.463.977-.374 2.132.156 2.795 1.916.845 2.287 3.999 11.724 3.999 11.724s-1.467-4.12-1.678-6.573c-.065-.791.41-1.527 1.159-1.792 1.19-.339 2.134-.15 2.57.876.669 1.573 2.13 6.394 2.13 6.394s-.843-4.015-1.035-5.302c-.252-.92.258-1.875 1.162-2.177.964-.297 1.998.18 2.396 1.107.641 1.668 1.166 3.378 1.572 5.118 0 0-.551-3.249-.2-4.575.181-.688 1.014-.949 1.935-.802.393.102.741.331.99.652 2.518 2.833 2.959 8.918 2.981 11.864"/>
    </g>
</svg>
