<svg width="304" height="215" viewBox="0 0 304 215" fill="none" xmlns="http://www.w3.org/2000/svg">
<g opacity="0.5">
<g filter="url(#filter0_d_64_6012)">
<rect x="42.6619" y="86" width="45" height="45" rx="8" fill="white"/>
<rect x="42.6619" y="86" width="45" height="45" rx="8"/>
</g>
<path fill-rule="evenodd" clip-rule="evenodd" d="M54.1746 109.531C55.2017 109.378 56.2457 109.378 57.2727 109.531C57.2727 109.531 57.0514 103.253 62.4091 103.271C67.7667 103.288 68.3899 108.11 68.6985 109.403V109.671C69.548 109.541 70.4085 109.498 71.2667 109.543C71.2667 109.543 70.9173 100.359 62.4091 100.697C54.0756 101.011 54.1746 109.531 54.1746 109.531Z" stroke="#3FB923" stroke-width="0.75" stroke-linecap="round" stroke-linejoin="round"/>
<path d="M61.8328 100.685C61.8328 100.685 62.9975 94.3606 68.5881 96.096C74.1786 97.8314 75.355 103.113 75.7044 105.414C76.0538 107.714 75.8966 113.648 75.8966 113.648" stroke="#3FB923" stroke-width="0.75" stroke-linecap="round" stroke-linejoin="round"/>
<path d="M63.6667 100.685C63.6667 100.685 63.2533 96.853 67.6792 97.2664C72.105 97.6799 74.085 103.608 74.1258 104.942C74.1666 106.275 74.5975 110.946 74.5626 113.479" stroke="#3FB923" stroke-width="0.75" stroke-linecap="round" stroke-linejoin="round"/>
<path d="M74.889 119.454C76.0179 119.454 76.9331 118.539 76.9331 117.41C76.9331 116.281 76.0179 115.366 74.889 115.366C73.7601 115.366 72.845 116.281 72.845 117.41C72.845 118.539 73.7601 119.454 74.889 119.454Z" stroke="#3FB923" stroke-width="0.75" stroke-linecap="round" stroke-linejoin="round"/>
<path d="M74.8886 121.347C77.0628 121.347 78.8253 119.584 78.8253 117.41C78.8253 115.236 77.0628 113.473 74.8886 113.473C72.7144 113.473 70.9519 115.236 70.9519 117.41C70.9519 119.584 72.7144 121.347 74.8886 121.347Z" stroke="#3FB923" stroke-width="0.75" stroke-linecap="round" stroke-linejoin="round"/>
<path d="M55.0657 109.438C55.0657 109.438 54.4367 116.257 58.1638 118.47" stroke="#3FB923" stroke-width="0.75" stroke-linecap="round" stroke-linejoin="round"/>
<path d="M56.4577 109.438C56.4577 109.438 55.6482 114.819 58.758 117.23" stroke="#3FB923" stroke-width="0.75" stroke-linecap="round" stroke-linejoin="round"/>
<path d="M55.0657 109.438C55.0657 109.438 54.4367 116.257 58.1638 118.47" stroke="#3FB923" stroke-width="0.75" stroke-linecap="round" stroke-linejoin="round"/>
<path d="M56.4577 109.438C56.4577 109.438 55.6482 114.819 58.758 117.23" stroke="#3FB923" stroke-width="0.75" stroke-linecap="round" stroke-linejoin="round"/>
<path d="M61.1921 118.818C61.5522 118.121 61.279 117.264 60.5818 116.904C59.8846 116.543 59.0274 116.817 58.6672 117.514L58.3598 118.109C57.9996 118.806 58.2729 119.663 58.9701 120.023C59.6673 120.384 60.5245 120.11 60.8847 119.413L61.1921 118.818Z" stroke="#3FB923" stroke-width="0.75" stroke-linecap="round" stroke-linejoin="round"/>
<path d="M70.539 109.671C70.539 109.671 71.168 116.49 67.4409 118.703" stroke="#3FB923" stroke-width="0.75" stroke-linecap="round" stroke-linejoin="round"/>
<path d="M69.1472 109.671C69.1472 109.671 69.9567 115.052 66.8469 117.468" stroke="#3FB923" stroke-width="0.75" stroke-linecap="round" stroke-linejoin="round"/>
<path d="M64.7033 119.656C65.0635 120.353 65.9207 120.627 66.6179 120.266C67.3152 119.906 67.5884 119.049 67.2282 118.352L66.9208 117.757C66.5607 117.06 65.7035 116.786 65.0062 117.147C64.309 117.507 64.0358 118.364 64.3959 119.061L64.7033 119.656Z" stroke="#3FB923" stroke-width="0.75" stroke-linecap="round" stroke-linejoin="round"/>
<g style="mix-blend-mode:overlay" filter="url(#filter1_d_64_6012)">
<rect x="42" y="86" width="45.6618" height="45" rx="8" fill="url(#paint0_linear_64_6012)" fill-opacity="0.75"/>
<rect x="42" y="86" width="45.6618" height="45" rx="8"/>
</g>
</g>
<g opacity="0.5">
<g filter="url(#filter2_d_64_6012)">
<rect x="217" y="86" width="45" height="45" rx="8" fill="white"/>
<rect x="217" y="86" width="45" height="45" rx="8"/>
</g>
<path d="M230.007 101.259L234.278 103.076H244.23L248.591 101.575L244.365 100.125H234.097L230.007 101.259Z" stroke="#3FB923" stroke-width="0.75" stroke-linecap="round" stroke-linejoin="round"/>
<path d="M248.591 101.575L251.135 105.394L244.777 107.984H233.917L227.192 105.485L230.007 101.259" stroke="#3FB923" stroke-width="0.75" stroke-linecap="round" stroke-linejoin="round"/>
<path d="M234.278 103.076L233.917 107.984L239.299 118.568L244.777 107.984L244.23 103.076" stroke="#3FB923" stroke-width="0.75" stroke-linecap="round" stroke-linejoin="round"/>
<path d="M227.192 105.485L239.299 118.568L251.135 105.394" stroke="#3FB923" stroke-width="0.75" stroke-linecap="round" stroke-linejoin="round"/>
<g style="mix-blend-mode:overlay" filter="url(#filter3_d_64_6012)">
<rect x="217" y="86" width="45" height="45" rx="8" fill="url(#paint1_linear_64_6012)" fill-opacity="0.75"/>
<rect x="217" y="86" width="45" height="45" rx="8"/>
</g>
</g>
<rect x="23" y="97" width="260" height="88" fill="url(#paint2_linear_64_6012)"/>
<g opacity="0.75" filter="url(#filter4_d_64_6012)">
<rect x="66" y="72" width="72" height="72" rx="8" fill="white"/>
<rect x="66" y="72" width="72" height="72" rx="8"/>
</g>
<g opacity="0.95">
<path d="M85.5692 99.8734V101.061C85.5676 101.135 85.5876 101.208 85.627 101.271C85.6664 101.334 85.7233 101.384 85.7907 101.415C95.057 105.089 105.335 105.309 114.75 102.036C114.829 102.008 114.897 101.956 114.944 101.888C114.992 101.819 115.017 101.738 115.016 101.655V99.9265C115.016 99.8631 115.001 99.8006 114.971 99.7445C114.941 99.6884 114.899 99.6403 114.846 99.6045C114.794 99.5687 114.733 99.5462 114.67 99.539C114.607 99.5318 114.543 99.5401 114.484 99.5632C112.003 100.591 100.997 104.446 86.0743 99.51C86.0167 99.4902 85.9551 99.4844 85.8948 99.4933C85.8345 99.5022 85.7772 99.5254 85.7277 99.561C85.6782 99.5966 85.638 99.6435 85.6104 99.6979C85.5828 99.7522 85.5687 99.8124 85.5692 99.8734Z" stroke="#3FB923" stroke-width="0.75" stroke-linecap="round" stroke-linejoin="round"/>
<path d="M86.3572 101.903L89.6714 123.888C92.5997 126.459 96.4131 127.791 100.305 127.601C106.978 127.362 110.053 125.625 110.212 125.315C110.372 125.005 114.422 102.151 114.422 102.151" stroke="#3FB923" stroke-width="0.75" stroke-linecap="round" stroke-linejoin="round"/>
<path d="M89.5928 102.744L92.4462 125.82" stroke="#3FB923" stroke-width="0.75" stroke-linecap="round" stroke-linejoin="round"/>
<path d="M94.0139 104.313L95.5292 127.043" stroke="#3FB923" stroke-width="0.75" stroke-linecap="round" stroke-linejoin="round"/>
<path d="M98.8254 104.313L99.5344 127.61" stroke="#3FB923" stroke-width="0.75" stroke-linecap="round" stroke-linejoin="round"/>
<path d="M103.646 104.313L102.627 127.441" stroke="#3FB923" stroke-width="0.75" stroke-linecap="round" stroke-linejoin="round"/>
<path d="M107.687 104.313L105.773 126.493" stroke="#3FB923" stroke-width="0.75" stroke-linecap="round" stroke-linejoin="round"/>
<path d="M111.56 102.975L108.662 126.139" stroke="#3FB923" stroke-width="0.75" stroke-linecap="round" stroke-linejoin="round"/>
<path d="M86.0743 99.5097C86.0743 99.5097 85.1881 95.8588 87.3061 95.8588C88.6441 95.8588 88.7594 96.4526 88.7594 96.4526C88.7594 96.4526 88.6885 94.2017 90.5317 94.5207C90.5317 94.5207 90.0974 91.7913 91.2849 91.2065C92.4723 90.6216 92.8622 90.8432 93.456 91.561C93.456 91.561 95.6625 88.4683 97.5943 88.9025C98.1188 89.0217 98.5768 89.3391 98.8725 89.7884C99.1682 90.2377 99.2786 90.784 99.1805 91.3128" stroke="#3FB923" stroke-width="0.75" stroke-linecap="round" stroke-linejoin="round"/>
<path d="M115.016 99.2972C115.016 99.2972 116.319 97.6401 115.255 97.3565C114.192 97.0729 113.988 97.3565 113.988 97.3565C113.988 97.3565 115.202 96.9666 114.83 96.3729C114.83 96.3729 114.546 95.5488 113.199 95.7437" stroke="#3FB923" stroke-width="0.75" stroke-linecap="round" stroke-linejoin="round"/>
<path d="M99.1892 89.9395C99.1892 89.9395 101.768 90.099 100.651 93.0144C100.651 93.0144 102.743 91.2421 103.806 93.0144C103.806 93.0144 105.188 89.7002 107.351 91.4814C107.635 91.6066 107.865 91.8315 107.995 92.1138C108.126 92.3961 108.149 92.7164 108.06 93.0144" stroke="#3FB923" stroke-width="0.75" stroke-linecap="round" stroke-linejoin="round"/>
<path d="M114.404 95.5845C114.404 95.5845 116.637 94.1223 114.262 93.0147C114.262 93.0147 116.699 91.6765 114.812 90.1789C112.924 88.6813 111.737 91.9513 111.737 91.9513C111.737 91.9513 110.567 89.6207 108.094 91.9513" stroke="#3FB923" stroke-width="0.75" stroke-linecap="round" stroke-linejoin="round"/>
<path d="M100.022 89.7888C100.022 89.7888 100.749 86.3062 103.283 87.1303C104.435 87.5025 104.736 88.1139 104.727 88.6634C104.713 89.0989 104.62 89.5282 104.453 89.9306" stroke="#3FB923" stroke-width="0.75" stroke-linecap="round" stroke-linejoin="round"/>
<path d="M110.771 91.0827C110.771 91.0827 111.241 88.2204 108.113 88.9382C108.113 88.9382 107.138 87.1659 104.967 88.823" stroke="#3FB923" stroke-width="0.75" stroke-linecap="round" stroke-linejoin="round"/>
<path d="M92.0388 90.7811C91.498 90.3389 90.8086 90.1202 90.1117 90.1696C89.4149 90.219 88.7633 90.5329 88.2904 91.047C87.9349 91.3677 87.6935 91.7953 87.6023 92.2652C87.5112 92.7352 87.5754 93.222 87.7852 93.6523" stroke="#3FB923" stroke-width="0.75" stroke-linecap="round" stroke-linejoin="round"/>
<path d="M87.785 93.6877C87.5341 93.72 87.2952 93.8145 87.0901 93.9627C86.8851 94.111 86.7205 94.3082 86.6112 94.5364C86.5019 94.7646 86.4516 95.0165 86.4647 95.2691C86.4778 95.5218 86.5539 95.7672 86.6862 95.9829" stroke="#3FB923" stroke-width="0.75" stroke-linecap="round" stroke-linejoin="round"/>
<path d="M89.9114 99.2972C89.9114 99.2972 90.8596 97.7908 91.7634 98.7833C91.7634 98.7833 93.1458 98.2161 93.0306 99.7314" stroke="#3FB923" stroke-width="0.75" stroke-linecap="round" stroke-linejoin="round"/>
<path d="M95.3171 93.6878C95.3171 93.6878 96.3805 91.3572 97.7275 93.2536C97.7275 93.2536 98.1971 91.8801 99.1896 92.6865" stroke="#3FB923" stroke-width="0.75" stroke-linecap="round" stroke-linejoin="round"/>
<path d="M97.5673 97.6755C97.5673 97.6755 95.0772 97.5337 95.795 95.9829C96.5128 94.4322 97.2128 95.9829 97.2128 95.9829C97.2128 95.9829 97.6116 95.2829 98.2053 95.7082C98.3837 95.8572 98.5282 96.0426 98.629 96.252C98.7299 96.4614 98.7848 96.6899 98.7902 96.9223C98.7902 96.9223 100.846 96.3729 99.9776 98.4465C99.8045 98.5706 99.5969 98.6373 99.3839 98.6373C99.1709 98.6373 98.9633 98.5706 98.7902 98.4465C98.7902 98.4465 98.675 99.8111 97.5673 99.3326C97.6027 99.2972 96.6191 98.8187 97.5673 97.6755Z" stroke="#3FB923" stroke-width="0.75" stroke-linecap="round" stroke-linejoin="round"/>
<path d="M107.235 96.9844C107.235 96.9844 105.543 95.9653 107.04 94.8576C107.04 94.8576 107.554 93.6613 108.502 94.1398C108.502 94.1398 109.291 94.2994 108.937 95.5046C108.937 95.5046 110.23 95.4425 110.115 96.5502C110.115 96.5502 110.195 97.7376 109.229 97.8528C109.139 98.1441 108.963 98.4015 108.724 98.5912C108.485 98.7809 108.195 98.8942 107.891 98.9162C106.695 99.1378 106.216 97.7908 107.235 96.9844Z" stroke="#3FB923" stroke-width="0.75" stroke-linecap="round" stroke-linejoin="round"/>
<path d="M102.344 100.715C102.344 100.715 103.052 98.4644 104.24 99.9709C104.359 100.205 104.44 100.456 104.479 100.715C104.435 100.875 105.365 99.8291 105.977 100.715" stroke="#3FB923" stroke-width="0.75" stroke-linecap="round" stroke-linejoin="round"/>
</g>
<g style="mix-blend-mode:overlay" filter="url(#filter5_d_64_6012)">
<rect x="66" y="72" width="72" height="72" rx="8" fill="url(#paint3_linear_64_6012)" fill-opacity="0.75"/>
<rect x="66" y="72" width="72" height="72" rx="8"/>
</g>
<g opacity="0.75" filter="url(#filter6_d_64_6012)">
<rect x="168" y="72" width="72" height="72" rx="12" fill="white"/>
<rect x="168" y="72" width="72" height="72" rx="12"/>
</g>
<g opacity="0.95">
<path d="M204.729 120.838C204.729 123.232 199.876 125.168 193.882 125.168C187.889 125.168 183.082 123.232 183.082 120.838" stroke="#3FB923" stroke-width="0.75" stroke-linecap="round" stroke-linejoin="round"/>
<path d="M193.882 119.604C199.873 119.604 204.729 117.661 204.729 115.265C204.729 112.869 199.873 110.927 193.882 110.927C187.892 110.927 183.036 112.869 183.036 115.265C183.036 117.661 187.892 119.604 193.882 119.604Z" stroke="#3FB923" stroke-width="0.75" stroke-linecap="round" stroke-linejoin="round"/>
<path d="M183.036 120.829V115.265" stroke="#3FB923" stroke-width="0.75" stroke-linecap="round" stroke-linejoin="round"/>
<path d="M204.729 120.829V115.265" stroke="#3FB923" stroke-width="0.75" stroke-linecap="round" stroke-linejoin="round"/>
<path d="M186.991 118.519L199.708 111.628" stroke="#3FB923" stroke-width="0.75" stroke-linecap="round" stroke-linejoin="round"/>
<path d="M221.051 97.614L203.907 90.4775C200.04 88.868 195.602 90.6958 193.993 94.56C192.385 98.4242 194.215 102.861 198.082 104.471L215.226 111.607C219.093 113.217 223.531 111.389 225.14 107.525C226.748 103.661 224.918 99.2235 221.051 97.614Z" stroke="#3FB923" stroke-width="0.75" stroke-linecap="round" stroke-linejoin="round"/>
<path d="M210.835 93.3663L210.386 105.457C210.154 106.792 209.417 107.987 208.329 108.795" stroke="#3FB923" stroke-width="0.75" stroke-linecap="round" stroke-linejoin="round"/>
<path d="M194.416 93.6935C194.416 93.6935 192.087 97.2187 191.919 100.594C191.751 103.97 194.874 106.102 197.464 107.252C199.614 108.187 210.648 112.423 214.295 113.797C215.309 114.188 216.419 114.257 217.474 113.994C219.388 113.469 221.115 112.416 222.458 110.955" stroke="#3FB923" stroke-width="0.75" stroke-linecap="round" stroke-linejoin="round"/>
</g>
<g style="mix-blend-mode:overlay" filter="url(#filter7_d_64_6012)">
<rect x="168" y="72" width="72" height="72" rx="12" fill="url(#paint4_linear_64_6012)" fill-opacity="0.75"/>
<rect x="168" y="72" width="72" height="72" rx="12"/>
</g>
<g opacity="0.9" filter="url(#filter8_d_64_6012)">
<rect x="105" y="60" width="95" height="95" rx="8" fill="white"/>
<rect x="105" y="60" width="95" height="95" rx="8"/>
</g>
<path d="M154.965 119.286V119.849H154.889C154.945 119.667 154.971 119.477 154.965 119.286V119.286Z" stroke="#3FB923" stroke-width="0.75" stroke-linecap="round" stroke-linejoin="round"/>
<path d="M154.965 119.286V119.849H154.889C154.945 119.667 154.971 119.477 154.965 119.286V119.286Z" stroke="#3FB923" stroke-width="0.75" stroke-linecap="round" stroke-linejoin="round"/>
<path d="M154.878 119.817C154.931 119.645 154.956 119.466 154.954 119.286V119.849L154.878 119.817Z" stroke="#3FB923" stroke-width="0.75" stroke-linecap="round" stroke-linejoin="round"/>
<path d="M154.965 112.939V113.492H154.889C154.945 113.313 154.97 113.126 154.965 112.939V112.939Z" stroke="#3FB923" stroke-width="0.75" stroke-linecap="round" stroke-linejoin="round"/>
<path d="M154.878 119.817C154.931 119.645 154.956 119.466 154.954 119.286V119.849L154.878 119.817Z" stroke="#3FB923" stroke-width="0.75" stroke-linecap="round" stroke-linejoin="round"/>
<path d="M154.965 112.939V113.492H154.889C154.945 113.313 154.97 113.126 154.965 112.939V112.939Z" stroke="#3FB923" stroke-width="0.75" stroke-linecap="round" stroke-linejoin="round"/>
<path d="M154.878 113.459C154.93 113.291 154.955 113.115 154.954 112.939V113.492H154.878V113.459Z" stroke="#3FB923" stroke-width="0.75" stroke-linecap="round" stroke-linejoin="round"/>
<path d="M154.965 106.582V107.134H154.889C154.945 106.955 154.97 106.769 154.965 106.582V106.582Z" stroke="#3FB923" stroke-width="0.75" stroke-linecap="round" stroke-linejoin="round"/>
<path d="M154.878 113.459C154.93 113.291 154.955 113.115 154.954 112.939V113.492H154.878V113.459Z" stroke="#3FB923" stroke-width="0.75" stroke-linecap="round" stroke-linejoin="round"/>
<path d="M154.965 106.582V107.134H154.889C154.945 106.955 154.97 106.769 154.965 106.582V106.582Z" stroke="#3FB923" stroke-width="0.75" stroke-linecap="round" stroke-linejoin="round"/>
<path d="M154.878 107.069C154.93 106.901 154.955 106.725 154.954 106.549V107.101H154.878V107.069Z" stroke="#3FB923" stroke-width="0.75" stroke-linecap="round" stroke-linejoin="round"/>
<path d="M154.965 119.286V119.849H154.889C154.945 119.667 154.971 119.477 154.965 119.286V119.286Z" stroke="#3FB923" stroke-width="0.75" stroke-linecap="round" stroke-linejoin="round"/>
<path d="M154.965 119.286V119.849H154.889C154.945 119.667 154.971 119.477 154.965 119.286V119.286Z" stroke="#3FB923" stroke-width="0.75" stroke-linecap="round" stroke-linejoin="round"/>
<path d="M154.965 112.939V113.492H154.889C154.945 113.313 154.97 113.126 154.965 112.939V112.939Z" stroke="#3FB923" stroke-width="0.75" stroke-linecap="round" stroke-linejoin="round"/>
<path d="M154.965 106.582V107.134H154.889C154.945 106.955 154.97 106.769 154.965 106.582V106.582Z" stroke="#3FB923" stroke-width="0.75" stroke-linecap="round" stroke-linejoin="round"/>
<path d="M177.287 90.3352C177.287 93.1512 171.027 95.4257 163.305 95.4257C155.582 95.4257 149.322 93.1512 149.322 90.3352C149.322 87.5192 155.582 85.2556 163.305 85.2556C171.027 85.2556 177.287 87.4218 177.287 90.3352Z" stroke="#3FB923" stroke-width="0.75" stroke-linecap="round" stroke-linejoin="round"/>
<path d="M177.287 90.3353V96.693C177.287 99.4981 171.027 101.783 163.305 101.783C155.582 101.783 149.322 99.4981 149.322 96.693V90.3353C149.322 93.1513 155.582 95.4258 163.305 95.4258C171.027 95.4258 177.287 93.1513 177.287 90.3353Z" stroke="#3FB923" stroke-width="0.75" stroke-linecap="round" stroke-linejoin="round"/>
<path d="M177.287 96.6929V103.051C177.287 105.856 171.027 108.13 163.305 108.13C160.494 108.152 157.692 107.818 154.965 107.134V106.581C154.965 105.173 153.514 103.949 151.164 103.051C150.561 102.822 149.946 102.627 149.322 102.466V96.6929C149.322 99.498 155.582 101.783 163.305 101.783C171.027 101.783 177.287 99.4872 177.287 96.6929Z" stroke="#3FB923" stroke-width="0.75" stroke-linecap="round" stroke-linejoin="round"/>
<path d="M177.287 103.051V109.408C177.287 112.213 171.027 114.488 163.305 114.488C160.493 114.515 157.69 114.181 154.965 113.491V107.134C157.691 107.818 160.494 108.152 163.305 108.13C171.027 108.152 177.287 105.856 177.287 103.051Z" stroke="#3FB923" stroke-width="0.75" stroke-linecap="round" stroke-linejoin="round"/>
<path d="M177.287 109.408V115.734C177.287 118.539 171.027 120.813 163.305 120.813C160.494 120.835 157.691 120.501 154.965 119.817V113.459C157.69 114.148 160.493 114.483 163.305 114.456C171.027 114.488 177.287 112.214 177.287 109.408Z" stroke="#3FB923" stroke-width="0.75" stroke-linecap="round" stroke-linejoin="round"/>
<path d="M177.287 115.733V122.08C177.287 124.896 171.027 127.171 163.305 127.171C160.464 127.183 157.634 126.819 154.889 126.088C154.942 125.916 154.967 125.737 154.965 125.557V119.849C157.692 120.533 160.494 120.868 163.305 120.845C171.027 120.845 177.287 118.571 177.287 115.733Z" stroke="#3FB923" stroke-width="0.75" stroke-linecap="round" stroke-linejoin="round"/>
<path d="M154.965 119.849V125.644C154.967 125.823 154.942 126.002 154.889 126.174C154.164 128.73 148.217 130.734 140.983 130.734C133.26 130.734 127 128.449 127 125.644V119.286C127 122.102 133.26 124.376 140.983 124.376C143.906 124.407 146.821 124.042 149.647 123.293C152.506 122.459 154.445 121.235 154.846 119.838L154.965 119.849Z" stroke="#3FB923" stroke-width="0.75" stroke-linecap="round" stroke-linejoin="round"/>
<path d="M154.965 113.491V119.286C154.968 119.465 154.942 119.644 154.89 119.816C154.489 121.214 152.55 122.437 149.691 123.271C146.864 124.021 143.95 124.385 141.026 124.355C133.304 124.355 127.044 122.08 127.044 119.264V112.917C127.044 115.722 133.304 117.997 141.026 117.997C143.837 118.024 146.64 117.689 149.366 117L149.734 116.892C150.74 116.615 151.713 116.23 152.637 115.744C153.671 115.305 154.494 114.482 154.933 113.448L154.965 113.491Z" stroke="#3FB923" stroke-width="0.75" stroke-linecap="round" stroke-linejoin="round"/>
<path d="M154.965 107.134V112.939C154.966 113.115 154.941 113.291 154.889 113.459C154.45 114.493 153.627 115.316 152.593 115.755C151.67 116.241 150.697 116.626 149.69 116.903L149.322 117.011C146.597 117.7 143.794 118.035 140.983 118.008C133.26 118.008 127 115.733 127 112.928V106.571C127 109.376 133.26 111.65 140.983 111.65C143.793 111.672 146.596 111.337 149.322 110.654L149.69 110.545C150.702 110.264 151.682 109.879 152.615 109.397C153.643 108.944 154.454 108.109 154.878 107.069L154.965 107.134Z" stroke="#3FB923" stroke-width="0.75" stroke-linecap="round" stroke-linejoin="round"/>
<path d="M154.965 106.581C154.966 106.758 154.941 106.933 154.889 107.101C154.456 108.131 153.641 108.954 152.615 109.397C151.682 109.879 150.702 110.264 149.69 110.545L149.322 110.654C146.596 111.337 143.793 111.672 140.983 111.65C133.26 111.65 127 109.376 127 106.571C127 103.765 133.26 101.48 140.983 101.48C143.792 101.452 146.594 101.78 149.322 102.455C149.946 102.616 150.561 102.811 151.163 103.04C153.514 103.95 154.965 105.173 154.965 106.581Z" stroke="#3FB923" stroke-width="0.75" stroke-linecap="round" stroke-linejoin="round"/>
<g style="mix-blend-mode:overlay" filter="url(#filter9_d_64_6012)">
<rect x="105" y="60" width="95" height="95" rx="8" fill="url(#paint5_linear_64_6012)" fill-opacity="0.75"/>
<rect x="105" y="60" width="95" height="95" rx="8" />
</g>
<defs>
<filter id="filter0_d_64_6012" x="0.661865" y="44" width="129" height="129" filterUnits="userSpaceOnUse" color-interpolation-filters="sRGB">
<feFlood flood-opacity="0" result="BackgroundImageFix"/>
<feColorMatrix in="SourceAlpha" type="matrix" values="0 0 0 0 0 0 0 0 0 0 0 0 0 0 0 0 0 0 127 0" result="hardAlpha"/>
<feMorphology radius="2" operator="dilate" in="SourceAlpha" result="effect1_dropShadow_64_6012"/>
<feOffset/>
<feGaussianBlur stdDeviation="20"/>
<feColorMatrix type="matrix" values="0 0 0 0 0 0 0 0 0 0 0 0 0 0 0 0 0 0 0.1 0"/>
<feBlend mode="normal" in2="BackgroundImageFix" result="effect1_dropShadow_64_6012"/>
<feBlend mode="normal" in="SourceGraphic" in2="effect1_dropShadow_64_6012" result="shape"/>
</filter>
<filter id="filter1_d_64_6012" x="0" y="44" width="129.662" height="129" filterUnits="userSpaceOnUse" color-interpolation-filters="sRGB">
<feFlood flood-opacity="0" result="BackgroundImageFix"/>
<feColorMatrix in="SourceAlpha" type="matrix" values="0 0 0 0 0 0 0 0 0 0 0 0 0 0 0 0 0 0 127 0" result="hardAlpha"/>
<feMorphology radius="2" operator="dilate" in="SourceAlpha" result="effect1_dropShadow_64_6012"/>
<feOffset/>
<feGaussianBlur stdDeviation="20"/>
<feColorMatrix type="matrix" values="0 0 0 0 0 0 0 0 0 0 0 0 0 0 0 0 0 0 0.05 0"/>
<feBlend mode="normal" in2="BackgroundImageFix" result="effect1_dropShadow_64_6012"/>
<feBlend mode="normal" in="SourceGraphic" in2="effect1_dropShadow_64_6012" result="shape"/>
</filter>
<filter id="filter2_d_64_6012" x="175" y="44" width="129" height="129" filterUnits="userSpaceOnUse" color-interpolation-filters="sRGB">
<feFlood flood-opacity="0" result="BackgroundImageFix"/>
<feColorMatrix in="SourceAlpha" type="matrix" values="0 0 0 0 0 0 0 0 0 0 0 0 0 0 0 0 0 0 127 0" result="hardAlpha"/>
<feMorphology radius="2" operator="dilate" in="SourceAlpha" result="effect1_dropShadow_64_6012"/>
<feOffset/>
<feGaussianBlur stdDeviation="20"/>
<feColorMatrix type="matrix" values="0 0 0 0 0 0 0 0 0 0 0 0 0 0 0 0 0 0 0.05 0"/>
<feBlend mode="normal" in2="BackgroundImageFix" result="effect1_dropShadow_64_6012"/>
<feBlend mode="normal" in="SourceGraphic" in2="effect1_dropShadow_64_6012" result="shape"/>
</filter>
<filter id="filter3_d_64_6012" x="175" y="44" width="129" height="129" filterUnits="userSpaceOnUse" color-interpolation-filters="sRGB">
<feFlood flood-opacity="0" result="BackgroundImageFix"/>
<feColorMatrix in="SourceAlpha" type="matrix" values="0 0 0 0 0 0 0 0 0 0 0 0 0 0 0 0 0 0 127 0" result="hardAlpha"/>
<feMorphology radius="2" operator="dilate" in="SourceAlpha" result="effect1_dropShadow_64_6012"/>
<feOffset/>
<feGaussianBlur stdDeviation="20"/>
<feColorMatrix type="matrix" values="0 0 0 0 0 0 0 0 0 0 0 0 0 0 0 0 0 0 0.05 0"/>
<feBlend mode="normal" in2="BackgroundImageFix" result="effect1_dropShadow_64_6012"/>
<feBlend mode="normal" in="SourceGraphic" in2="effect1_dropShadow_64_6012" result="shape"/>
</filter>
<filter id="filter4_d_64_6012" x="24" y="30" width="156" height="156" filterUnits="userSpaceOnUse" color-interpolation-filters="sRGB">
<feFlood flood-opacity="0" result="BackgroundImageFix"/>
<feColorMatrix in="SourceAlpha" type="matrix" values="0 0 0 0 0 0 0 0 0 0 0 0 0 0 0 0 0 0 127 0" result="hardAlpha"/>
<feMorphology radius="2" operator="dilate" in="SourceAlpha" result="effect1_dropShadow_64_6012"/>
<feOffset/>
<feGaussianBlur stdDeviation="20"/>
<feColorMatrix type="matrix" values="0 0 0 0 0.291667 0 0 0 0 0.281944 0 0 0 0 0.281944 0 0 0 0.06 0"/>
<feBlend mode="normal" in2="BackgroundImageFix" result="effect1_dropShadow_64_6012"/>
<feBlend mode="normal" in="SourceGraphic" in2="effect1_dropShadow_64_6012" result="shape"/>
</filter>
<filter id="filter5_d_64_6012" x="24" y="30" width="156" height="156" filterUnits="userSpaceOnUse" color-interpolation-filters="sRGB">
<feFlood flood-opacity="0" result="BackgroundImageFix"/>
<feColorMatrix in="SourceAlpha" type="matrix" values="0 0 0 0 0 0 0 0 0 0 0 0 0 0 0 0 0 0 127 0" result="hardAlpha"/>
<feMorphology radius="2" operator="dilate" in="SourceAlpha" result="effect1_dropShadow_64_6012"/>
<feOffset/>
<feGaussianBlur stdDeviation="20"/>
<feColorMatrix type="matrix" values="0 0 0 0 0 0 0 0 0 0 0 0 0 0 0 0 0 0 0.05 0"/>
<feBlend mode="normal" in2="BackgroundImageFix" result="effect1_dropShadow_64_6012"/>
<feBlend mode="normal" in="SourceGraphic" in2="effect1_dropShadow_64_6012" result="shape"/>
</filter>
<filter id="filter6_d_64_6012" x="126" y="30" width="156" height="156" filterUnits="userSpaceOnUse" color-interpolation-filters="sRGB">
<feFlood flood-opacity="0" result="BackgroundImageFix"/>
<feColorMatrix in="SourceAlpha" type="matrix" values="0 0 0 0 0 0 0 0 0 0 0 0 0 0 0 0 0 0 127 0" result="hardAlpha"/>
<feMorphology radius="2" operator="dilate" in="SourceAlpha" result="effect1_dropShadow_64_6012"/>
<feOffset/>
<feGaussianBlur stdDeviation="20"/>
<feColorMatrix type="matrix" values="0 0 0 0 0 0 0 0 0 0 0 0 0 0 0 0 0 0 0.1 0"/>
<feBlend mode="normal" in2="BackgroundImageFix" result="effect1_dropShadow_64_6012"/>
<feBlend mode="normal" in="SourceGraphic" in2="effect1_dropShadow_64_6012" result="shape"/>
</filter>
<filter id="filter7_d_64_6012" x="106" y="10" width="196" height="196" filterUnits="userSpaceOnUse" color-interpolation-filters="sRGB">
<feFlood flood-opacity="0" result="BackgroundImageFix"/>
<feColorMatrix in="SourceAlpha" type="matrix" values="0 0 0 0 0 0 0 0 0 0 0 0 0 0 0 0 0 0 127 0" result="hardAlpha"/>
<feMorphology radius="2" operator="dilate" in="SourceAlpha" result="effect1_dropShadow_64_6012"/>
<feOffset/>
<feGaussianBlur stdDeviation="30"/>
<feColorMatrix type="matrix" values="0 0 0 0 0 0 0 0 0 0 0 0 0 0 0 0 0 0 0.2 0"/>
<feBlend mode="normal" in2="BackgroundImageFix" result="effect1_dropShadow_64_6012"/>
<feBlend mode="normal" in="SourceGraphic" in2="effect1_dropShadow_64_6012" result="shape"/>
</filter>
<filter id="filter8_d_64_6012" x="45" y="0" width="215" height="215" filterUnits="userSpaceOnUse" color-interpolation-filters="sRGB">
<feFlood flood-opacity="0" result="BackgroundImageFix"/>
<feColorMatrix in="SourceAlpha" type="matrix" values="0 0 0 0 0 0 0 0 0 0 0 0 0 0 0 0 0 0 127 0" result="hardAlpha"/>
<feOffset/>
<feGaussianBlur stdDeviation="30"/>
<feColorMatrix type="matrix" values="0 0 0 0 0 0 0 0 0 0 0 0 0 0 0 0 0 0 0.15 0"/>
<feBlend mode="normal" in2="BackgroundImageFix" result="effect1_dropShadow_64_6012"/>
<feBlend mode="normal" in="SourceGraphic" in2="effect1_dropShadow_64_6012" result="shape"/>
</filter>
<filter id="filter9_d_64_6012" x="63" y="18" width="179" height="179" filterUnits="userSpaceOnUse" color-interpolation-filters="sRGB">
<feFlood flood-opacity="0" result="BackgroundImageFix"/>
<feColorMatrix in="SourceAlpha" type="matrix" values="0 0 0 0 0 0 0 0 0 0 0 0 0 0 0 0 0 0 127 0" result="hardAlpha"/>
<feMorphology radius="2" operator="dilate" in="SourceAlpha" result="effect1_dropShadow_64_6012"/>
<feOffset/>
<feGaussianBlur stdDeviation="20"/>
<feColorMatrix type="matrix" values="0 0 0 0 0 0 0 0 0 0 0 0 0 0 0 0 0 0 0.1 0"/>
<feBlend mode="normal" in2="BackgroundImageFix" result="effect1_dropShadow_64_6012"/>
<feBlend mode="normal" in="SourceGraphic" in2="effect1_dropShadow_64_6012" result="shape"/>
</filter>
<linearGradient id="paint0_linear_64_6012" x1="64.8309" y1="86" x2="64.8309" y2="131" gradientUnits="userSpaceOnUse">
<stop stop-color="white"/>
<stop offset="1" stop-color="white" stop-opacity="0"/>
</linearGradient>
<linearGradient id="paint1_linear_64_6012" x1="239.5" y1="86" x2="239.5" y2="131" gradientUnits="userSpaceOnUse">
<stop stop-color="white"/>
<stop offset="1" stop-color="white" stop-opacity="0"/>
</linearGradient>
<linearGradient id="paint2_linear_64_6012" x1="153" y1="97" x2="153" y2="185" gradientUnits="userSpaceOnUse">
<stop stop-color="white" stop-opacity="0"/>
<stop offset="1" stop-color="white"/>
</linearGradient>
<linearGradient id="paint3_linear_64_6012" x1="102" y1="72" x2="102" y2="144" gradientUnits="userSpaceOnUse">
<stop stop-color="white"/>
<stop offset="1" stop-color="white" stop-opacity="0"/>
</linearGradient>
<linearGradient id="paint4_linear_64_6012" x1="204" y1="72" x2="204" y2="144" gradientUnits="userSpaceOnUse">
<stop stop-color="white"/>
<stop offset="1" stop-color="white" stop-opacity="0"/>
</linearGradient>
<linearGradient id="paint5_linear_64_6012" x1="152.5" y1="60" x2="152.5" y2="155" gradientUnits="userSpaceOnUse">
<stop stop-color="white"/>
<stop offset="1" stop-color="white" stop-opacity="0"/>
</linearGradient>
</defs>
</svg>
