<?xml version="1.0" encoding="utf-8"?>
<!-- Generator: Adobe Illustrator 21.0.2, SVG Export Plug-In . SVG Version: 6.00 Build 0)  -->
<svg version="1.1" id="Layer_1" xmlns="http://www.w3.org/2000/svg" xmlns:xlink="http://www.w3.org/1999/xlink" x="0px" y="0px"
	 viewBox="0 0 47 32" style="enable-background:new 0 0 47 32;" xml:space="preserve">
<style type="text/css">
	.st0{fill:#4769A7;}
	.st1{fill:#FFFFFF;}
	.st2{fill:#FE352E;}
	.st3{opacity:0;}
</style>
<g>
	<rect class="st0" width="47" height="32"/>
</g>
<g id="Layer_2">
	<rect x="19" class="st1" width="1" height="14"/>
	<rect y="13" class="st1" width="20" height="1"/>
	<rect x="27" class="st1" width="1" height="14"/>
	<rect x="27" y="13" class="st1" width="20" height="1"/>
	<rect x="19" y="18" class="st1" width="1" height="14"/>
	<rect y="18" class="st1" width="20" height="1"/>
	<rect x="27" y="18" class="st1" width="1" height="14"/>
	<rect x="27" y="18" class="st1" width="20" height="1"/>
	<polyline class="st1" points="39.1,32 47,32 47,31 35.1,19 27.4,19 27.4,20.3 	"/>
	<polyline class="st1" points="7.9,32 0,32 0,31 11.9,19 19.6,19 19.6,20.3 	"/>
	<polyline class="st1" points="7.9,0 0,0 0,1 11.9,13 19.6,13 19.6,11.7 	"/>
	<polyline class="st1" points="39.1,0 47,0 47,1 35.1,13 27.4,13 27.4,11.7 	"/>
</g>
<g id="Rectangle_845_copy_5">
	<g>
		<polygon class="st2" points="27,14 27,0 20,0 20,14 0,14 0,18 20,18 20,32 27,32 27,18 47,18 47,14 		"/>
	</g>
	<polyline class="st2" points="6.1,32 3.1,32 2.1,32 15.1,19 18.1,19 19.3,19 	"/>
	<polyline class="st2" points="42.1,32 45.1,32 46.1,32 33.1,19 30.1,19 28.9,19 	"/>
	<polyline class="st2" points="41,0 44,0 45,0 32,13 29,13 27.8,13 	"/>
	<polyline class="st2" points="5,0 2,0 1,0 14,13 17,13 18.2,13 	"/>
</g>
<g>
	<g class="st3">
		<rect x="0.3" y="0.3" width="46.5" height="31.5"/>
	</g>
</g>
</svg>
